%TF.GenerationSoftware,KiCad,Pcbnew,(6.0.4)*%
%TF.CreationDate,2023-01-22T23:07:16+01:00*%
%TF.ProjectId,panelController,70616e65-6c43-46f6-9e74-726f6c6c6572,rev?*%
%TF.SameCoordinates,Original*%
%TF.FileFunction,Paste,Top*%
%TF.FilePolarity,Positive*%
%FSLAX46Y46*%
G04 Gerber Fmt 4.6, Leading zero omitted, Abs format (unit mm)*
G04 Created by KiCad (PCBNEW (6.0.4)) date 2023-01-22 23:07:16*
%MOMM*%
%LPD*%
G01*
G04 APERTURE LIST*
G04 Aperture macros list*
%AMRoundRect*
0 Rectangle with rounded corners*
0 $1 Rounding radius*
0 $2 $3 $4 $5 $6 $7 $8 $9 X,Y pos of 4 corners*
0 Add a 4 corners polygon primitive as box body*
4,1,4,$2,$3,$4,$5,$6,$7,$8,$9,$2,$3,0*
0 Add four circle primitives for the rounded corners*
1,1,$1+$1,$2,$3*
1,1,$1+$1,$4,$5*
1,1,$1+$1,$6,$7*
1,1,$1+$1,$8,$9*
0 Add four rect primitives between the rounded corners*
20,1,$1+$1,$2,$3,$4,$5,0*
20,1,$1+$1,$4,$5,$6,$7,0*
20,1,$1+$1,$6,$7,$8,$9,0*
20,1,$1+$1,$8,$9,$2,$3,0*%
%AMFreePoly0*
4,1,9,3.862500,-0.866500,0.737500,-0.866500,0.737500,-0.450000,-0.737500,-0.450000,-0.737500,0.450000,0.737500,0.450000,0.737500,0.866500,3.862500,0.866500,3.862500,-0.866500,3.862500,-0.866500,$1*%
G04 Aperture macros list end*
%ADD10RoundRect,0.237500X-0.300000X-0.237500X0.300000X-0.237500X0.300000X0.237500X-0.300000X0.237500X0*%
%ADD11RoundRect,0.135000X0.135000X0.185000X-0.135000X0.185000X-0.135000X-0.185000X0.135000X-0.185000X0*%
%ADD12RoundRect,0.155000X-0.155000X0.212500X-0.155000X-0.212500X0.155000X-0.212500X0.155000X0.212500X0*%
%ADD13RoundRect,0.237500X-0.250000X-0.237500X0.250000X-0.237500X0.250000X0.237500X-0.250000X0.237500X0*%
%ADD14RoundRect,0.237500X-0.237500X0.300000X-0.237500X-0.300000X0.237500X-0.300000X0.237500X0.300000X0*%
%ADD15R,0.550000X1.600000*%
%ADD16R,1.600000X0.550000*%
%ADD17R,1.300000X0.900000*%
%ADD18FreePoly0,180.000000*%
%ADD19RoundRect,0.150000X0.150000X-0.825000X0.150000X0.825000X-0.150000X0.825000X-0.150000X-0.825000X0*%
%ADD20RoundRect,0.250000X0.412500X0.650000X-0.412500X0.650000X-0.412500X-0.650000X0.412500X-0.650000X0*%
%ADD21RoundRect,0.237500X0.300000X0.237500X-0.300000X0.237500X-0.300000X-0.237500X0.300000X-0.237500X0*%
%ADD22RoundRect,0.155000X0.155000X-0.212500X0.155000X0.212500X-0.155000X0.212500X-0.155000X-0.212500X0*%
%ADD23RoundRect,0.200000X0.200000X0.275000X-0.200000X0.275000X-0.200000X-0.275000X0.200000X-0.275000X0*%
%ADD24RoundRect,0.160000X-0.197500X-0.160000X0.197500X-0.160000X0.197500X0.160000X-0.197500X0.160000X0*%
%ADD25RoundRect,0.160000X0.197500X0.160000X-0.197500X0.160000X-0.197500X-0.160000X0.197500X-0.160000X0*%
%ADD26RoundRect,0.200000X-0.200000X-0.275000X0.200000X-0.275000X0.200000X0.275000X-0.200000X0.275000X0*%
%ADD27R,1.100000X1.800000*%
%ADD28RoundRect,0.250000X-0.325000X-0.450000X0.325000X-0.450000X0.325000X0.450000X-0.325000X0.450000X0*%
%ADD29RoundRect,0.300000X-0.400000X-0.300000X0.400000X-0.300000X0.400000X0.300000X-0.400000X0.300000X0*%
%ADD30RoundRect,0.150000X-0.587500X-0.150000X0.587500X-0.150000X0.587500X0.150000X-0.587500X0.150000X0*%
G04 APERTURE END LIST*
D10*
%TO.C,C502*%
X143886400Y-107806800D03*
X145611400Y-107806800D03*
%TD*%
D11*
%TO.C,R301*%
X156593000Y-105791000D03*
X155573000Y-105791000D03*
%TD*%
D12*
%TO.C,C13*%
X158928000Y-105303500D03*
X158928000Y-106438500D03*
%TD*%
D11*
%TO.C,R303*%
X156593000Y-104775000D03*
X155573000Y-104775000D03*
%TD*%
D13*
%TO.C,R12*%
X167413300Y-96824800D03*
X169238300Y-96824800D03*
%TD*%
D14*
%TO.C,C11*%
X148234400Y-103733600D03*
X148234400Y-105458600D03*
%TD*%
D15*
%TO.C,U13*%
X157734000Y-102514400D03*
X158534000Y-102514400D03*
X159334000Y-102514400D03*
X160134000Y-102514400D03*
X160934000Y-102514400D03*
X161734000Y-102514400D03*
X162534000Y-102514400D03*
X163334000Y-102514400D03*
D16*
X164784000Y-101064400D03*
X164784000Y-100264400D03*
X164784000Y-99464400D03*
X164784000Y-98664400D03*
X164784000Y-97864400D03*
X164784000Y-97064400D03*
X164784000Y-96264400D03*
X164784000Y-95464400D03*
D15*
X163334000Y-94014400D03*
X162534000Y-94014400D03*
X161734000Y-94014400D03*
X160934000Y-94014400D03*
X160134000Y-94014400D03*
X159334000Y-94014400D03*
X158534000Y-94014400D03*
X157734000Y-94014400D03*
D16*
X156284000Y-95464400D03*
X156284000Y-96264400D03*
X156284000Y-97064400D03*
X156284000Y-97864400D03*
X156284000Y-98664400D03*
X156284000Y-99464400D03*
X156284000Y-100264400D03*
X156284000Y-101064400D03*
%TD*%
D17*
%TO.C,U26*%
X147214071Y-95965365D03*
D18*
X147126571Y-94465365D03*
D17*
X147214071Y-92965365D03*
%TD*%
D19*
%TO.C,U11*%
X149987000Y-107300800D03*
X151257000Y-107300800D03*
X152527000Y-107300800D03*
X153797000Y-107300800D03*
X153797000Y-102350800D03*
X152527000Y-102350800D03*
X151257000Y-102350800D03*
X149987000Y-102350800D03*
%TD*%
D20*
%TO.C,C31*%
X147126571Y-99965365D03*
X144001571Y-99965365D03*
%TD*%
D21*
%TO.C,C30*%
X147064071Y-97965365D03*
X145339071Y-97965365D03*
%TD*%
D22*
%TO.C,C14*%
X164211000Y-105977500D03*
X164211000Y-104842500D03*
%TD*%
D23*
%TO.C,R601*%
X155358600Y-91998800D03*
X153708600Y-91998800D03*
%TD*%
D24*
%TO.C,R13*%
X169797800Y-98958400D03*
X170992800Y-98958400D03*
%TD*%
D21*
%TO.C,C29*%
X143051700Y-91897200D03*
X141326700Y-91897200D03*
%TD*%
D25*
%TO.C,R11*%
X168452800Y-98958400D03*
X167257800Y-98958400D03*
%TD*%
D11*
%TO.C,R302*%
X156593000Y-106807000D03*
X155573000Y-106807000D03*
%TD*%
D21*
%TO.C,C501*%
X145612500Y-102371200D03*
X143887500Y-102371200D03*
%TD*%
D26*
%TO.C,R602*%
X142685000Y-89865200D03*
X144335000Y-89865200D03*
%TD*%
D19*
%TO.C,U12*%
X149682200Y-98995000D03*
X150952200Y-98995000D03*
X152222200Y-98995000D03*
X153492200Y-98995000D03*
X153492200Y-94045000D03*
X152222200Y-94045000D03*
X150952200Y-94045000D03*
X149682200Y-94045000D03*
%TD*%
D27*
%TO.C,SW11*%
X171395000Y-100887600D03*
X171395000Y-107087600D03*
X167695000Y-100887600D03*
X167695000Y-107087600D03*
%TD*%
D21*
%TO.C,C12*%
X151103500Y-91948000D03*
X149378500Y-91948000D03*
%TD*%
D28*
%TO.C,D11*%
X167529400Y-94843600D03*
X169579400Y-94843600D03*
%TD*%
D29*
%TO.C,Y11*%
X160528000Y-106614000D03*
X162728000Y-106614000D03*
X162728000Y-104714000D03*
X160528000Y-104714000D03*
%TD*%
D30*
%TO.C,U501*%
X144115000Y-104174600D03*
X144115000Y-106074600D03*
X145990000Y-105124600D03*
%TD*%
M02*
