%TF.GenerationSoftware,KiCad,Pcbnew,(6.0.4)*%
%TF.CreationDate,2023-01-22T23:07:16+01:00*%
%TF.ProjectId,panelController,70616e65-6c43-46f6-9e74-726f6c6c6572,rev?*%
%TF.SameCoordinates,Original*%
%TF.FileFunction,Copper,L1,Top*%
%TF.FilePolarity,Positive*%
%FSLAX46Y46*%
G04 Gerber Fmt 4.6, Leading zero omitted, Abs format (unit mm)*
G04 Created by KiCad (PCBNEW (6.0.4)) date 2023-01-22 23:07:16*
%MOMM*%
%LPD*%
G01*
G04 APERTURE LIST*
G04 Aperture macros list*
%AMRoundRect*
0 Rectangle with rounded corners*
0 $1 Rounding radius*
0 $2 $3 $4 $5 $6 $7 $8 $9 X,Y pos of 4 corners*
0 Add a 4 corners polygon primitive as box body*
4,1,4,$2,$3,$4,$5,$6,$7,$8,$9,$2,$3,0*
0 Add four circle primitives for the rounded corners*
1,1,$1+$1,$2,$3*
1,1,$1+$1,$4,$5*
1,1,$1+$1,$6,$7*
1,1,$1+$1,$8,$9*
0 Add four rect primitives between the rounded corners*
20,1,$1+$1,$2,$3,$4,$5,0*
20,1,$1+$1,$4,$5,$6,$7,0*
20,1,$1+$1,$6,$7,$8,$9,0*
20,1,$1+$1,$8,$9,$2,$3,0*%
%AMFreePoly0*
4,1,9,3.862500,-0.866500,0.737500,-0.866500,0.737500,-0.450000,-0.737500,-0.450000,-0.737500,0.450000,0.737500,0.450000,0.737500,0.866500,3.862500,0.866500,3.862500,-0.866500,3.862500,-0.866500,$1*%
G04 Aperture macros list end*
%TA.AperFunction,SMDPad,CuDef*%
%ADD10RoundRect,0.237500X-0.300000X-0.237500X0.300000X-0.237500X0.300000X0.237500X-0.300000X0.237500X0*%
%TD*%
%TA.AperFunction,SMDPad,CuDef*%
%ADD11RoundRect,0.135000X0.135000X0.185000X-0.135000X0.185000X-0.135000X-0.185000X0.135000X-0.185000X0*%
%TD*%
%TA.AperFunction,ComponentPad*%
%ADD12C,1.000000*%
%TD*%
%TA.AperFunction,ComponentPad*%
%ADD13R,1.300000X2.000000*%
%TD*%
%TA.AperFunction,SMDPad,CuDef*%
%ADD14RoundRect,0.155000X-0.155000X0.212500X-0.155000X-0.212500X0.155000X-0.212500X0.155000X0.212500X0*%
%TD*%
%TA.AperFunction,SMDPad,CuDef*%
%ADD15RoundRect,0.237500X-0.250000X-0.237500X0.250000X-0.237500X0.250000X0.237500X-0.250000X0.237500X0*%
%TD*%
%TA.AperFunction,SMDPad,CuDef*%
%ADD16RoundRect,0.237500X-0.237500X0.300000X-0.237500X-0.300000X0.237500X-0.300000X0.237500X0.300000X0*%
%TD*%
%TA.AperFunction,SMDPad,CuDef*%
%ADD17R,0.550000X1.600000*%
%TD*%
%TA.AperFunction,SMDPad,CuDef*%
%ADD18R,1.600000X0.550000*%
%TD*%
%TA.AperFunction,SMDPad,CuDef*%
%ADD19R,1.300000X0.900000*%
%TD*%
%TA.AperFunction,SMDPad,CuDef*%
%ADD20FreePoly0,180.000000*%
%TD*%
%TA.AperFunction,SMDPad,CuDef*%
%ADD21RoundRect,0.150000X0.150000X-0.825000X0.150000X0.825000X-0.150000X0.825000X-0.150000X-0.825000X0*%
%TD*%
%TA.AperFunction,SMDPad,CuDef*%
%ADD22RoundRect,0.250000X0.412500X0.650000X-0.412500X0.650000X-0.412500X-0.650000X0.412500X-0.650000X0*%
%TD*%
%TA.AperFunction,ComponentPad*%
%ADD23R,1.000000X1.000000*%
%TD*%
%TA.AperFunction,ComponentPad*%
%ADD24O,1.000000X1.000000*%
%TD*%
%TA.AperFunction,SMDPad,CuDef*%
%ADD25RoundRect,0.237500X0.300000X0.237500X-0.300000X0.237500X-0.300000X-0.237500X0.300000X-0.237500X0*%
%TD*%
%TA.AperFunction,SMDPad,CuDef*%
%ADD26RoundRect,0.155000X0.155000X-0.212500X0.155000X0.212500X-0.155000X0.212500X-0.155000X-0.212500X0*%
%TD*%
%TA.AperFunction,SMDPad,CuDef*%
%ADD27RoundRect,0.200000X0.200000X0.275000X-0.200000X0.275000X-0.200000X-0.275000X0.200000X-0.275000X0*%
%TD*%
%TA.AperFunction,SMDPad,CuDef*%
%ADD28RoundRect,0.160000X-0.197500X-0.160000X0.197500X-0.160000X0.197500X0.160000X-0.197500X0.160000X0*%
%TD*%
%TA.AperFunction,SMDPad,CuDef*%
%ADD29RoundRect,0.160000X0.197500X0.160000X-0.197500X0.160000X-0.197500X-0.160000X0.197500X-0.160000X0*%
%TD*%
%TA.AperFunction,CastellatedPad*%
%ADD30C,1.000000*%
%TD*%
%TA.AperFunction,CastellatedPad*%
%ADD31R,2.000000X1.300000*%
%TD*%
%TA.AperFunction,SMDPad,CuDef*%
%ADD32RoundRect,0.200000X-0.200000X-0.275000X0.200000X-0.275000X0.200000X0.275000X-0.200000X0.275000X0*%
%TD*%
%TA.AperFunction,SMDPad,CuDef*%
%ADD33R,1.100000X1.800000*%
%TD*%
%TA.AperFunction,SMDPad,CuDef*%
%ADD34RoundRect,0.250000X-0.325000X-0.450000X0.325000X-0.450000X0.325000X0.450000X-0.325000X0.450000X0*%
%TD*%
%TA.AperFunction,SMDPad,CuDef*%
%ADD35RoundRect,0.300000X-0.400000X-0.300000X0.400000X-0.300000X0.400000X0.300000X-0.400000X0.300000X0*%
%TD*%
%TA.AperFunction,SMDPad,CuDef*%
%ADD36RoundRect,0.150000X-0.587500X-0.150000X0.587500X-0.150000X0.587500X0.150000X-0.587500X0.150000X0*%
%TD*%
%TA.AperFunction,ViaPad*%
%ADD37C,0.800000*%
%TD*%
%TA.AperFunction,Conductor*%
%ADD38C,0.250000*%
%TD*%
G04 APERTURE END LIST*
D10*
%TO.P,C502,1*%
%TO.N,+3V3*%
X143886400Y-107806800D03*
%TO.P,C502,2*%
%TO.N,GND*%
X145611400Y-107806800D03*
%TD*%
D11*
%TO.P,R301,1*%
%TO.N,+5V*%
X156593000Y-105791000D03*
%TO.P,R301,2*%
%TO.N,Tx*%
X155573000Y-105791000D03*
%TD*%
D12*
%TO.P,J401,1,Pin_1*%
%TO.N,+3V3*%
X146050000Y-110363000D03*
D13*
X146050000Y-110633000D03*
D12*
%TO.P,J401,2,Pin_2*%
%TO.N,GPIO2*%
X148590000Y-110363000D03*
D13*
X148590000Y-110633000D03*
D12*
%TO.P,J401,3,Pin_3*%
%TO.N,GPIO3*%
X151130000Y-110363000D03*
D13*
X151130000Y-110633000D03*
D12*
%TO.P,J401,4,Pin_4*%
%TO.N,GPIO4*%
X153670000Y-110363000D03*
D13*
X153670000Y-110633000D03*
%TO.P,J401,5,Pin_5*%
%TO.N,GPIO5*%
X156210000Y-110633000D03*
D12*
X156210000Y-110363000D03*
D13*
%TO.P,J401,6,Pin_6*%
%TO.N,GPIO6*%
X158750000Y-110633000D03*
D12*
X158750000Y-110363000D03*
%TO.P,J401,7,Pin_7*%
%TO.N,GPIO7*%
X161290000Y-110363000D03*
D13*
X161290000Y-110633000D03*
D12*
%TO.P,J401,8,Pin_8*%
%TO.N,GPIO8*%
X163830000Y-110363000D03*
D13*
X163830000Y-110633000D03*
D12*
%TO.P,J401,9,Pin_9*%
%TO.N,GPIO9*%
X166370000Y-110363000D03*
D13*
X166370000Y-110633000D03*
%TO.P,J401,10,Pin_10*%
%TO.N,GND*%
X168910000Y-110633000D03*
D12*
X168910000Y-110363000D03*
%TD*%
D14*
%TO.P,C13,1*%
%TO.N,GND*%
X158928000Y-105303500D03*
%TO.P,C13,2*%
%TO.N,/atmega328/X1*%
X158928000Y-106438500D03*
%TD*%
D11*
%TO.P,R303,1*%
%TO.N,+5V*%
X156593000Y-104775000D03*
%TO.P,R303,2*%
%TO.N,Rx*%
X155573000Y-104775000D03*
%TD*%
D15*
%TO.P,R12,1*%
%TO.N,+5V*%
X167413300Y-96824800D03*
%TO.P,R12,2*%
%TO.N,Net-(D11-Pad2)*%
X169238300Y-96824800D03*
%TD*%
D16*
%TO.P,C11,1*%
%TO.N,+5V*%
X148234400Y-103733600D03*
%TO.P,C11,2*%
%TO.N,GND*%
X148234400Y-105458600D03*
%TD*%
D17*
%TO.P,U13,1,PD3*%
%TO.N,GPIO3*%
X157734000Y-102514400D03*
%TO.P,U13,2,PD4*%
%TO.N,GPIO4*%
X158534000Y-102514400D03*
%TO.P,U13,3,GND*%
%TO.N,GND*%
X159334000Y-102514400D03*
%TO.P,U13,4,VCC*%
%TO.N,+5V*%
X160134000Y-102514400D03*
%TO.P,U13,5,GND*%
%TO.N,GND*%
X160934000Y-102514400D03*
%TO.P,U13,6,VCC*%
%TO.N,+5V*%
X161734000Y-102514400D03*
%TO.P,U13,7,XTAL1/PB6*%
%TO.N,/atmega328/X1*%
X162534000Y-102514400D03*
%TO.P,U13,8,XTAL2/PB7*%
%TO.N,/atmega328/X2*%
X163334000Y-102514400D03*
D18*
%TO.P,U13,9,PD5*%
%TO.N,GPIO5*%
X164784000Y-101064400D03*
%TO.P,U13,10,PD6*%
%TO.N,GPIO6*%
X164784000Y-100264400D03*
%TO.P,U13,11,PD7*%
%TO.N,GPIO7*%
X164784000Y-99464400D03*
%TO.P,U13,12,PB0*%
%TO.N,GPIO8*%
X164784000Y-98664400D03*
%TO.P,U13,13,PB1*%
%TO.N,GPIO9*%
X164784000Y-97864400D03*
%TO.P,U13,14,PB2*%
%TO.N,GPIO10*%
X164784000Y-97064400D03*
%TO.P,U13,15,PB3*%
%TO.N,GPIO11*%
X164784000Y-96264400D03*
%TO.P,U13,16,PB4*%
%TO.N,GPIO12*%
X164784000Y-95464400D03*
D17*
%TO.P,U13,17,PB5*%
%TO.N,GPIO13*%
X163334000Y-94014400D03*
%TO.P,U13,18,AVCC*%
%TO.N,+5V*%
X162534000Y-94014400D03*
%TO.P,U13,19,ADC6*%
%TO.N,unconnected-(U13-Pad19)*%
X161734000Y-94014400D03*
%TO.P,U13,20,AREF*%
%TO.N,unconnected-(U13-Pad20)*%
X160934000Y-94014400D03*
%TO.P,U13,21,GND*%
%TO.N,GND*%
X160134000Y-94014400D03*
%TO.P,U13,22,ADC7*%
%TO.N,Net-(R11-Pad2)*%
X159334000Y-94014400D03*
%TO.P,U13,23,PC0*%
%TO.N,GPIO_A0*%
X158534000Y-94014400D03*
%TO.P,U13,24,PC1*%
%TO.N,GPIO_A1*%
X157734000Y-94014400D03*
D18*
%TO.P,U13,25,PC2*%
%TO.N,GPIO_A2*%
X156284000Y-95464400D03*
%TO.P,U13,26,PC3*%
%TO.N,GPIO_A3*%
X156284000Y-96264400D03*
%TO.P,U13,27,PC4*%
%TO.N,SDA*%
X156284000Y-97064400D03*
%TO.P,U13,28,PC5*%
%TO.N,SCL*%
X156284000Y-97864400D03*
%TO.P,U13,29,~{RESET}/PC6*%
%TO.N,RESET*%
X156284000Y-98664400D03*
%TO.P,U13,30,PD0*%
%TO.N,Rx*%
X156284000Y-99464400D03*
%TO.P,U13,31,PD1*%
%TO.N,Tx*%
X156284000Y-100264400D03*
%TO.P,U13,32,PD2*%
%TO.N,GPIO2*%
X156284000Y-101064400D03*
%TD*%
D13*
%TO.P,J403,1,Pin_1*%
%TO.N,GPIO10*%
X168910000Y-89773000D03*
D12*
X168910000Y-90043000D03*
%TO.P,J403,2,Pin_2*%
%TO.N,GPIO11*%
X166370000Y-90043000D03*
D13*
X166370000Y-89773000D03*
%TO.P,J403,3,Pin_3*%
%TO.N,GPIO12*%
X163830000Y-89773000D03*
D12*
X163830000Y-90043000D03*
D13*
%TO.P,J403,4,Pin_4*%
%TO.N,GPIO13*%
X161290000Y-89773000D03*
D12*
X161290000Y-90043000D03*
D13*
%TO.P,J403,5,Pin_5*%
%TO.N,GPIO_A0*%
X158750000Y-89773000D03*
D12*
X158750000Y-90043000D03*
%TO.P,J403,6,Pin_6*%
%TO.N,GPIO_A1*%
X156210000Y-90043000D03*
D13*
X156210000Y-89773000D03*
%TO.P,J403,7,Pin_7*%
%TO.N,GPIO_A2*%
X153670000Y-89773000D03*
D12*
X153670000Y-90043000D03*
D13*
%TO.P,J403,8,Pin_8*%
%TO.N,GPIO_A3*%
X151130000Y-89773000D03*
D12*
X151130000Y-90043000D03*
%TO.P,J403,9,Pin_9*%
%TO.N,SDA*%
X148590000Y-90043000D03*
D13*
X148590000Y-89773000D03*
%TO.P,J403,10,Pin_10*%
%TO.N,SCL*%
X146050000Y-89773000D03*
D12*
X146050000Y-90043000D03*
%TD*%
D19*
%TO.P,U26,1,OUT*%
%TO.N,+5V*%
X147214071Y-95965365D03*
D20*
%TO.P,U26,2,GND*%
%TO.N,GND*%
X147126571Y-94465365D03*
D19*
%TO.P,U26,3,IN*%
%TO.N,+12V*%
X147214071Y-92965365D03*
%TD*%
D21*
%TO.P,U11,1,RO*%
%TO.N,Rx*%
X149987000Y-107300800D03*
%TO.P,U11,2,~{RE}*%
%TO.N,GPIO2*%
X151257000Y-107300800D03*
%TO.P,U11,3,DE*%
X152527000Y-107300800D03*
%TO.P,U11,4,DI*%
%TO.N,Tx*%
X153797000Y-107300800D03*
%TO.P,U11,5,GND*%
%TO.N,GND*%
X153797000Y-102350800D03*
%TO.P,U11,6,A*%
%TO.N,A*%
X152527000Y-102350800D03*
%TO.P,U11,7,B*%
%TO.N,B*%
X151257000Y-102350800D03*
%TO.P,U11,8,VCC*%
%TO.N,+5V*%
X149987000Y-102350800D03*
%TD*%
D22*
%TO.P,C31,1*%
%TO.N,+5V*%
X147126571Y-99965365D03*
%TO.P,C31,2*%
%TO.N,GND*%
X144001571Y-99965365D03*
%TD*%
D23*
%TO.P,U14,1*%
%TO.N,GND*%
X173234000Y-90373000D03*
D24*
%TO.P,U14,2*%
%TO.N,RESET*%
X171964000Y-90373000D03*
%TO.P,U14,3*%
%TO.N,GPIO11*%
X173234000Y-91643000D03*
%TO.P,U14,4*%
%TO.N,GPIO13*%
X171964000Y-91643000D03*
%TO.P,U14,5*%
%TO.N,+5V*%
X173234000Y-92913000D03*
%TO.P,U14,6*%
%TO.N,GPIO12*%
X171964000Y-92913000D03*
%TD*%
D25*
%TO.P,C30,1*%
%TO.N,+5V*%
X147064071Y-97965365D03*
%TO.P,C30,2*%
%TO.N,GND*%
X145339071Y-97965365D03*
%TD*%
D26*
%TO.P,C14,1*%
%TO.N,GND*%
X164211000Y-105977500D03*
%TO.P,C14,2*%
%TO.N,/atmega328/X2*%
X164211000Y-104842500D03*
%TD*%
D27*
%TO.P,R601,1*%
%TO.N,+5V*%
X155358600Y-91998800D03*
%TO.P,R601,2*%
%TO.N,SDA*%
X153708600Y-91998800D03*
%TD*%
D28*
%TO.P,R13,1*%
%TO.N,+5V*%
X169797800Y-98958400D03*
%TO.P,R13,2*%
%TO.N,RESET*%
X170992800Y-98958400D03*
%TD*%
D25*
%TO.P,C29,1*%
%TO.N,+12V*%
X143051700Y-91897200D03*
%TO.P,C29,2*%
%TO.N,GND*%
X141326700Y-91897200D03*
%TD*%
D29*
%TO.P,R11,1*%
%TO.N,+5V*%
X168452800Y-98958400D03*
%TO.P,R11,2*%
%TO.N,Net-(R11-Pad2)*%
X167257800Y-98958400D03*
%TD*%
D11*
%TO.P,R302,1*%
%TO.N,+5V*%
X156593000Y-106807000D03*
%TO.P,R302,2*%
%TO.N,GPIO2*%
X155573000Y-106807000D03*
%TD*%
D30*
%TO.P,J12,1,Pin_1*%
%TO.N,GND*%
X173990000Y-107830106D03*
D31*
X174260000Y-107823000D03*
%TO.P,J12,2,Pin_2*%
X174260000Y-105283000D03*
D30*
X173990000Y-105283000D03*
%TO.P,J12,3,Pin_3*%
%TO.N,Rx*%
X173990000Y-102743000D03*
D31*
X174260000Y-102743000D03*
%TO.P,J12,4,Pin_4*%
%TO.N,Tx*%
X174260000Y-100203000D03*
D30*
X173990000Y-100203000D03*
D31*
%TO.P,J12,5,Pin_5*%
%TO.N,RESET*%
X174260000Y-97663000D03*
D30*
X173990000Y-97663000D03*
%TO.P,J12,6,Pin_6*%
%TO.N,+5V*%
X173990000Y-95123000D03*
D31*
X174260000Y-95123000D03*
%TD*%
D25*
%TO.P,C501,1*%
%TO.N,+5V*%
X145612500Y-102371200D03*
%TO.P,C501,2*%
%TO.N,GND*%
X143887500Y-102371200D03*
%TD*%
D30*
%TO.P,J11,1,Pin_1*%
%TO.N,+12V*%
X140995400Y-95115894D03*
D31*
X140725400Y-95123000D03*
D30*
%TO.P,J11,2,Pin_2*%
%TO.N,+5V*%
X140995400Y-97663000D03*
D31*
X140725400Y-97663000D03*
D30*
%TO.P,J11,3,Pin_3*%
%TO.N,A*%
X140995400Y-100203000D03*
D31*
X140725400Y-100203000D03*
%TO.P,J11,4,Pin_4*%
%TO.N,B*%
X140725400Y-102743000D03*
D30*
X140995400Y-102743000D03*
D31*
%TO.P,J11,5,Pin_5*%
%TO.N,GND*%
X140725400Y-105283000D03*
D30*
X140995400Y-105283000D03*
%TO.P,J11,6,Pin_6*%
%TO.N,+3V3*%
X140995400Y-107823000D03*
D31*
X140725400Y-107823000D03*
%TD*%
D32*
%TO.P,R602,1*%
%TO.N,+5V*%
X142685000Y-89865200D03*
%TO.P,R602,2*%
%TO.N,SCL*%
X144335000Y-89865200D03*
%TD*%
D21*
%TO.P,U12,1,A0*%
%TO.N,GND*%
X149682200Y-98995000D03*
%TO.P,U12,2,A1*%
X150952200Y-98995000D03*
%TO.P,U12,3,A2*%
X152222200Y-98995000D03*
%TO.P,U12,4,GND*%
X153492200Y-98995000D03*
%TO.P,U12,5,SDA*%
%TO.N,SDA*%
X153492200Y-94045000D03*
%TO.P,U12,6,SCL*%
%TO.N,SCL*%
X152222200Y-94045000D03*
%TO.P,U12,7,WP*%
%TO.N,GND*%
X150952200Y-94045000D03*
%TO.P,U12,8,VCC*%
%TO.N,+5V*%
X149682200Y-94045000D03*
%TD*%
D33*
%TO.P,SW11,1,A*%
%TO.N,GND*%
X171395000Y-100887600D03*
X171395000Y-107087600D03*
%TO.P,SW11,2,B*%
%TO.N,Net-(R11-Pad2)*%
X167695000Y-100887600D03*
X167695000Y-107087600D03*
%TD*%
D25*
%TO.P,C12,1*%
%TO.N,GND*%
X151103500Y-91948000D03*
%TO.P,C12,2*%
%TO.N,+5V*%
X149378500Y-91948000D03*
%TD*%
D34*
%TO.P,D11,1,K*%
%TO.N,GPIO13*%
X167529400Y-94843600D03*
%TO.P,D11,2,A*%
%TO.N,Net-(D11-Pad2)*%
X169579400Y-94843600D03*
%TD*%
D35*
%TO.P,Y11,1,1*%
%TO.N,/atmega328/X1*%
X160528000Y-106614000D03*
%TO.P,Y11,2,GND*%
%TO.N,GND*%
X162728000Y-106614000D03*
%TO.P,Y11,3,3*%
%TO.N,/atmega328/X2*%
X162728000Y-104714000D03*
%TO.P,Y11,4,GND*%
%TO.N,GND*%
X160528000Y-104714000D03*
%TD*%
D36*
%TO.P,U501,1,GND*%
%TO.N,GND*%
X144115000Y-104174600D03*
%TO.P,U501,2,VO*%
%TO.N,+3V3*%
X144115000Y-106074600D03*
%TO.P,U501,3,VI*%
%TO.N,+5V*%
X145990000Y-105124600D03*
%TD*%
D37*
%TO.N,GND*%
X145465800Y-99822000D03*
X159512000Y-97409000D03*
X163322000Y-96393000D03*
X161925000Y-97028000D03*
X144094200Y-105130600D03*
X151484000Y-95623000D03*
X148564600Y-93573600D03*
X159867600Y-91795600D03*
X158851600Y-108254800D03*
X160734000Y-95623000D03*
X158877000Y-104140000D03*
X151460200Y-100634800D03*
X153797000Y-103886000D03*
X171734000Y-104873000D03*
X142468600Y-103860600D03*
X153060400Y-100660200D03*
X171805600Y-94335600D03*
X157734000Y-95885000D03*
X170234000Y-108873000D03*
X159512000Y-100457000D03*
X171596701Y-102485701D03*
X146913600Y-106248200D03*
X142443200Y-94386400D03*
X147116800Y-109118400D03*
X145542000Y-91948000D03*
X140512800Y-93065600D03*
X151484000Y-97123000D03*
X150114000Y-104902000D03*
X171196000Y-96139000D03*
X146278600Y-103936800D03*
X161671000Y-107696000D03*
X144018000Y-98018600D03*
X174523400Y-92227400D03*
X148640800Y-100330000D03*
X173734000Y-109873000D03*
X140843000Y-89789000D03*
%TO.N,+5V*%
X160984000Y-101114898D03*
X156717905Y-101938902D03*
X166985774Y-97424559D03*
X162484000Y-95623000D03*
X155956000Y-92913200D03*
X149961600Y-95961200D03*
X149098000Y-101568980D03*
%TO.N,GPIO2*%
X155733020Y-102109211D03*
X153924000Y-105537000D03*
%TO.N,A*%
X152527000Y-103835200D03*
%TO.N,B*%
X151307800Y-103784400D03*
%TO.N,GPIO9*%
X166866237Y-102909037D03*
X163322000Y-97917000D03*
%TO.N,GPIO12*%
X167640000Y-92456000D03*
X164784000Y-92749600D03*
%TO.N,GPIO13*%
X163334000Y-92621800D03*
X167462200Y-93573600D03*
%TO.N,Rx*%
X167958100Y-104470200D03*
X162585400Y-99539900D03*
%TO.N,Net-(R11-Pad2)*%
X167728300Y-98093632D03*
X159484000Y-95373000D03*
%TO.N,Tx*%
X163322000Y-100253800D03*
X168284827Y-103525607D03*
%TO.N,SCL*%
X152477605Y-92396128D03*
%TO.N,RESET*%
X158100400Y-98664400D03*
X170561000Y-98044000D03*
X161734000Y-98623000D03*
%TD*%
D38*
%TO.N,GND*%
X159710500Y-104521000D02*
X158928000Y-105303500D01*
X160134000Y-95023000D02*
X160734000Y-95623000D01*
X171395000Y-100887600D02*
X171395000Y-102284000D01*
X160528000Y-104521000D02*
X159710500Y-104521000D01*
X151103500Y-91948000D02*
X151103500Y-93893700D01*
X171395000Y-102284000D02*
X171596701Y-102485701D01*
X151103500Y-93893700D02*
X150952200Y-94045000D01*
X160134000Y-94014400D02*
X160134000Y-95023000D01*
%TO.N,/atmega328/X1*%
X160975000Y-106614000D02*
X160528000Y-106614000D01*
X161671000Y-104187796D02*
X161671000Y-105918000D01*
X162534000Y-102514400D02*
X162534000Y-103324796D01*
X161671000Y-105918000D02*
X160975000Y-106614000D01*
X160528000Y-106421000D02*
X158945500Y-106421000D01*
X162534000Y-103324796D02*
X161671000Y-104187796D01*
%TO.N,/atmega328/X2*%
X163049500Y-104842500D02*
X162728000Y-104521000D01*
X163334000Y-103747000D02*
X163334000Y-102514400D01*
X162728000Y-104353000D02*
X163334000Y-103747000D01*
X164211000Y-104842500D02*
X163049500Y-104842500D01*
X162728000Y-104521000D02*
X162728000Y-104353000D01*
%TO.N,+12V*%
X141570453Y-93557347D02*
X142553947Y-93557347D01*
X144076365Y-92965365D02*
X147214071Y-92965365D01*
X140995400Y-94132400D02*
X141570453Y-93557347D01*
X143145929Y-92965365D02*
X143356235Y-92965365D01*
X142553947Y-93557347D02*
X142896847Y-93214447D01*
X143051700Y-91897200D02*
X143051700Y-92658100D01*
X143356235Y-92962635D02*
X143051700Y-92658100D01*
X143356235Y-92965365D02*
X143356235Y-92962635D01*
X140995400Y-95115894D02*
X140995400Y-94132400D01*
X142896847Y-93214447D02*
X143145929Y-92965365D01*
X143576365Y-92965365D02*
X144076365Y-92965365D01*
X143051700Y-92658100D02*
X143051700Y-93059594D01*
X143356235Y-92965365D02*
X143576365Y-92965365D01*
X143051700Y-93059594D02*
X142896847Y-93214447D01*
%TO.N,+5V*%
X156680500Y-101976307D02*
X156680500Y-104775000D01*
X146354800Y-91135200D02*
X147167600Y-91948000D01*
X149682200Y-94045000D02*
X149682200Y-95681800D01*
X156717905Y-101938902D02*
X156680500Y-101976307D01*
X147761835Y-95965365D02*
X149682200Y-94045000D01*
X147064071Y-97965365D02*
X147064071Y-99902865D01*
X155358600Y-92315800D02*
X155956000Y-92913200D01*
X169797800Y-98958400D02*
X169797800Y-97782586D01*
X170590486Y-96989900D02*
X172123100Y-96989900D01*
X172720000Y-96393000D02*
X173990000Y-95123000D01*
X156680500Y-106807000D02*
X156680500Y-104775000D01*
X147064071Y-97965365D02*
X147064071Y-96115365D01*
X147064071Y-96115365D02*
X147214071Y-95965365D01*
X160217111Y-101389889D02*
X160134000Y-101473000D01*
X162534000Y-95573000D02*
X162484000Y-95623000D01*
X173990000Y-95123000D02*
X173990000Y-93669000D01*
X160967111Y-101131787D02*
X160984000Y-101114898D01*
X142693035Y-95965365D02*
X147214071Y-95965365D01*
X172123100Y-96989900D02*
X172720000Y-96393000D01*
X161734000Y-101464400D02*
X161659489Y-101389889D01*
X161659489Y-101389889D02*
X160967111Y-101389889D01*
X149987000Y-102350800D02*
X149617200Y-102350800D01*
X149682200Y-94045000D02*
X149682200Y-92251700D01*
X173990000Y-93669000D02*
X173234000Y-92913000D01*
X160967111Y-101389889D02*
X160967111Y-101131787D01*
X147066000Y-101574600D02*
X147066000Y-100025936D01*
X167413300Y-96824800D02*
X167413300Y-96997033D01*
X145612500Y-101479436D02*
X147126571Y-99965365D01*
X146843400Y-105124600D02*
X148234400Y-103733600D01*
X147066000Y-100025936D02*
X147126571Y-99965365D01*
X147214071Y-95965365D02*
X147761835Y-95965365D01*
X149682200Y-92251700D02*
X149378500Y-91948000D01*
X168452800Y-98958400D02*
X169797800Y-98958400D01*
X143955000Y-91135200D02*
X146354800Y-91135200D01*
X169797800Y-97782586D02*
X170590486Y-96989900D01*
X149682200Y-95681800D02*
X149961600Y-95961200D01*
X147064071Y-99902865D02*
X147126571Y-99965365D01*
X155358600Y-91998800D02*
X155358600Y-92315800D01*
X147167600Y-91948000D02*
X149378500Y-91948000D01*
X167935800Y-96824800D02*
X168452800Y-97341800D01*
X167413300Y-96824800D02*
X167935800Y-96824800D01*
X162534000Y-94014400D02*
X162534000Y-95573000D01*
X149098000Y-101568980D02*
X149205180Y-101568980D01*
X148234400Y-102743000D02*
X147066000Y-101574600D01*
X145990000Y-105124600D02*
X146843400Y-105124600D01*
X161734000Y-102514400D02*
X161734000Y-101464400D01*
X148234400Y-103733600D02*
X148234400Y-102743000D01*
X149617200Y-102350800D02*
X148234400Y-103733600D01*
X149205180Y-101568980D02*
X149987000Y-102350800D01*
X140995400Y-97663000D02*
X142693035Y-95965365D01*
X145612500Y-102371200D02*
X145612500Y-101479436D01*
X160134000Y-101473000D02*
X160134000Y-102514400D01*
X167413300Y-96997033D02*
X166985774Y-97424559D01*
X168452800Y-97341800D02*
X168452800Y-98958400D01*
X142685000Y-89865200D02*
X143955000Y-91135200D01*
X160967111Y-101389889D02*
X160217111Y-101389889D01*
%TO.N,+3V3*%
X144115000Y-106074600D02*
X144115000Y-107578200D01*
X143870200Y-107823000D02*
X140995400Y-107823000D01*
X143886400Y-107806800D02*
X143870200Y-107823000D01*
X143886400Y-108199400D02*
X146050000Y-110363000D01*
X143886400Y-107806800D02*
X143886400Y-108199400D01*
X144115000Y-107578200D02*
X143886400Y-107806800D01*
%TO.N,GPIO_A0*%
X158534000Y-90259000D02*
X158750000Y-90043000D01*
X158534000Y-94014400D02*
X158534000Y-90259000D01*
%TO.N,GPIO2*%
X152908000Y-105537000D02*
X153924000Y-105537000D01*
X153050320Y-108600320D02*
X152527000Y-108077000D01*
X155733020Y-101615380D02*
X156284000Y-101064400D01*
X152527000Y-107300800D02*
X152527000Y-105918000D01*
X151257000Y-107696000D02*
X148590000Y-110363000D01*
X151257000Y-107300800D02*
X151257000Y-107696000D01*
X155733020Y-102109211D02*
X155733020Y-101615380D01*
X155485500Y-107258372D02*
X154143552Y-108600320D01*
X155485500Y-106807000D02*
X155485500Y-107258372D01*
X152527000Y-108077000D02*
X152527000Y-107300800D01*
X152527000Y-105918000D02*
X152908000Y-105537000D01*
X152527000Y-107300800D02*
X151257000Y-107300800D01*
X154143552Y-108600320D02*
X153050320Y-108600320D01*
%TO.N,GPIO3*%
X157734000Y-102514400D02*
X157353000Y-102895400D01*
X152443160Y-109049840D02*
X151130000Y-110363000D01*
X157353000Y-102895400D02*
X157353000Y-107671510D01*
X157353000Y-107671510D02*
X157223470Y-107801040D01*
X155723960Y-107801040D02*
X154475160Y-109049840D01*
X157223470Y-107801040D02*
X155723960Y-107801040D01*
X154475160Y-109049840D02*
X152443160Y-109049840D01*
%TO.N,GPIO4*%
X153797718Y-110363000D02*
X155910158Y-108250560D01*
X157802520Y-104071480D02*
X158534000Y-103340000D01*
X157802520Y-107857708D02*
X157802520Y-104071480D01*
X155910158Y-108250560D02*
X157409668Y-108250560D01*
X157409668Y-108250560D02*
X157802520Y-107857708D01*
X158534000Y-103340000D02*
X158534000Y-102514400D01*
X153670000Y-110363000D02*
X153797718Y-110363000D01*
%TO.N,GPIO5*%
X164986000Y-106680000D02*
X164078621Y-107587379D01*
X164793166Y-102616000D02*
X164793166Y-104133363D01*
X162373084Y-108643480D02*
X159833803Y-108643480D01*
X157416859Y-109156141D02*
X156210000Y-110363000D01*
X164986000Y-104326197D02*
X164986000Y-106680000D01*
X159833803Y-108643480D02*
X159321141Y-109156141D01*
X159321141Y-109156141D02*
X157416859Y-109156141D01*
X164784000Y-102606834D02*
X164793166Y-102616000D01*
X163838604Y-108320960D02*
X162695604Y-108320960D01*
X164784000Y-101064400D02*
X164784000Y-102606834D01*
X162695604Y-108320960D02*
X162373084Y-108643480D01*
X164078621Y-107587379D02*
X164078621Y-108080943D01*
X164793166Y-104133363D02*
X164986000Y-104326197D01*
X164078621Y-108080943D02*
X163838604Y-108320960D01*
%TO.N,GPIO6*%
X165909240Y-101569986D02*
X165242686Y-102236540D01*
X164528141Y-108267141D02*
X164024801Y-108770480D01*
X164784000Y-100264400D02*
X165834000Y-100264400D01*
X165435520Y-103967520D02*
X165435520Y-106866198D01*
X164528141Y-107773577D02*
X164528141Y-108267141D01*
X162881802Y-108770480D02*
X162559282Y-109093000D01*
X165242686Y-102236540D02*
X165242686Y-103774686D01*
X160020000Y-109093000D02*
X158750000Y-110363000D01*
X165834000Y-100264400D02*
X165909240Y-100339640D01*
X162559282Y-109093000D02*
X160020000Y-109093000D01*
X164024801Y-108770480D02*
X162881802Y-108770480D01*
X165909240Y-100339640D02*
X165909240Y-101569986D01*
X165242686Y-103774686D02*
X165435520Y-103967520D01*
X165435520Y-106866198D02*
X164528141Y-107773577D01*
%TO.N,GPIO7*%
X166358760Y-99810760D02*
X166012400Y-99464400D01*
X165692206Y-103439166D02*
X165692206Y-102422737D01*
X165692206Y-102422737D02*
X166370969Y-101743974D01*
X165885040Y-107128803D02*
X165885040Y-103632000D01*
X166012400Y-99464400D02*
X164784000Y-99464400D01*
X165885040Y-103632000D02*
X165692206Y-103439166D01*
X165031480Y-107982362D02*
X165885040Y-107128803D01*
X166370969Y-100835003D02*
X166358760Y-100822794D01*
X166358760Y-100822794D02*
X166358760Y-99810760D01*
X163068000Y-109220000D02*
X164211000Y-109220000D01*
X166370969Y-101743974D02*
X166370969Y-100835003D01*
X165031480Y-108399520D02*
X165031480Y-107982362D01*
X161290000Y-110363000D02*
X161925000Y-110363000D01*
X164211000Y-109220000D02*
X165031480Y-108399520D01*
X161925000Y-110363000D02*
X163068000Y-109220000D01*
%TO.N,GPIO8*%
X166334560Y-103401974D02*
X166334560Y-107315000D01*
X165481000Y-108168560D02*
X165481000Y-108712000D01*
X166808280Y-99551594D02*
X166808280Y-100636597D01*
X164784000Y-98664400D02*
X166053180Y-98664400D01*
X166141726Y-103209140D02*
X166334560Y-103401974D01*
X166053180Y-98664400D02*
X166575780Y-99187000D01*
X166808280Y-100636597D02*
X166820489Y-100648806D01*
X166575780Y-99187000D02*
X166575780Y-99319094D01*
X166334560Y-107315000D02*
X165481000Y-108168560D01*
X166820489Y-101930171D02*
X166141726Y-102608934D01*
X165481000Y-108712000D02*
X163830000Y-110363000D01*
X166141726Y-102608934D02*
X166141726Y-103209140D01*
X166820489Y-100648806D02*
X166820489Y-101930171D01*
X166575780Y-99319094D02*
X166808280Y-99551594D01*
%TO.N,A*%
X152527000Y-103835200D02*
X152527000Y-102350800D01*
%TO.N,B*%
X151307800Y-102401600D02*
X151257000Y-102350800D01*
X151307800Y-103784400D02*
X151307800Y-102401600D01*
%TO.N,GPIO9*%
X163374600Y-97864400D02*
X163322000Y-97917000D01*
X166866237Y-102909037D02*
X166784080Y-102991194D01*
X164784000Y-97864400D02*
X163374600Y-97864400D01*
X166784080Y-102991194D02*
X166784080Y-107535920D01*
X166370000Y-107950000D02*
X166370000Y-110363000D01*
X166784080Y-107535920D02*
X166370000Y-107950000D01*
%TO.N,GPIO10*%
X168910000Y-90043000D02*
X166438520Y-92514480D01*
X166438520Y-96459880D02*
X165834000Y-97064400D01*
X166438520Y-92514480D02*
X166438520Y-96459880D01*
X165834000Y-97064400D02*
X164784000Y-97064400D01*
%TO.N,GPIO11*%
X165989000Y-95983422D02*
X165708022Y-96264400D01*
X165989000Y-90424000D02*
X165989000Y-95983422D01*
X165708022Y-96264400D02*
X164784000Y-96264400D01*
X166370000Y-90043000D02*
X165989000Y-90424000D01*
%TO.N,GPIO12*%
X164784000Y-92749600D02*
X163830000Y-91795600D01*
X168097000Y-92913000D02*
X171964000Y-92913000D01*
X164784000Y-95464400D02*
X164784000Y-92749600D01*
X167640000Y-92456000D02*
X168097000Y-92913000D01*
X163830000Y-91795600D02*
X163830000Y-90043000D01*
%TO.N,GPIO13*%
X167529400Y-94843600D02*
X167529400Y-93640800D01*
X167529400Y-93640800D02*
X167462200Y-93573600D01*
X161290000Y-90043000D02*
X163334000Y-92087000D01*
X163334000Y-94014400D02*
X163334000Y-92621800D01*
X163334000Y-92087000D02*
X163334000Y-92621800D01*
%TO.N,GPIO_A1*%
X157734000Y-94014400D02*
X157734000Y-91567000D01*
X157734000Y-91567000D02*
X156210000Y-90043000D01*
%TO.N,GPIO_A2*%
X155207111Y-91097511D02*
X155956000Y-91097511D01*
X156845000Y-94107000D02*
X156284000Y-94668000D01*
X153670000Y-89560400D02*
X153670000Y-88875185D01*
X156284000Y-94668000D02*
X156284000Y-95464400D01*
X156845000Y-91986511D02*
X156845000Y-94107000D01*
X155956000Y-91097511D02*
X156845000Y-91986511D01*
X155207111Y-91097511D02*
X153670000Y-89560400D01*
%TO.N,GPIO_A3*%
X152783978Y-91186000D02*
X154279600Y-91186000D01*
X152695489Y-90465489D02*
X152695489Y-91097511D01*
X154279600Y-91186000D02*
X154533600Y-91440000D01*
X155159489Y-94776511D02*
X155159489Y-96189889D01*
X155159489Y-96189889D02*
X155234000Y-96264400D01*
X155234000Y-96264400D02*
X156284000Y-96264400D01*
X155194000Y-93421200D02*
X155194000Y-94742000D01*
X152273000Y-90043000D02*
X152695489Y-90465489D01*
X154533600Y-92760800D02*
X155194000Y-93421200D01*
X154533600Y-91440000D02*
X154533600Y-92760800D01*
X155194000Y-94742000D02*
X155159489Y-94776511D01*
X151130000Y-90043000D02*
X152273000Y-90043000D01*
X152695489Y-91097511D02*
X152783978Y-91186000D01*
%TO.N,Rx*%
X168542300Y-104470200D02*
X169108780Y-103903720D01*
X155485500Y-104775000D02*
X154559000Y-103848500D01*
X173614000Y-102743000D02*
X173990000Y-102743000D01*
X169108780Y-103903720D02*
X172453280Y-103903720D01*
X154559000Y-103848500D02*
X154559000Y-99822000D01*
X154940000Y-99441000D02*
X154963400Y-99464400D01*
X154963400Y-99464400D02*
X156284000Y-99464400D01*
X161200306Y-99113920D02*
X158675494Y-99113920D01*
X149987000Y-106924728D02*
X149987000Y-107300800D01*
X152136728Y-104775000D02*
X149987000Y-106924728D01*
X167958100Y-104470200D02*
X168542300Y-104470200D01*
X172453280Y-103903720D02*
X173614000Y-102743000D01*
X162585400Y-99539900D02*
X161626286Y-99539900D01*
X154559000Y-99822000D02*
X154940000Y-99441000D01*
X155485500Y-104775000D02*
X152136728Y-104775000D01*
X161626286Y-99539900D02*
X161200306Y-99113920D01*
X158675494Y-99113920D02*
X158325014Y-99464400D01*
X158325014Y-99464400D02*
X156284000Y-99464400D01*
%TO.N,Net-(R11-Pad2)*%
X159484000Y-95373000D02*
X159484000Y-94164400D01*
X167695000Y-100887600D02*
X167695000Y-103104888D01*
X167695000Y-105736000D02*
X167695000Y-107087600D01*
X159484000Y-94164400D02*
X159334000Y-94014400D01*
X167257800Y-98958400D02*
X167257800Y-98564132D01*
X167695000Y-103104888D02*
X167233600Y-103566288D01*
X167257800Y-100450400D02*
X167695000Y-100887600D01*
X167257800Y-98958400D02*
X167257800Y-100450400D01*
X167233600Y-105274600D02*
X167695000Y-105736000D01*
X167257800Y-98564132D02*
X167728300Y-98093632D01*
X167233600Y-103566288D02*
X167233600Y-105274600D01*
%TO.N,Tx*%
X172935489Y-102171511D02*
X171652800Y-103454200D01*
X156284000Y-100264400D02*
X155234000Y-100264400D01*
X161014108Y-99563440D02*
X158861692Y-99563440D01*
X173990000Y-100203000D02*
X172935489Y-101257511D01*
X163311389Y-100264411D02*
X161715079Y-100264411D01*
X153975700Y-107300800D02*
X155485500Y-105791000D01*
X155234000Y-100264400D02*
X155008520Y-100489880D01*
X155008520Y-100489880D02*
X155008520Y-103365767D01*
X172935489Y-101257511D02*
X172935489Y-102171511D01*
X163322000Y-100253800D02*
X163311389Y-100264411D01*
X153797000Y-107300800D02*
X153975700Y-107300800D01*
X158861692Y-99563440D02*
X158160732Y-100264400D01*
X158160732Y-100264400D02*
X156284000Y-100264400D01*
X171652800Y-103454200D02*
X168356234Y-103454200D01*
X156083000Y-104440247D02*
X156083000Y-105193500D01*
X168356234Y-103454200D02*
X168284827Y-103525607D01*
X161715079Y-100264411D02*
X161014108Y-99563440D01*
X156083000Y-105193500D02*
X155485500Y-105791000D01*
X155008520Y-103365767D02*
X156083000Y-104440247D01*
%TO.N,SDA*%
X153339800Y-91694000D02*
X153492200Y-91846400D01*
X148590000Y-90043000D02*
X149644511Y-91097511D01*
X153492200Y-91846400D02*
X153492200Y-94045000D01*
X156284000Y-97064400D02*
X154976400Y-97064400D01*
X154976400Y-97064400D02*
X153492200Y-95580200D01*
X152656260Y-91694000D02*
X153339800Y-91694000D01*
X153492200Y-95580200D02*
X153492200Y-94045000D01*
X149644511Y-91097511D02*
X152059771Y-91097511D01*
X152059771Y-91097511D02*
X152656260Y-91694000D01*
%TO.N,SCL*%
X144335000Y-89865200D02*
X145872200Y-89865200D01*
X152477605Y-92396128D02*
X152477605Y-93789595D01*
X152222200Y-94945918D02*
X155140682Y-97864400D01*
X152477605Y-93789595D02*
X152222200Y-94045000D01*
X145872200Y-89865200D02*
X146050000Y-90043000D01*
X152222200Y-94045000D02*
X152222200Y-94945918D01*
X155140682Y-97864400D02*
X156284000Y-97864400D01*
%TO.N,RESET*%
X158100400Y-98664400D02*
X161692600Y-98664400D01*
X156284000Y-98664400D02*
X158100400Y-98664400D01*
X161692600Y-98664400D02*
X161734000Y-98623000D01*
X170992800Y-98958400D02*
X170992800Y-98475800D01*
X173990000Y-97663000D02*
X172288200Y-97663000D01*
X172288200Y-97663000D02*
X170992800Y-98958400D01*
X170992800Y-98475800D02*
X170561000Y-98044000D01*
%TO.N,Net-(D11-Pad2)*%
X169238300Y-96824800D02*
X169238300Y-95184700D01*
X169238300Y-95184700D02*
X169579400Y-94843600D01*
%TD*%
%TA.AperFunction,Conductor*%
%TO.N,GND*%
G36*
X149376347Y-103232513D02*
G01*
X149433183Y-103275060D01*
X149447371Y-103302422D01*
X149447502Y-103302355D01*
X149505674Y-103416523D01*
X149596277Y-103507126D01*
X149710445Y-103565298D01*
X149805166Y-103580300D01*
X150168834Y-103580300D01*
X150263555Y-103565298D01*
X150377723Y-103507126D01*
X150468326Y-103416523D01*
X150509733Y-103335258D01*
X150558482Y-103283643D01*
X150627397Y-103266577D01*
X150694598Y-103289478D01*
X150734270Y-103335264D01*
X150737312Y-103341235D01*
X150750412Y-103411012D01*
X150732619Y-103458817D01*
X150734707Y-103459936D01*
X150731120Y-103466626D01*
X150726750Y-103472844D01*
X150693551Y-103557994D01*
X150681149Y-103589806D01*
X150669206Y-103620437D01*
X150668214Y-103627970D01*
X150668214Y-103627971D01*
X150653286Y-103741365D01*
X150648529Y-103777496D01*
X150654367Y-103830376D01*
X150664374Y-103921009D01*
X150665913Y-103934953D01*
X150668523Y-103942084D01*
X150668523Y-103942086D01*
X150715514Y-104070495D01*
X150720353Y-104083719D01*
X150724589Y-104090022D01*
X150724589Y-104090023D01*
X150795736Y-104195900D01*
X150808708Y-104215205D01*
X150814327Y-104220318D01*
X150814328Y-104220319D01*
X150920260Y-104316709D01*
X150925876Y-104321819D01*
X151065093Y-104397408D01*
X151218322Y-104437607D01*
X151302277Y-104438926D01*
X151369119Y-104439976D01*
X151369122Y-104439976D01*
X151376716Y-104440095D01*
X151531132Y-104404729D01*
X151622057Y-104358999D01*
X151665872Y-104336963D01*
X151665875Y-104336961D01*
X151672655Y-104333551D01*
X151678426Y-104328622D01*
X151678429Y-104328620D01*
X151787336Y-104235604D01*
X151787336Y-104235603D01*
X151793114Y-104230669D01*
X151797550Y-104224496D01*
X151802685Y-104218911D01*
X151804035Y-104220153D01*
X151852380Y-104182469D01*
X151923083Y-104176023D01*
X151986048Y-104208827D01*
X152003289Y-104229368D01*
X152017771Y-104250920D01*
X152039163Y-104318618D01*
X152020558Y-104387133D01*
X151973015Y-104432086D01*
X151968537Y-104434502D01*
X151966962Y-104435352D01*
X151961679Y-104438043D01*
X151934355Y-104451164D01*
X151915496Y-104460220D01*
X151911220Y-104463814D01*
X151909280Y-104465754D01*
X151907369Y-104467507D01*
X151907279Y-104467556D01*
X151907167Y-104467433D01*
X151906632Y-104467905D01*
X151900914Y-104470990D01*
X151893847Y-104478635D01*
X151864312Y-104510586D01*
X151860882Y-104514152D01*
X150330686Y-106044348D01*
X150268374Y-106078374D01*
X150221883Y-106079702D01*
X150168834Y-106071300D01*
X149805166Y-106071300D01*
X149710445Y-106086302D01*
X149596277Y-106144474D01*
X149505674Y-106235077D01*
X149447502Y-106349245D01*
X149432500Y-106443966D01*
X149432500Y-108157634D01*
X149447502Y-108252355D01*
X149505674Y-108366523D01*
X149596277Y-108457126D01*
X149647929Y-108483444D01*
X149682164Y-108500888D01*
X149733779Y-108549637D01*
X149750845Y-108618552D01*
X149727944Y-108685753D01*
X149714056Y-108702250D01*
X149074711Y-109341595D01*
X149012399Y-109375621D01*
X148985616Y-109378500D01*
X148033974Y-109378501D01*
X147914934Y-109378501D01*
X147879182Y-109385612D01*
X147852874Y-109390844D01*
X147852872Y-109390845D01*
X147840699Y-109393266D01*
X147830379Y-109400161D01*
X147830378Y-109400162D01*
X147786711Y-109429340D01*
X147756516Y-109449516D01*
X147700266Y-109533699D01*
X147685500Y-109607933D01*
X147685501Y-110492452D01*
X147685501Y-111265265D01*
X147665499Y-111333386D01*
X147611843Y-111379879D01*
X147559501Y-111391265D01*
X147080500Y-111391265D01*
X147012379Y-111371263D01*
X146965886Y-111317607D01*
X146954500Y-111265265D01*
X146954499Y-109614123D01*
X146954499Y-109607934D01*
X146944099Y-109555643D01*
X146942156Y-109545874D01*
X146942155Y-109545872D01*
X146939734Y-109533699D01*
X146883484Y-109449516D01*
X146799301Y-109393266D01*
X146725067Y-109378500D01*
X146606061Y-109378500D01*
X145654385Y-109378501D01*
X145586264Y-109358499D01*
X145565290Y-109341596D01*
X144849142Y-108625448D01*
X144815116Y-108563136D01*
X144816643Y-108541791D01*
X144810427Y-108543147D01*
X144743894Y-108518373D01*
X144730252Y-108506558D01*
X144647296Y-108423602D01*
X144613270Y-108361290D01*
X144618335Y-108290475D01*
X144620754Y-108285186D01*
X144622393Y-108282999D01*
X144631185Y-108259546D01*
X144673827Y-108202782D01*
X144740389Y-108178083D01*
X144809738Y-108193291D01*
X144859856Y-108243577D01*
X144867149Y-108259548D01*
X144872698Y-108274351D01*
X144881231Y-108289936D01*
X144920174Y-108341898D01*
X144945021Y-108408405D01*
X144943840Y-108413848D01*
X144998622Y-108425765D01*
X145013802Y-108435526D01*
X145065764Y-108474469D01*
X145081347Y-108483001D01*
X145197373Y-108526497D01*
X145212629Y-108530125D01*
X145261476Y-108535431D01*
X145268293Y-108535800D01*
X145466285Y-108535800D01*
X145481524Y-108531325D01*
X145482729Y-108529935D01*
X145484400Y-108522252D01*
X145484400Y-108517684D01*
X145738400Y-108517684D01*
X145742875Y-108532923D01*
X145744265Y-108534128D01*
X145751948Y-108535799D01*
X145954505Y-108535799D01*
X145961326Y-108535429D01*
X146010173Y-108530124D01*
X146025424Y-108526498D01*
X146141453Y-108483001D01*
X146157039Y-108474467D01*
X146255337Y-108400798D01*
X146267898Y-108388237D01*
X146341567Y-108289939D01*
X146350101Y-108274353D01*
X146393597Y-108158327D01*
X146397225Y-108143071D01*
X146402531Y-108094224D01*
X146402900Y-108087407D01*
X146402900Y-107951915D01*
X146398425Y-107936676D01*
X146397035Y-107935471D01*
X146389352Y-107933800D01*
X145756515Y-107933800D01*
X145741276Y-107938275D01*
X145740071Y-107939665D01*
X145738400Y-107947348D01*
X145738400Y-108517684D01*
X145484400Y-108517684D01*
X145484400Y-107661685D01*
X145738400Y-107661685D01*
X145742875Y-107676924D01*
X145744265Y-107678129D01*
X145751948Y-107679800D01*
X146384784Y-107679800D01*
X146400023Y-107675325D01*
X146401228Y-107673935D01*
X146402899Y-107666252D01*
X146402899Y-107526195D01*
X146402529Y-107519374D01*
X146397224Y-107470527D01*
X146393598Y-107455276D01*
X146350101Y-107339247D01*
X146341567Y-107323661D01*
X146267898Y-107225363D01*
X146255337Y-107212802D01*
X146157039Y-107139133D01*
X146141453Y-107130599D01*
X146025427Y-107087103D01*
X146010171Y-107083475D01*
X145961324Y-107078169D01*
X145954507Y-107077800D01*
X145756515Y-107077800D01*
X145741276Y-107082275D01*
X145740071Y-107083665D01*
X145738400Y-107091348D01*
X145738400Y-107661685D01*
X145484400Y-107661685D01*
X145484400Y-107095916D01*
X145479925Y-107080677D01*
X145478535Y-107079472D01*
X145470852Y-107077801D01*
X145268295Y-107077801D01*
X145261474Y-107078171D01*
X145212627Y-107083476D01*
X145197376Y-107087102D01*
X145081347Y-107130599D01*
X145065761Y-107139133D01*
X144967463Y-107212802D01*
X144954902Y-107225363D01*
X144881233Y-107323661D01*
X144872698Y-107339249D01*
X144867149Y-107354052D01*
X144824508Y-107410817D01*
X144757946Y-107435517D01*
X144688597Y-107420310D01*
X144638479Y-107370024D01*
X144631185Y-107354054D01*
X144625543Y-107339003D01*
X144625542Y-107339002D01*
X144622393Y-107330601D01*
X144537874Y-107217826D01*
X144531240Y-107212854D01*
X144497379Y-107150844D01*
X144494500Y-107124061D01*
X144494500Y-106755100D01*
X144514502Y-106686979D01*
X144568158Y-106640486D01*
X144620500Y-106629100D01*
X144734334Y-106629100D01*
X144829055Y-106614098D01*
X144943223Y-106555926D01*
X145033826Y-106465323D01*
X145091998Y-106351155D01*
X145107000Y-106256434D01*
X145107000Y-105892766D01*
X145092578Y-105801705D01*
X147505401Y-105801705D01*
X147505771Y-105808526D01*
X147511076Y-105857373D01*
X147514702Y-105872624D01*
X147558199Y-105988653D01*
X147566733Y-106004239D01*
X147640402Y-106102537D01*
X147652963Y-106115098D01*
X147751261Y-106188767D01*
X147766847Y-106197301D01*
X147882873Y-106240797D01*
X147898129Y-106244425D01*
X147946976Y-106249731D01*
X147953793Y-106250100D01*
X148089285Y-106250100D01*
X148104524Y-106245625D01*
X148105729Y-106244235D01*
X148107400Y-106236552D01*
X148107400Y-106231984D01*
X148361400Y-106231984D01*
X148365875Y-106247223D01*
X148367265Y-106248428D01*
X148374948Y-106250099D01*
X148515005Y-106250099D01*
X148521826Y-106249729D01*
X148570673Y-106244424D01*
X148585924Y-106240798D01*
X148701953Y-106197301D01*
X148717539Y-106188767D01*
X148815837Y-106115098D01*
X148828398Y-106102537D01*
X148902067Y-106004239D01*
X148910601Y-105988653D01*
X148954097Y-105872627D01*
X148957725Y-105857371D01*
X148963031Y-105808524D01*
X148963400Y-105801707D01*
X148963400Y-105603715D01*
X148958925Y-105588476D01*
X148957535Y-105587271D01*
X148949852Y-105585600D01*
X148379515Y-105585600D01*
X148364276Y-105590075D01*
X148363071Y-105591465D01*
X148361400Y-105599148D01*
X148361400Y-106231984D01*
X148107400Y-106231984D01*
X148107400Y-105603715D01*
X148102925Y-105588476D01*
X148101535Y-105587271D01*
X148093852Y-105585600D01*
X147523516Y-105585600D01*
X147508277Y-105590075D01*
X147507072Y-105591465D01*
X147505401Y-105599148D01*
X147505401Y-105801705D01*
X145092578Y-105801705D01*
X145091998Y-105798045D01*
X145094935Y-105797580D01*
X145093367Y-105742531D01*
X145130035Y-105681736D01*
X145193750Y-105650417D01*
X145257294Y-105657713D01*
X145257678Y-105656532D01*
X145263512Y-105658427D01*
X145264283Y-105658516D01*
X145265437Y-105659053D01*
X145267111Y-105659597D01*
X145275945Y-105664098D01*
X145370666Y-105679100D01*
X146609334Y-105679100D01*
X146704055Y-105664098D01*
X146818223Y-105605926D01*
X146900733Y-105523416D01*
X146947098Y-105494501D01*
X146950741Y-105494070D01*
X146958993Y-105490107D01*
X146968026Y-105488604D01*
X146977195Y-105483657D01*
X146977197Y-105483656D01*
X147013132Y-105464266D01*
X147018425Y-105461569D01*
X147057482Y-105442815D01*
X147057486Y-105442812D01*
X147064632Y-105439381D01*
X147068908Y-105435786D01*
X147070831Y-105433863D01*
X147072763Y-105432091D01*
X147072842Y-105432048D01*
X147072955Y-105432172D01*
X147073495Y-105431696D01*
X147079214Y-105428610D01*
X147092155Y-105414611D01*
X147115816Y-105389014D01*
X147119246Y-105385448D01*
X147290305Y-105214389D01*
X147352617Y-105180363D01*
X147423432Y-105185428D01*
X147480268Y-105227975D01*
X147505079Y-105294495D01*
X147505400Y-105303484D01*
X147505400Y-105313485D01*
X147509875Y-105328724D01*
X147511265Y-105329929D01*
X147518948Y-105331600D01*
X148945284Y-105331600D01*
X148960523Y-105327125D01*
X148961728Y-105325735D01*
X148963399Y-105318052D01*
X148963399Y-105115495D01*
X148963029Y-105108674D01*
X148957724Y-105059827D01*
X148954098Y-105044576D01*
X148910601Y-104928547D01*
X148902067Y-104912961D01*
X148828398Y-104814663D01*
X148815837Y-104802102D01*
X148717539Y-104728433D01*
X148701951Y-104719898D01*
X148687148Y-104714349D01*
X148630383Y-104671708D01*
X148605683Y-104605146D01*
X148620890Y-104535797D01*
X148671176Y-104485679D01*
X148687146Y-104478385D01*
X148702197Y-104472743D01*
X148702198Y-104472742D01*
X148710599Y-104469593D01*
X148823374Y-104385074D01*
X148907893Y-104272299D01*
X148919262Y-104241974D01*
X148954590Y-104147735D01*
X148957364Y-104140336D01*
X148963900Y-104080170D01*
X148963900Y-103592984D01*
X148983902Y-103524863D01*
X149000805Y-103503889D01*
X149243220Y-103261474D01*
X149305532Y-103227448D01*
X149376347Y-103232513D01*
G37*
%TD.AperFunction*%
%TA.AperFunction,Conductor*%
G36*
X174980192Y-103667501D02*
G01*
X175026685Y-103721157D01*
X175038071Y-103773499D01*
X175038071Y-104253000D01*
X175018069Y-104321121D01*
X174964413Y-104367614D01*
X174912071Y-104379000D01*
X174405115Y-104379000D01*
X174389876Y-104383475D01*
X174388671Y-104384865D01*
X174387000Y-104392548D01*
X174387000Y-106168884D01*
X174391475Y-106184123D01*
X174392865Y-106185328D01*
X174400548Y-106186999D01*
X174912071Y-106186999D01*
X174980192Y-106207001D01*
X175026685Y-106260657D01*
X175038071Y-106312999D01*
X175038071Y-106793000D01*
X175018069Y-106861121D01*
X174964413Y-106907614D01*
X174912071Y-106919000D01*
X174405115Y-106919000D01*
X174389876Y-106923475D01*
X174388671Y-106924865D01*
X174387000Y-106932548D01*
X174387000Y-108708884D01*
X174391475Y-108724123D01*
X174392865Y-108725328D01*
X174400548Y-108726999D01*
X174912071Y-108726999D01*
X174980192Y-108747001D01*
X175026685Y-108800657D01*
X175038071Y-108852999D01*
X175038071Y-111265265D01*
X175018069Y-111333386D01*
X174964413Y-111379879D01*
X174912071Y-111391265D01*
X169940000Y-111391265D01*
X169871879Y-111371263D01*
X169825386Y-111317607D01*
X169814000Y-111265265D01*
X169814000Y-110778115D01*
X169809525Y-110762876D01*
X169808135Y-110761671D01*
X169800452Y-110760000D01*
X168024116Y-110760000D01*
X168008877Y-110764475D01*
X168007672Y-110765865D01*
X168006001Y-110773548D01*
X168006001Y-111265265D01*
X167985999Y-111333386D01*
X167932343Y-111379879D01*
X167880001Y-111391265D01*
X167400500Y-111391265D01*
X167332379Y-111371263D01*
X167285886Y-111317607D01*
X167274500Y-111265265D01*
X167274500Y-110487885D01*
X168006000Y-110487885D01*
X168010475Y-110503124D01*
X168011865Y-110504329D01*
X168019548Y-110506000D01*
X168764885Y-110506000D01*
X168780124Y-110501525D01*
X168781329Y-110500135D01*
X168783000Y-110492452D01*
X168783000Y-110487885D01*
X169037000Y-110487885D01*
X169041475Y-110503124D01*
X169042865Y-110504329D01*
X169050548Y-110506000D01*
X169795884Y-110506000D01*
X169811123Y-110501525D01*
X169812328Y-110500135D01*
X169813999Y-110492452D01*
X169813999Y-109614172D01*
X169812791Y-109601912D01*
X169801685Y-109546069D01*
X169792367Y-109523573D01*
X169750017Y-109460192D01*
X169732808Y-109442983D01*
X169669425Y-109400632D01*
X169646934Y-109391316D01*
X169591085Y-109380207D01*
X169578830Y-109379000D01*
X169055115Y-109379000D01*
X169039876Y-109383475D01*
X169038671Y-109384865D01*
X169037000Y-109392548D01*
X169037000Y-110487885D01*
X168783000Y-110487885D01*
X168783000Y-109397116D01*
X168778525Y-109381877D01*
X168777135Y-109380672D01*
X168769452Y-109379001D01*
X168241172Y-109379001D01*
X168228912Y-109380209D01*
X168173069Y-109391315D01*
X168150573Y-109400633D01*
X168087192Y-109442983D01*
X168069983Y-109460192D01*
X168027632Y-109523575D01*
X168018316Y-109546066D01*
X168007207Y-109601915D01*
X168006000Y-109614170D01*
X168006000Y-110487885D01*
X167274500Y-110487885D01*
X167274499Y-109614123D01*
X167274499Y-109607934D01*
X167264099Y-109555643D01*
X167262156Y-109545874D01*
X167262155Y-109545872D01*
X167259734Y-109533699D01*
X167203484Y-109449516D01*
X167119301Y-109393266D01*
X167045067Y-109378500D01*
X166875500Y-109378500D01*
X166807379Y-109358498D01*
X166760886Y-109304842D01*
X166749500Y-109252500D01*
X166749500Y-108491828D01*
X173006001Y-108491828D01*
X173007209Y-108504088D01*
X173018315Y-108559931D01*
X173027633Y-108582427D01*
X173069983Y-108645808D01*
X173087192Y-108663017D01*
X173150575Y-108705368D01*
X173173066Y-108714684D01*
X173228915Y-108725793D01*
X173241170Y-108727000D01*
X174114885Y-108727000D01*
X174130124Y-108722525D01*
X174131329Y-108721135D01*
X174133000Y-108713452D01*
X174133000Y-107968115D01*
X174128525Y-107952876D01*
X174127135Y-107951671D01*
X174119452Y-107950000D01*
X173024116Y-107950000D01*
X173008877Y-107954475D01*
X173007672Y-107955865D01*
X173006001Y-107963548D01*
X173006001Y-108491828D01*
X166749500Y-108491828D01*
X166749500Y-108259835D01*
X166769502Y-108191714D01*
X166823158Y-108145221D01*
X166893432Y-108135117D01*
X166956830Y-108164071D01*
X166961516Y-108171084D01*
X167045699Y-108227334D01*
X167119933Y-108242100D01*
X167694907Y-108242100D01*
X168270066Y-108242099D01*
X168312581Y-108233643D01*
X168332126Y-108229756D01*
X168332128Y-108229755D01*
X168344301Y-108227334D01*
X168354621Y-108220439D01*
X168354622Y-108220438D01*
X168418168Y-108177977D01*
X168428484Y-108171084D01*
X168484734Y-108086901D01*
X168487155Y-108074727D01*
X168491027Y-108065381D01*
X168535576Y-108010101D01*
X168607436Y-107987600D01*
X170483117Y-107987600D01*
X170551238Y-108007602D01*
X170599527Y-108065384D01*
X170612633Y-108097027D01*
X170654983Y-108160408D01*
X170672192Y-108177617D01*
X170735575Y-108219968D01*
X170758066Y-108229284D01*
X170813915Y-108240393D01*
X170826170Y-108241600D01*
X171249885Y-108241600D01*
X171265124Y-108237125D01*
X171266329Y-108235735D01*
X171268000Y-108228052D01*
X171268000Y-108223484D01*
X171522000Y-108223484D01*
X171526475Y-108238723D01*
X171527865Y-108239928D01*
X171535548Y-108241599D01*
X171963828Y-108241599D01*
X171976088Y-108240391D01*
X172031931Y-108229285D01*
X172054427Y-108219967D01*
X172117808Y-108177617D01*
X172135017Y-108160408D01*
X172177368Y-108097025D01*
X172186684Y-108074534D01*
X172197793Y-108018685D01*
X172199000Y-108006430D01*
X172199000Y-107677885D01*
X173006000Y-107677885D01*
X173010475Y-107693124D01*
X173011865Y-107694329D01*
X173019548Y-107696000D01*
X174114885Y-107696000D01*
X174130124Y-107691525D01*
X174131329Y-107690135D01*
X174133000Y-107682452D01*
X174133000Y-106937116D01*
X174128525Y-106921877D01*
X174127135Y-106920672D01*
X174119452Y-106919001D01*
X173241172Y-106919001D01*
X173228912Y-106920209D01*
X173173069Y-106931315D01*
X173150573Y-106940633D01*
X173087192Y-106982983D01*
X173069983Y-107000192D01*
X173027632Y-107063575D01*
X173018316Y-107086066D01*
X173007207Y-107141915D01*
X173006000Y-107154170D01*
X173006000Y-107677885D01*
X172199000Y-107677885D01*
X172199000Y-107232715D01*
X172194525Y-107217476D01*
X172193135Y-107216271D01*
X172185452Y-107214600D01*
X171540115Y-107214600D01*
X171524876Y-107219075D01*
X171523671Y-107220465D01*
X171522000Y-107228148D01*
X171522000Y-108223484D01*
X171268000Y-108223484D01*
X171268000Y-106942485D01*
X171522000Y-106942485D01*
X171526475Y-106957724D01*
X171527865Y-106958929D01*
X171535548Y-106960600D01*
X172180884Y-106960600D01*
X172196123Y-106956125D01*
X172197328Y-106954735D01*
X172198999Y-106947052D01*
X172198999Y-106168772D01*
X172197791Y-106156512D01*
X172186685Y-106100669D01*
X172177367Y-106078173D01*
X172135017Y-106014792D01*
X172117808Y-105997583D01*
X172054425Y-105955232D01*
X172046207Y-105951828D01*
X173006001Y-105951828D01*
X173007209Y-105964088D01*
X173018315Y-106019931D01*
X173027633Y-106042427D01*
X173069983Y-106105808D01*
X173087192Y-106123017D01*
X173150575Y-106165368D01*
X173173066Y-106174684D01*
X173228915Y-106185793D01*
X173241170Y-106187000D01*
X174114885Y-106187000D01*
X174130124Y-106182525D01*
X174131329Y-106181135D01*
X174133000Y-106173452D01*
X174133000Y-105428115D01*
X174128525Y-105412876D01*
X174127135Y-105411671D01*
X174119452Y-105410000D01*
X173024116Y-105410000D01*
X173008877Y-105414475D01*
X173007672Y-105415865D01*
X173006001Y-105423548D01*
X173006001Y-105951828D01*
X172046207Y-105951828D01*
X172031934Y-105945916D01*
X171976085Y-105934807D01*
X171963830Y-105933600D01*
X171540115Y-105933600D01*
X171524876Y-105938075D01*
X171523671Y-105939465D01*
X171522000Y-105947148D01*
X171522000Y-106942485D01*
X171268000Y-106942485D01*
X171268000Y-105951716D01*
X171263525Y-105936477D01*
X171262135Y-105935272D01*
X171254452Y-105933601D01*
X170971000Y-105933601D01*
X170902879Y-105913599D01*
X170856386Y-105859943D01*
X170845000Y-105807601D01*
X170845000Y-105137885D01*
X173006000Y-105137885D01*
X173010475Y-105153124D01*
X173011865Y-105154329D01*
X173019548Y-105156000D01*
X174114885Y-105156000D01*
X174130124Y-105151525D01*
X174131329Y-105150135D01*
X174133000Y-105142452D01*
X174133000Y-104397116D01*
X174128525Y-104381877D01*
X174127135Y-104380672D01*
X174119452Y-104379001D01*
X173241172Y-104379001D01*
X173228912Y-104380209D01*
X173173069Y-104391315D01*
X173150573Y-104400633D01*
X173087192Y-104442983D01*
X173069983Y-104460192D01*
X173027632Y-104523575D01*
X173018316Y-104546066D01*
X173007207Y-104601915D01*
X173006000Y-104614170D01*
X173006000Y-105137885D01*
X170845000Y-105137885D01*
X170845000Y-104987600D01*
X168868240Y-104987600D01*
X168800119Y-104967598D01*
X168753626Y-104913942D01*
X168743522Y-104843668D01*
X168773016Y-104779088D01*
X168778140Y-104774234D01*
X168778114Y-104774210D01*
X168814716Y-104734614D01*
X168818146Y-104731048D01*
X169229069Y-104320125D01*
X169291381Y-104286099D01*
X169318164Y-104283220D01*
X172399360Y-104283220D01*
X172423308Y-104285769D01*
X172424973Y-104285848D01*
X172435156Y-104288040D01*
X172445497Y-104286816D01*
X172468503Y-104284093D01*
X172474434Y-104283743D01*
X172474426Y-104283648D01*
X172479604Y-104283220D01*
X172484804Y-104283220D01*
X172489933Y-104282366D01*
X172489936Y-104282366D01*
X172503845Y-104280051D01*
X172509723Y-104279214D01*
X172550281Y-104274414D01*
X172550282Y-104274414D01*
X172560621Y-104273190D01*
X172568873Y-104269227D01*
X172577906Y-104267724D01*
X172587075Y-104262777D01*
X172587077Y-104262776D01*
X172623012Y-104243386D01*
X172628305Y-104240689D01*
X172667362Y-104221935D01*
X172667366Y-104221932D01*
X172674512Y-104218501D01*
X172678788Y-104214906D01*
X172680711Y-104212983D01*
X172682643Y-104211211D01*
X172682722Y-104211168D01*
X172682835Y-104211292D01*
X172683375Y-104210816D01*
X172689094Y-104207730D01*
X172700030Y-104195900D01*
X172725696Y-104168134D01*
X172729126Y-104164568D01*
X173209289Y-103684405D01*
X173271601Y-103650379D01*
X173298384Y-103647500D01*
X173771016Y-103647500D01*
X174912071Y-103647499D01*
X174980192Y-103667501D01*
G37*
%TD.AperFunction*%
%TA.AperFunction,Conductor*%
G36*
X164280121Y-105870502D02*
G01*
X164326614Y-105924158D01*
X164338000Y-105976500D01*
X164338000Y-106580885D01*
X164342513Y-106596256D01*
X164380754Y-106655759D01*
X164380754Y-106726755D01*
X164348953Y-106780353D01*
X163848405Y-107280901D01*
X163827657Y-107297658D01*
X163819681Y-107302808D01*
X163818683Y-107301263D01*
X163766092Y-107326845D01*
X163695593Y-107318454D01*
X163640822Y-107273281D01*
X163619168Y-107205667D01*
X163627979Y-107156218D01*
X163668085Y-107054919D01*
X163672039Y-107039351D01*
X163681544Y-106960802D01*
X163682000Y-106953247D01*
X163682000Y-106759115D01*
X163677525Y-106743876D01*
X163676135Y-106742671D01*
X163668452Y-106741000D01*
X162873115Y-106741000D01*
X162857876Y-106745475D01*
X162856671Y-106746865D01*
X162855000Y-106754548D01*
X162855000Y-107449885D01*
X162859475Y-107465124D01*
X162860865Y-107466329D01*
X162868548Y-107468000D01*
X163167247Y-107468000D01*
X163174802Y-107467544D01*
X163253351Y-107458039D01*
X163268916Y-107454086D01*
X163394534Y-107404351D01*
X163409357Y-107395998D01*
X163516581Y-107314611D01*
X163516903Y-107314289D01*
X163517268Y-107314090D01*
X163523420Y-107309420D01*
X163524123Y-107310346D01*
X163579215Y-107280263D01*
X163650030Y-107285328D01*
X163706866Y-107327875D01*
X163731677Y-107394395D01*
X163726716Y-107439482D01*
X163718410Y-107467255D01*
X163716585Y-107472871D01*
X163699603Y-107521230D01*
X163699121Y-107526795D01*
X163699121Y-107529503D01*
X163699007Y-107532137D01*
X163698978Y-107532235D01*
X163698814Y-107532228D01*
X163698770Y-107532932D01*
X163696908Y-107539157D01*
X163697746Y-107560477D01*
X163699024Y-107593014D01*
X163699121Y-107597961D01*
X163699121Y-107815460D01*
X163679119Y-107883581D01*
X163625463Y-107930074D01*
X163573121Y-107941460D01*
X162749524Y-107941460D01*
X162725576Y-107938911D01*
X162723911Y-107938832D01*
X162713728Y-107936640D01*
X162694541Y-107938911D01*
X162680381Y-107940587D01*
X162674450Y-107940937D01*
X162674458Y-107941032D01*
X162669280Y-107941460D01*
X162664080Y-107941460D01*
X162658951Y-107942314D01*
X162658948Y-107942314D01*
X162645039Y-107944629D01*
X162639161Y-107945466D01*
X162598603Y-107950266D01*
X162598602Y-107950266D01*
X162588263Y-107951490D01*
X162580011Y-107955453D01*
X162570978Y-107956956D01*
X162525831Y-107981316D01*
X162520567Y-107983997D01*
X162474372Y-108006180D01*
X162470096Y-108009774D01*
X162468156Y-108011714D01*
X162466245Y-108013467D01*
X162466155Y-108013516D01*
X162466043Y-108013393D01*
X162465508Y-108013865D01*
X162459790Y-108016950D01*
X162452723Y-108024595D01*
X162423188Y-108056546D01*
X162419758Y-108060112D01*
X162252795Y-108227075D01*
X162190483Y-108261101D01*
X162163700Y-108263980D01*
X159887723Y-108263980D01*
X159863775Y-108261431D01*
X159862110Y-108261352D01*
X159851927Y-108259160D01*
X159841586Y-108260384D01*
X159818580Y-108263107D01*
X159812650Y-108263457D01*
X159812658Y-108263552D01*
X159807480Y-108263980D01*
X159802279Y-108263980D01*
X159797148Y-108264834D01*
X159783246Y-108267148D01*
X159777368Y-108267985D01*
X159736802Y-108272786D01*
X159736800Y-108272786D01*
X159726463Y-108274010D01*
X159718211Y-108277972D01*
X159709177Y-108279476D01*
X159689341Y-108290179D01*
X159664061Y-108303819D01*
X159658772Y-108306514D01*
X159612572Y-108328699D01*
X159608296Y-108332293D01*
X159606356Y-108334233D01*
X159604444Y-108335987D01*
X159604355Y-108336035D01*
X159604243Y-108335912D01*
X159603707Y-108336385D01*
X159597989Y-108339470D01*
X159590922Y-108347115D01*
X159561400Y-108379052D01*
X159557970Y-108382619D01*
X159200851Y-108739737D01*
X159138539Y-108773762D01*
X159111756Y-108776641D01*
X157724471Y-108776641D01*
X157656350Y-108756639D01*
X157609857Y-108702983D01*
X157599753Y-108632709D01*
X157629247Y-108568129D01*
X157635376Y-108561546D01*
X157635566Y-108561356D01*
X157639763Y-108557656D01*
X157645482Y-108554570D01*
X157682085Y-108514973D01*
X157685514Y-108511408D01*
X158032736Y-108164186D01*
X158051484Y-108149044D01*
X158052709Y-108147929D01*
X158061460Y-108142279D01*
X158067907Y-108134101D01*
X158067909Y-108134099D01*
X158082249Y-108115908D01*
X158086195Y-108111467D01*
X158086122Y-108111405D01*
X158089481Y-108107441D01*
X158093158Y-108103764D01*
X158104412Y-108088016D01*
X158107918Y-108083346D01*
X158139676Y-108043061D01*
X158142708Y-108034427D01*
X158148034Y-108026974D01*
X158162723Y-107977858D01*
X158164556Y-107972216D01*
X158178910Y-107931341D01*
X158178910Y-107931340D01*
X158181538Y-107923857D01*
X158182020Y-107918292D01*
X158182020Y-107915584D01*
X158182134Y-107912950D01*
X158182163Y-107912852D01*
X158182327Y-107912859D01*
X158182371Y-107912155D01*
X158184233Y-107905930D01*
X158182117Y-107852073D01*
X158182020Y-107847126D01*
X158182020Y-106917966D01*
X158202022Y-106849845D01*
X158255678Y-106803352D01*
X158325952Y-106793248D01*
X158390532Y-106822742D01*
X158420286Y-106860763D01*
X158433074Y-106885861D01*
X158433078Y-106885867D01*
X158437578Y-106894698D01*
X158529302Y-106986422D01*
X158644880Y-107045312D01*
X158654669Y-107046862D01*
X158654671Y-107046863D01*
X158682921Y-107051337D01*
X158740774Y-107060500D01*
X159115226Y-107060500D01*
X159173079Y-107051337D01*
X159201329Y-107046863D01*
X159201331Y-107046862D01*
X159211120Y-107045312D01*
X159326698Y-106986422D01*
X159366948Y-106946172D01*
X159429260Y-106912146D01*
X159500075Y-106917211D01*
X159556911Y-106959758D01*
X159581131Y-107020131D01*
X159584444Y-107047510D01*
X159587422Y-107055033D01*
X159587423Y-107055035D01*
X159600119Y-107087102D01*
X159640370Y-107188765D01*
X159732223Y-107309777D01*
X159853235Y-107401630D01*
X159994490Y-107457556D01*
X160084923Y-107468500D01*
X160527707Y-107468500D01*
X160971076Y-107468499D01*
X160974833Y-107468044D01*
X160974839Y-107468044D01*
X161053477Y-107458528D01*
X161061510Y-107457556D01*
X161069033Y-107454578D01*
X161069035Y-107454577D01*
X161160168Y-107418495D01*
X161202765Y-107401630D01*
X161323777Y-107309777D01*
X161415630Y-107188765D01*
X161471556Y-107047510D01*
X161482500Y-106957077D01*
X161482500Y-106953247D01*
X161774000Y-106953247D01*
X161774456Y-106960802D01*
X161783961Y-107039351D01*
X161787914Y-107054916D01*
X161837649Y-107180534D01*
X161846002Y-107195357D01*
X161927389Y-107302581D01*
X161939419Y-107314611D01*
X162046643Y-107395998D01*
X162061466Y-107404351D01*
X162187084Y-107454086D01*
X162202649Y-107458039D01*
X162281198Y-107467544D01*
X162288753Y-107468000D01*
X162582885Y-107468000D01*
X162598124Y-107463525D01*
X162599329Y-107462135D01*
X162601000Y-107454452D01*
X162601000Y-106759115D01*
X162596525Y-106743876D01*
X162595135Y-106742671D01*
X162587452Y-106741000D01*
X161792115Y-106741000D01*
X161776876Y-106745475D01*
X161775671Y-106746865D01*
X161774000Y-106754548D01*
X161774000Y-106953247D01*
X161482500Y-106953247D01*
X161482500Y-106695384D01*
X161502502Y-106627263D01*
X161519405Y-106606289D01*
X161622176Y-106503518D01*
X161684488Y-106469492D01*
X161755303Y-106474557D01*
X161769748Y-106483128D01*
X161787548Y-106487000D01*
X163663886Y-106487000D01*
X163677731Y-106482935D01*
X163748728Y-106482935D01*
X163802323Y-106514736D01*
X163805588Y-106518001D01*
X163821432Y-106529512D01*
X163919203Y-106579330D01*
X163937830Y-106585382D01*
X164018920Y-106598225D01*
X164028766Y-106599000D01*
X164065885Y-106599000D01*
X164081124Y-106594525D01*
X164082329Y-106593135D01*
X164084000Y-106585452D01*
X164084000Y-105976500D01*
X164104002Y-105908379D01*
X164157658Y-105861886D01*
X164210000Y-105850500D01*
X164212000Y-105850500D01*
X164280121Y-105870502D01*
G37*
%TD.AperFunction*%
%TA.AperFunction,Conductor*%
G36*
X146255279Y-96364867D02*
G01*
X146301772Y-96418523D01*
X146310734Y-96446274D01*
X146324337Y-96514666D01*
X146331232Y-96524985D01*
X146331233Y-96524987D01*
X146353477Y-96558277D01*
X146380587Y-96598849D01*
X146464770Y-96655099D01*
X146539004Y-96669865D01*
X146558571Y-96669865D01*
X146626692Y-96689867D01*
X146673185Y-96743523D01*
X146684571Y-96795865D01*
X146684571Y-97144863D01*
X146664569Y-97212984D01*
X146610913Y-97259477D01*
X146602801Y-97262845D01*
X146533776Y-97288721D01*
X146533773Y-97288722D01*
X146525372Y-97291872D01*
X146412597Y-97376391D01*
X146328078Y-97489166D01*
X146324929Y-97497567D01*
X146324928Y-97497568D01*
X146319286Y-97512619D01*
X146276644Y-97569383D01*
X146210082Y-97594082D01*
X146140733Y-97578874D01*
X146090615Y-97528588D01*
X146083322Y-97512617D01*
X146077773Y-97497814D01*
X146069238Y-97482226D01*
X145995569Y-97383928D01*
X145983008Y-97371367D01*
X145884710Y-97297698D01*
X145869124Y-97289164D01*
X145753098Y-97245668D01*
X145737842Y-97242040D01*
X145688995Y-97236734D01*
X145682178Y-97236365D01*
X145484186Y-97236365D01*
X145468947Y-97240840D01*
X145467742Y-97242230D01*
X145466071Y-97249913D01*
X145466071Y-98676249D01*
X145470546Y-98691488D01*
X145471936Y-98692693D01*
X145479619Y-98694364D01*
X145682176Y-98694364D01*
X145688997Y-98693994D01*
X145737844Y-98688689D01*
X145753095Y-98685063D01*
X145869124Y-98641566D01*
X145884710Y-98633032D01*
X145983008Y-98559363D01*
X145995569Y-98546802D01*
X146069238Y-98448504D01*
X146077773Y-98432916D01*
X146083322Y-98418113D01*
X146125963Y-98361348D01*
X146192525Y-98336648D01*
X146261874Y-98351855D01*
X146311992Y-98402141D01*
X146319285Y-98418109D01*
X146328078Y-98441564D01*
X146412597Y-98554339D01*
X146419777Y-98559720D01*
X146525372Y-98638858D01*
X146523350Y-98641556D01*
X146561939Y-98680239D01*
X146576946Y-98749631D01*
X146552054Y-98816121D01*
X146495508Y-98858472D01*
X146469307Y-98868294D01*
X146462128Y-98873674D01*
X146462125Y-98873676D01*
X146379919Y-98935286D01*
X146353667Y-98954961D01*
X146338358Y-98975388D01*
X146272382Y-99063419D01*
X146272380Y-99063422D01*
X146267000Y-99070601D01*
X146244504Y-99130609D01*
X146229543Y-99170520D01*
X146216273Y-99205917D01*
X146215420Y-99213767D01*
X146215420Y-99213768D01*
X146209940Y-99264212D01*
X146209571Y-99267609D01*
X146209571Y-100293481D01*
X146189569Y-100361602D01*
X146172666Y-100382576D01*
X145382284Y-101172958D01*
X145363536Y-101188100D01*
X145362311Y-101189215D01*
X145353560Y-101194865D01*
X145347113Y-101203043D01*
X145347111Y-101203045D01*
X145332771Y-101221236D01*
X145328825Y-101225677D01*
X145328898Y-101225739D01*
X145325539Y-101229703D01*
X145321862Y-101233380D01*
X145310608Y-101249128D01*
X145307102Y-101253798D01*
X145275344Y-101294083D01*
X145272312Y-101302717D01*
X145266986Y-101310170D01*
X145252535Y-101358492D01*
X145252299Y-101359280D01*
X145250464Y-101364928D01*
X145236386Y-101405017D01*
X145233482Y-101413287D01*
X145233000Y-101418852D01*
X145233000Y-101421560D01*
X145232886Y-101424194D01*
X145232857Y-101424292D01*
X145232693Y-101424285D01*
X145232649Y-101424989D01*
X145230787Y-101431214D01*
X145232494Y-101474658D01*
X145232903Y-101485071D01*
X145233000Y-101490018D01*
X145233000Y-101550698D01*
X145212998Y-101618819D01*
X145159342Y-101665312D01*
X145151230Y-101668680D01*
X145082205Y-101694556D01*
X145082202Y-101694557D01*
X145073801Y-101697707D01*
X144961026Y-101782226D01*
X144876507Y-101895001D01*
X144873358Y-101903402D01*
X144873357Y-101903403D01*
X144867715Y-101918454D01*
X144825073Y-101975218D01*
X144758511Y-101999917D01*
X144689162Y-101984709D01*
X144639044Y-101934423D01*
X144631751Y-101918452D01*
X144626202Y-101903649D01*
X144617667Y-101888061D01*
X144543998Y-101789763D01*
X144531437Y-101777202D01*
X144433139Y-101703533D01*
X144417553Y-101694999D01*
X144301527Y-101651503D01*
X144286271Y-101647875D01*
X144237424Y-101642569D01*
X144230607Y-101642200D01*
X144032615Y-101642200D01*
X144017376Y-101646675D01*
X144016171Y-101648065D01*
X144014500Y-101655748D01*
X144014500Y-103082084D01*
X144018975Y-103097323D01*
X144020365Y-103098528D01*
X144028048Y-103100199D01*
X144230605Y-103100199D01*
X144237426Y-103099829D01*
X144286273Y-103094524D01*
X144301524Y-103090898D01*
X144417553Y-103047401D01*
X144433139Y-103038867D01*
X144531437Y-102965198D01*
X144543998Y-102952637D01*
X144617667Y-102854339D01*
X144626202Y-102838751D01*
X144631751Y-102823948D01*
X144674392Y-102767183D01*
X144740954Y-102742483D01*
X144810303Y-102757690D01*
X144860421Y-102807976D01*
X144867714Y-102823944D01*
X144876507Y-102847399D01*
X144961026Y-102960174D01*
X145073801Y-103044693D01*
X145082202Y-103047843D01*
X145082205Y-103047844D01*
X145146164Y-103071821D01*
X145205764Y-103094164D01*
X145265930Y-103100700D01*
X145959070Y-103100700D01*
X146019236Y-103094164D01*
X146078836Y-103071821D01*
X146142795Y-103047844D01*
X146142798Y-103047843D01*
X146151199Y-103044693D01*
X146263974Y-102960174D01*
X146348493Y-102847399D01*
X146351735Y-102838753D01*
X146392041Y-102731235D01*
X146397964Y-102715436D01*
X146404500Y-102655270D01*
X146404500Y-102087130D01*
X146397964Y-102026964D01*
X146357802Y-101919832D01*
X146351644Y-101903405D01*
X146351643Y-101903402D01*
X146348493Y-101895001D01*
X146263974Y-101782226D01*
X146152987Y-101699047D01*
X146152985Y-101699045D01*
X146151199Y-101697707D01*
X146151392Y-101697449D01*
X146105236Y-101651188D01*
X146090223Y-101581797D01*
X146115109Y-101515305D01*
X146126797Y-101501833D01*
X146471405Y-101157225D01*
X146533717Y-101123199D01*
X146604532Y-101128264D01*
X146661368Y-101170811D01*
X146686179Y-101237331D01*
X146686500Y-101246320D01*
X146686500Y-101520680D01*
X146683951Y-101544628D01*
X146683872Y-101546293D01*
X146681680Y-101556476D01*
X146682904Y-101566817D01*
X146685627Y-101589823D01*
X146685977Y-101595754D01*
X146686072Y-101595746D01*
X146686500Y-101600924D01*
X146686500Y-101606124D01*
X146687354Y-101611253D01*
X146687354Y-101611256D01*
X146689669Y-101625165D01*
X146690506Y-101631043D01*
X146694961Y-101668680D01*
X146696530Y-101681941D01*
X146700493Y-101690193D01*
X146701996Y-101699226D01*
X146706943Y-101708395D01*
X146706944Y-101708397D01*
X146726334Y-101744332D01*
X146729031Y-101749625D01*
X146747785Y-101788682D01*
X146747788Y-101788686D01*
X146751219Y-101795832D01*
X146754814Y-101800108D01*
X146756737Y-101802031D01*
X146758509Y-101803963D01*
X146758552Y-101804042D01*
X146758428Y-101804155D01*
X146758904Y-101804695D01*
X146761990Y-101810414D01*
X146769635Y-101817481D01*
X146801586Y-101847016D01*
X146805152Y-101850446D01*
X147766393Y-102811687D01*
X147800419Y-102873999D01*
X147795354Y-102944814D01*
X147752863Y-103001607D01*
X147645426Y-103082126D01*
X147560907Y-103194901D01*
X147557757Y-103203302D01*
X147557756Y-103203305D01*
X147546807Y-103232513D01*
X147511436Y-103326864D01*
X147504900Y-103387030D01*
X147504900Y-103874216D01*
X147484898Y-103942337D01*
X147467995Y-103963311D01*
X146862955Y-104568351D01*
X146800643Y-104602377D01*
X146729828Y-104597312D01*
X146716657Y-104591523D01*
X146712889Y-104589603D01*
X146712888Y-104589603D01*
X146704055Y-104585102D01*
X146609334Y-104570100D01*
X145370666Y-104570100D01*
X145275945Y-104585102D01*
X145267111Y-104589603D01*
X145257678Y-104592668D01*
X145256821Y-104590031D01*
X145202011Y-104600323D01*
X145136227Y-104573622D01*
X145095321Y-104515594D01*
X145092561Y-104451164D01*
X145091516Y-104450999D01*
X145092333Y-104445843D01*
X145092282Y-104444662D01*
X145092815Y-104442797D01*
X145105725Y-104361285D01*
X145106500Y-104351442D01*
X145106500Y-104319715D01*
X145102025Y-104304476D01*
X145100635Y-104303271D01*
X145092952Y-104301600D01*
X144260115Y-104301600D01*
X144244876Y-104306075D01*
X144243671Y-104307465D01*
X144242000Y-104315148D01*
X144242000Y-104710484D01*
X144246475Y-104725723D01*
X144247865Y-104726928D01*
X144255548Y-104728599D01*
X144729340Y-104728599D01*
X144739187Y-104727824D01*
X144819107Y-104715167D01*
X144847166Y-104706050D01*
X144848049Y-104708767D01*
X144902570Y-104698529D01*
X144968354Y-104725230D01*
X145009260Y-104783258D01*
X145012029Y-104847891D01*
X145013002Y-104848045D01*
X144998000Y-104942766D01*
X144998000Y-105306434D01*
X145009609Y-105379733D01*
X145013002Y-105401155D01*
X145010065Y-105401620D01*
X145011633Y-105456669D01*
X144974965Y-105517464D01*
X144911250Y-105548783D01*
X144847706Y-105541487D01*
X144847322Y-105542668D01*
X144841488Y-105540773D01*
X144840717Y-105540684D01*
X144839563Y-105540147D01*
X144837889Y-105539603D01*
X144829055Y-105535102D01*
X144734334Y-105520100D01*
X143495666Y-105520100D01*
X143400945Y-105535102D01*
X143286777Y-105593274D01*
X143196174Y-105683877D01*
X143138002Y-105798045D01*
X143123000Y-105892766D01*
X143123000Y-106256434D01*
X143138002Y-106351155D01*
X143196174Y-106465323D01*
X143286777Y-106555926D01*
X143400945Y-106614098D01*
X143495666Y-106629100D01*
X143609500Y-106629100D01*
X143677621Y-106649102D01*
X143724114Y-106702758D01*
X143735500Y-106755100D01*
X143735500Y-106951300D01*
X143715498Y-107019421D01*
X143661842Y-107065914D01*
X143609500Y-107077300D01*
X143539830Y-107077300D01*
X143479664Y-107083836D01*
X143459626Y-107091348D01*
X143356105Y-107130156D01*
X143356102Y-107130157D01*
X143347701Y-107133307D01*
X143234926Y-107217826D01*
X143150407Y-107330601D01*
X143147258Y-107339002D01*
X143147256Y-107339005D01*
X143138737Y-107361730D01*
X143096095Y-107418495D01*
X143029533Y-107443194D01*
X143020755Y-107443500D01*
X142105899Y-107443500D01*
X142037778Y-107423498D01*
X141991285Y-107369842D01*
X141979899Y-107317500D01*
X141979899Y-107147934D01*
X141969553Y-107095916D01*
X141967556Y-107085874D01*
X141967555Y-107085872D01*
X141965134Y-107073699D01*
X141952663Y-107055034D01*
X141915777Y-106999832D01*
X141908884Y-106989516D01*
X141824701Y-106933266D01*
X141750467Y-106918500D01*
X141666359Y-106918500D01*
X140079471Y-106918501D01*
X140011350Y-106898499D01*
X139964857Y-106844843D01*
X139953471Y-106792501D01*
X139953471Y-106313000D01*
X139973473Y-106244879D01*
X140027129Y-106198386D01*
X140079471Y-106187000D01*
X140580285Y-106187000D01*
X140595524Y-106182525D01*
X140596729Y-106181135D01*
X140598400Y-106173452D01*
X140598400Y-106168884D01*
X140852400Y-106168884D01*
X140856875Y-106184123D01*
X140858265Y-106185328D01*
X140865948Y-106186999D01*
X141744228Y-106186999D01*
X141756488Y-106185791D01*
X141812331Y-106174685D01*
X141834827Y-106165367D01*
X141898208Y-106123017D01*
X141915417Y-106105808D01*
X141957768Y-106042425D01*
X141967084Y-106019934D01*
X141978193Y-105964085D01*
X141979400Y-105951830D01*
X141979400Y-105428115D01*
X141974925Y-105412876D01*
X141973535Y-105411671D01*
X141965852Y-105410000D01*
X140870515Y-105410000D01*
X140855276Y-105414475D01*
X140854071Y-105415865D01*
X140852400Y-105423548D01*
X140852400Y-106168884D01*
X140598400Y-106168884D01*
X140598400Y-105137885D01*
X140852400Y-105137885D01*
X140856875Y-105153124D01*
X140858265Y-105154329D01*
X140865948Y-105156000D01*
X141961284Y-105156000D01*
X141976523Y-105151525D01*
X141977728Y-105150135D01*
X141979399Y-105142452D01*
X141979399Y-104614172D01*
X141978191Y-104601912D01*
X141967085Y-104546069D01*
X141957767Y-104523573D01*
X141915417Y-104460192D01*
X141898208Y-104442983D01*
X141834825Y-104400632D01*
X141812334Y-104391316D01*
X141756485Y-104380207D01*
X141744230Y-104379000D01*
X140870515Y-104379000D01*
X140855276Y-104383475D01*
X140854071Y-104384865D01*
X140852400Y-104392548D01*
X140852400Y-105137885D01*
X140598400Y-105137885D01*
X140598400Y-104397116D01*
X140593925Y-104381877D01*
X140592535Y-104380672D01*
X140584852Y-104379001D01*
X140079471Y-104379001D01*
X140011350Y-104358999D01*
X140004800Y-104351440D01*
X143123501Y-104351440D01*
X143124276Y-104361287D01*
X143136933Y-104441207D01*
X143142985Y-104459833D01*
X143192083Y-104556193D01*
X143203594Y-104572036D01*
X143280064Y-104648506D01*
X143295907Y-104660017D01*
X143392268Y-104709115D01*
X143410892Y-104715167D01*
X143490815Y-104727825D01*
X143500658Y-104728600D01*
X143969885Y-104728600D01*
X143985124Y-104724125D01*
X143986329Y-104722735D01*
X143988000Y-104715052D01*
X143988000Y-104319715D01*
X143983525Y-104304476D01*
X143982135Y-104303271D01*
X143974452Y-104301600D01*
X143141616Y-104301600D01*
X143126377Y-104306075D01*
X143125172Y-104307465D01*
X143123501Y-104315148D01*
X143123501Y-104351440D01*
X140004800Y-104351440D01*
X139964857Y-104305343D01*
X139953471Y-104253001D01*
X139953471Y-104029485D01*
X143123500Y-104029485D01*
X143127975Y-104044724D01*
X143129365Y-104045929D01*
X143137048Y-104047600D01*
X143969885Y-104047600D01*
X143985124Y-104043125D01*
X143986329Y-104041735D01*
X143988000Y-104034052D01*
X143988000Y-104029485D01*
X144242000Y-104029485D01*
X144246475Y-104044724D01*
X144247865Y-104045929D01*
X144255548Y-104047600D01*
X145088384Y-104047600D01*
X145103623Y-104043125D01*
X145104828Y-104041735D01*
X145106499Y-104034052D01*
X145106499Y-103997760D01*
X145105724Y-103987913D01*
X145093067Y-103907993D01*
X145087015Y-103889367D01*
X145037917Y-103793007D01*
X145026406Y-103777164D01*
X144949936Y-103700694D01*
X144934093Y-103689183D01*
X144837732Y-103640085D01*
X144819108Y-103634033D01*
X144739185Y-103621375D01*
X144729342Y-103620600D01*
X144260115Y-103620600D01*
X144244876Y-103625075D01*
X144243671Y-103626465D01*
X144242000Y-103634148D01*
X144242000Y-104029485D01*
X143988000Y-104029485D01*
X143988000Y-103638716D01*
X143983525Y-103623477D01*
X143982135Y-103622272D01*
X143974452Y-103620601D01*
X143500660Y-103620601D01*
X143490813Y-103621376D01*
X143410893Y-103634033D01*
X143392267Y-103640085D01*
X143295907Y-103689183D01*
X143280064Y-103700694D01*
X143203594Y-103777164D01*
X143192083Y-103793007D01*
X143142985Y-103889368D01*
X143136933Y-103907992D01*
X143124275Y-103987915D01*
X143123500Y-103997758D01*
X143123500Y-104029485D01*
X139953471Y-104029485D01*
X139953471Y-103773500D01*
X139973473Y-103705379D01*
X140027129Y-103658886D01*
X140079471Y-103647500D01*
X141666332Y-103647499D01*
X141750466Y-103647499D01*
X141787742Y-103640085D01*
X141812526Y-103635156D01*
X141812528Y-103635155D01*
X141824701Y-103632734D01*
X141835021Y-103625839D01*
X141835022Y-103625838D01*
X141898568Y-103583377D01*
X141908884Y-103576484D01*
X141965134Y-103492301D01*
X141979900Y-103418067D01*
X141979899Y-102651805D01*
X143096001Y-102651805D01*
X143096371Y-102658626D01*
X143101676Y-102707473D01*
X143105302Y-102722724D01*
X143148799Y-102838753D01*
X143157333Y-102854339D01*
X143231002Y-102952637D01*
X143243563Y-102965198D01*
X143341861Y-103038867D01*
X143357447Y-103047401D01*
X143473473Y-103090897D01*
X143488729Y-103094525D01*
X143537576Y-103099831D01*
X143544393Y-103100200D01*
X143742385Y-103100200D01*
X143757624Y-103095725D01*
X143758829Y-103094335D01*
X143760500Y-103086652D01*
X143760500Y-102516315D01*
X143756025Y-102501076D01*
X143754635Y-102499871D01*
X143746952Y-102498200D01*
X143114116Y-102498200D01*
X143098877Y-102502675D01*
X143097672Y-102504065D01*
X143096001Y-102511748D01*
X143096001Y-102651805D01*
X141979899Y-102651805D01*
X141979899Y-102226085D01*
X143096000Y-102226085D01*
X143100475Y-102241324D01*
X143101865Y-102242529D01*
X143109548Y-102244200D01*
X143742385Y-102244200D01*
X143757624Y-102239725D01*
X143758829Y-102238335D01*
X143760500Y-102230652D01*
X143760500Y-101660316D01*
X143756025Y-101645077D01*
X143754635Y-101643872D01*
X143746952Y-101642201D01*
X143544395Y-101642201D01*
X143537574Y-101642571D01*
X143488727Y-101647876D01*
X143473476Y-101651502D01*
X143357447Y-101694999D01*
X143341861Y-101703533D01*
X143243563Y-101777202D01*
X143231002Y-101789763D01*
X143157333Y-101888061D01*
X143148799Y-101903647D01*
X143105303Y-102019673D01*
X143101675Y-102034929D01*
X143096369Y-102083776D01*
X143096000Y-102090593D01*
X143096000Y-102226085D01*
X141979899Y-102226085D01*
X141979899Y-102067934D01*
X141965134Y-101993699D01*
X141954389Y-101977617D01*
X141915777Y-101919832D01*
X141908884Y-101909516D01*
X141824701Y-101853266D01*
X141750467Y-101838500D01*
X141666359Y-101838500D01*
X140079471Y-101838501D01*
X140011350Y-101818499D01*
X139964857Y-101764843D01*
X139953471Y-101712501D01*
X139953471Y-101233500D01*
X139973473Y-101165379D01*
X140027129Y-101118886D01*
X140079471Y-101107500D01*
X141666332Y-101107499D01*
X141750466Y-101107499D01*
X141786218Y-101100388D01*
X141812526Y-101095156D01*
X141812528Y-101095155D01*
X141824701Y-101092734D01*
X141835021Y-101085839D01*
X141835022Y-101085838D01*
X141898568Y-101043377D01*
X141908884Y-101036484D01*
X141965134Y-100952301D01*
X141979900Y-100878067D01*
X141979900Y-100659657D01*
X143085072Y-100659657D01*
X143085441Y-100666475D01*
X143090912Y-100716847D01*
X143094541Y-100732106D01*
X143139293Y-100851483D01*
X143147825Y-100867069D01*
X143223643Y-100968232D01*
X143236204Y-100980793D01*
X143337367Y-101056611D01*
X143352953Y-101065143D01*
X143472336Y-101109898D01*
X143487581Y-101113523D01*
X143537963Y-101118996D01*
X143544777Y-101119365D01*
X143856456Y-101119365D01*
X143871695Y-101114890D01*
X143872900Y-101113500D01*
X143874571Y-101105817D01*
X143874571Y-101101249D01*
X144128571Y-101101249D01*
X144133046Y-101116488D01*
X144134436Y-101117693D01*
X144142119Y-101119364D01*
X144458363Y-101119364D01*
X144465181Y-101118995D01*
X144515553Y-101113524D01*
X144530812Y-101109895D01*
X144650189Y-101065143D01*
X144665775Y-101056611D01*
X144766938Y-100980793D01*
X144779499Y-100968232D01*
X144855317Y-100867069D01*
X144863849Y-100851483D01*
X144908604Y-100732100D01*
X144912229Y-100716855D01*
X144917702Y-100666473D01*
X144918071Y-100659659D01*
X144918071Y-100110480D01*
X144913596Y-100095241D01*
X144912206Y-100094036D01*
X144904523Y-100092365D01*
X144146686Y-100092365D01*
X144131447Y-100096840D01*
X144130242Y-100098230D01*
X144128571Y-100105913D01*
X144128571Y-101101249D01*
X143874571Y-101101249D01*
X143874571Y-100110480D01*
X143870096Y-100095241D01*
X143868706Y-100094036D01*
X143861023Y-100092365D01*
X143103187Y-100092365D01*
X143087948Y-100096840D01*
X143086743Y-100098230D01*
X143085072Y-100105913D01*
X143085072Y-100659657D01*
X141979900Y-100659657D01*
X141979899Y-99820250D01*
X143085071Y-99820250D01*
X143089546Y-99835489D01*
X143090936Y-99836694D01*
X143098619Y-99838365D01*
X143856456Y-99838365D01*
X143871695Y-99833890D01*
X143872900Y-99832500D01*
X143874571Y-99824817D01*
X143874571Y-99820250D01*
X144128571Y-99820250D01*
X144133046Y-99835489D01*
X144134436Y-99836694D01*
X144142119Y-99838365D01*
X144899955Y-99838365D01*
X144915194Y-99833890D01*
X144916399Y-99832500D01*
X144918070Y-99824817D01*
X144918070Y-99271073D01*
X144917701Y-99264255D01*
X144912230Y-99213883D01*
X144908601Y-99198624D01*
X144863849Y-99079247D01*
X144855317Y-99063661D01*
X144779499Y-98962498D01*
X144766938Y-98949937D01*
X144665775Y-98874119D01*
X144650189Y-98865587D01*
X144530806Y-98820832D01*
X144515561Y-98817207D01*
X144465179Y-98811734D01*
X144458365Y-98811365D01*
X144146686Y-98811365D01*
X144131447Y-98815840D01*
X144130242Y-98817230D01*
X144128571Y-98824913D01*
X144128571Y-99820250D01*
X143874571Y-99820250D01*
X143874571Y-98829481D01*
X143870096Y-98814242D01*
X143868706Y-98813037D01*
X143861023Y-98811366D01*
X143544779Y-98811366D01*
X143537961Y-98811735D01*
X143487589Y-98817206D01*
X143472330Y-98820835D01*
X143352953Y-98865587D01*
X143337367Y-98874119D01*
X143236204Y-98949937D01*
X143223643Y-98962498D01*
X143147825Y-99063661D01*
X143139293Y-99079247D01*
X143094538Y-99198630D01*
X143090913Y-99213875D01*
X143085440Y-99264257D01*
X143085071Y-99271071D01*
X143085071Y-99820250D01*
X141979899Y-99820250D01*
X141979899Y-99527934D01*
X141965134Y-99453699D01*
X141908884Y-99369516D01*
X141824701Y-99313266D01*
X141750467Y-99298500D01*
X141666359Y-99298500D01*
X140079471Y-99298501D01*
X140011350Y-99278499D01*
X139964857Y-99224843D01*
X139953471Y-99172501D01*
X139953471Y-98693500D01*
X139973473Y-98625379D01*
X140027129Y-98578886D01*
X140079471Y-98567500D01*
X141666332Y-98567499D01*
X141750466Y-98567499D01*
X141793710Y-98558898D01*
X141812526Y-98555156D01*
X141812528Y-98555155D01*
X141824701Y-98552734D01*
X141835021Y-98545839D01*
X141835022Y-98545838D01*
X141898568Y-98503377D01*
X141908884Y-98496484D01*
X141965134Y-98412301D01*
X141979900Y-98338067D01*
X141979900Y-98245970D01*
X144547572Y-98245970D01*
X144547942Y-98252791D01*
X144553247Y-98301638D01*
X144556873Y-98316889D01*
X144600370Y-98432918D01*
X144608904Y-98448504D01*
X144682573Y-98546802D01*
X144695134Y-98559363D01*
X144793432Y-98633032D01*
X144809018Y-98641566D01*
X144925044Y-98685062D01*
X144940300Y-98688690D01*
X144989147Y-98693996D01*
X144995964Y-98694365D01*
X145193956Y-98694365D01*
X145209195Y-98689890D01*
X145210400Y-98688500D01*
X145212071Y-98680817D01*
X145212071Y-98110480D01*
X145207596Y-98095241D01*
X145206206Y-98094036D01*
X145198523Y-98092365D01*
X144565687Y-98092365D01*
X144550448Y-98096840D01*
X144549243Y-98098230D01*
X144547572Y-98105913D01*
X144547572Y-98245970D01*
X141979900Y-98245970D01*
X141979900Y-97820250D01*
X144547571Y-97820250D01*
X144552046Y-97835489D01*
X144553436Y-97836694D01*
X144561119Y-97838365D01*
X145193956Y-97838365D01*
X145209195Y-97833890D01*
X145210400Y-97832500D01*
X145212071Y-97824817D01*
X145212071Y-97254481D01*
X145207596Y-97239242D01*
X145206206Y-97238037D01*
X145198523Y-97236366D01*
X144995966Y-97236366D01*
X144989145Y-97236736D01*
X144940298Y-97242041D01*
X144925047Y-97245667D01*
X144809018Y-97289164D01*
X144793432Y-97297698D01*
X144695134Y-97371367D01*
X144682573Y-97383928D01*
X144608904Y-97482226D01*
X144600370Y-97497812D01*
X144556874Y-97613838D01*
X144553246Y-97629094D01*
X144547940Y-97677941D01*
X144547571Y-97684758D01*
X144547571Y-97820250D01*
X141979900Y-97820250D01*
X141979899Y-97267386D01*
X141999901Y-97199265D01*
X142016804Y-97178290D01*
X142813326Y-96381769D01*
X142875638Y-96347744D01*
X142902421Y-96344865D01*
X146187158Y-96344865D01*
X146255279Y-96364867D01*
G37*
%TD.AperFunction*%
%TA.AperFunction,Conductor*%
G36*
X160872845Y-99962942D02*
G01*
X160893819Y-99979845D01*
X161160146Y-100246172D01*
X161194172Y-100308484D01*
X161189107Y-100379299D01*
X161146560Y-100436135D01*
X161080040Y-100460946D01*
X161066634Y-100460582D01*
X161066633Y-100460790D01*
X160908221Y-100459960D01*
X160900841Y-100461732D01*
X160900839Y-100461732D01*
X160761563Y-100495169D01*
X160761560Y-100495170D01*
X160754184Y-100496941D01*
X160613414Y-100569598D01*
X160494039Y-100673736D01*
X160402950Y-100803342D01*
X160362533Y-100907007D01*
X160354734Y-100927010D01*
X160311354Y-100983211D01*
X160244474Y-101007038D01*
X160242114Y-101007049D01*
X160235235Y-101005568D01*
X160201890Y-101009515D01*
X160195959Y-101009865D01*
X160195967Y-101009961D01*
X160190791Y-101010389D01*
X160185587Y-101010389D01*
X160166523Y-101013562D01*
X160160677Y-101014393D01*
X160149228Y-101015748D01*
X160109770Y-101020419D01*
X160101518Y-101024382D01*
X160092485Y-101025885D01*
X160083316Y-101030832D01*
X160083314Y-101030833D01*
X160047379Y-101050223D01*
X160042087Y-101052920D01*
X159995879Y-101075108D01*
X159991604Y-101078702D01*
X159989679Y-101080627D01*
X159987749Y-101082398D01*
X159987664Y-101082444D01*
X159987552Y-101082321D01*
X159987017Y-101082793D01*
X159981297Y-101085879D01*
X159974230Y-101093524D01*
X159944695Y-101125475D01*
X159941265Y-101129041D01*
X159903784Y-101166522D01*
X159885036Y-101181664D01*
X159883811Y-101182779D01*
X159875060Y-101188429D01*
X159868613Y-101196607D01*
X159868611Y-101196609D01*
X159854271Y-101214800D01*
X159850325Y-101219241D01*
X159850398Y-101219303D01*
X159847039Y-101223267D01*
X159843362Y-101226944D01*
X159832108Y-101242692D01*
X159828602Y-101247362D01*
X159796844Y-101287647D01*
X159793812Y-101296281D01*
X159788486Y-101303734D01*
X159785501Y-101313715D01*
X159773799Y-101352844D01*
X159771964Y-101358492D01*
X159765333Y-101377374D01*
X159723890Y-101435019D01*
X159657860Y-101461107D01*
X159634097Y-101461018D01*
X159627824Y-101460400D01*
X159479115Y-101460400D01*
X159463876Y-101464875D01*
X159462671Y-101466265D01*
X159461000Y-101473948D01*
X159461000Y-103550284D01*
X159465475Y-103565523D01*
X159466865Y-103566728D01*
X159474548Y-103568399D01*
X159627828Y-103568399D01*
X159640088Y-103567191D01*
X159708106Y-103553663D01*
X159708967Y-103557994D01*
X159755772Y-103552988D01*
X159759698Y-103554142D01*
X159759699Y-103554134D01*
X159833933Y-103568900D01*
X160133951Y-103568900D01*
X160434066Y-103568899D01*
X160508301Y-103554134D01*
X160509095Y-103558128D01*
X160557059Y-103552980D01*
X160559866Y-103553804D01*
X160559894Y-103553663D01*
X160627915Y-103567193D01*
X160640170Y-103568400D01*
X160788885Y-103568400D01*
X160804124Y-103563925D01*
X160805329Y-103562535D01*
X160807000Y-103554852D01*
X160807000Y-102513400D01*
X160827002Y-102445279D01*
X160880658Y-102398786D01*
X160933000Y-102387400D01*
X160935000Y-102387400D01*
X161003121Y-102407402D01*
X161049614Y-102461058D01*
X161061000Y-102513400D01*
X161061000Y-103550284D01*
X161065475Y-103565523D01*
X161066865Y-103566728D01*
X161074548Y-103568399D01*
X161227828Y-103568399D01*
X161240088Y-103567191D01*
X161308106Y-103553663D01*
X161308967Y-103557994D01*
X161355772Y-103552988D01*
X161359698Y-103554142D01*
X161359699Y-103554134D01*
X161433933Y-103568900D01*
X161449012Y-103568900D01*
X161517133Y-103588902D01*
X161563626Y-103642558D01*
X161573730Y-103712832D01*
X161544236Y-103777412D01*
X161538107Y-103783995D01*
X161440784Y-103881318D01*
X161422036Y-103896460D01*
X161420811Y-103897575D01*
X161412060Y-103903225D01*
X161405613Y-103911403D01*
X161405612Y-103911404D01*
X161404680Y-103912587D01*
X161401780Y-103916266D01*
X161398573Y-103920334D01*
X161340693Y-103961448D01*
X161269773Y-103964743D01*
X161223445Y-103942694D01*
X161209361Y-103932004D01*
X161194534Y-103923649D01*
X161068916Y-103873914D01*
X161053351Y-103869961D01*
X160974802Y-103860456D01*
X160967247Y-103860000D01*
X160673115Y-103860000D01*
X160657876Y-103864475D01*
X160656671Y-103865865D01*
X160655000Y-103873548D01*
X160655000Y-104715000D01*
X160634998Y-104783121D01*
X160581342Y-104829614D01*
X160529000Y-104841000D01*
X159592115Y-104841000D01*
X159556531Y-104851448D01*
X159531042Y-104867831D01*
X159460046Y-104867834D01*
X159406444Y-104836031D01*
X159333412Y-104762999D01*
X159317568Y-104751488D01*
X159219797Y-104701670D01*
X159201170Y-104695618D01*
X159120080Y-104682775D01*
X159110234Y-104682000D01*
X159073115Y-104682000D01*
X159057876Y-104686475D01*
X159056671Y-104687865D01*
X159055000Y-104695548D01*
X159055000Y-105304500D01*
X159034998Y-105372621D01*
X158981342Y-105419114D01*
X158929000Y-105430500D01*
X158927000Y-105430500D01*
X158858879Y-105410498D01*
X158812386Y-105356842D01*
X158801000Y-105304500D01*
X158801000Y-104700115D01*
X158796525Y-104684876D01*
X158795135Y-104683671D01*
X158787452Y-104682000D01*
X158745766Y-104682000D01*
X158735920Y-104682775D01*
X158654830Y-104695618D01*
X158636203Y-104701670D01*
X158538432Y-104751488D01*
X158522588Y-104762999D01*
X158444999Y-104840588D01*
X158433488Y-104856432D01*
X158420287Y-104882339D01*
X158371538Y-104933954D01*
X158302624Y-104951020D01*
X158235422Y-104928119D01*
X158191270Y-104872522D01*
X158182020Y-104825136D01*
X158182020Y-104568885D01*
X159574000Y-104568885D01*
X159578475Y-104584124D01*
X159579865Y-104585329D01*
X159587548Y-104587000D01*
X160382885Y-104587000D01*
X160398124Y-104582525D01*
X160399329Y-104581135D01*
X160401000Y-104573452D01*
X160401000Y-103878115D01*
X160396525Y-103862876D01*
X160395135Y-103861671D01*
X160387452Y-103860000D01*
X160088753Y-103860000D01*
X160081198Y-103860456D01*
X160002649Y-103869961D01*
X159987084Y-103873914D01*
X159861466Y-103923649D01*
X159846643Y-103932002D01*
X159739419Y-104013389D01*
X159727389Y-104025419D01*
X159646002Y-104132643D01*
X159637649Y-104147466D01*
X159587914Y-104273084D01*
X159583961Y-104288649D01*
X159574456Y-104367198D01*
X159574000Y-104374753D01*
X159574000Y-104568885D01*
X158182020Y-104568885D01*
X158182020Y-104280864D01*
X158202022Y-104212743D01*
X158218925Y-104191769D01*
X158764216Y-103646478D01*
X158782964Y-103631336D01*
X158784189Y-103630222D01*
X158792940Y-103624571D01*
X158808564Y-103604751D01*
X158866443Y-103563639D01*
X158882920Y-103559182D01*
X158908301Y-103554134D01*
X158908302Y-103554133D01*
X158909097Y-103558128D01*
X158957059Y-103552980D01*
X158959866Y-103553804D01*
X158959894Y-103553663D01*
X159027915Y-103567193D01*
X159040170Y-103568400D01*
X159188885Y-103568400D01*
X159204124Y-103563925D01*
X159205329Y-103562535D01*
X159207000Y-103554852D01*
X159207000Y-101478516D01*
X159202525Y-101463277D01*
X159201135Y-101462072D01*
X159193452Y-101460401D01*
X159040172Y-101460401D01*
X159027912Y-101461609D01*
X158959894Y-101475137D01*
X158959033Y-101470806D01*
X158912228Y-101475812D01*
X158908302Y-101474658D01*
X158908301Y-101474666D01*
X158840135Y-101461107D01*
X158834067Y-101459900D01*
X158534049Y-101459900D01*
X158233934Y-101459901D01*
X158159699Y-101474666D01*
X158158864Y-101470466D01*
X158111676Y-101475557D01*
X158108320Y-101474572D01*
X158108301Y-101474666D01*
X158040135Y-101461107D01*
X158034067Y-101459900D01*
X157933041Y-101459900D01*
X157464500Y-101459901D01*
X157396379Y-101439899D01*
X157349886Y-101386243D01*
X157338500Y-101333901D01*
X157338499Y-100769900D01*
X157358501Y-100701779D01*
X157412157Y-100655286D01*
X157464499Y-100643900D01*
X158106812Y-100643900D01*
X158130760Y-100646449D01*
X158132425Y-100646528D01*
X158142608Y-100648720D01*
X158152949Y-100647496D01*
X158170109Y-100645465D01*
X158175955Y-100644773D01*
X158181886Y-100644423D01*
X158181878Y-100644328D01*
X158187056Y-100643900D01*
X158192256Y-100643900D01*
X158197385Y-100643046D01*
X158197388Y-100643046D01*
X158211297Y-100640731D01*
X158217175Y-100639894D01*
X158257733Y-100635094D01*
X158257734Y-100635094D01*
X158268073Y-100633870D01*
X158276325Y-100629907D01*
X158285358Y-100628404D01*
X158294527Y-100623457D01*
X158294529Y-100623456D01*
X158330464Y-100604066D01*
X158335757Y-100601369D01*
X158374814Y-100582615D01*
X158374818Y-100582612D01*
X158381964Y-100579181D01*
X158386240Y-100575586D01*
X158388163Y-100573663D01*
X158390095Y-100571891D01*
X158390174Y-100571848D01*
X158390287Y-100571972D01*
X158390827Y-100571496D01*
X158396546Y-100568410D01*
X158433149Y-100528813D01*
X158436578Y-100525248D01*
X158981981Y-99979845D01*
X159044293Y-99945819D01*
X159071076Y-99942940D01*
X160804724Y-99942940D01*
X160872845Y-99962942D01*
G37*
%TD.AperFunction*%
%TA.AperFunction,Conductor*%
G36*
X151021321Y-93938002D02*
G01*
X151067814Y-93991658D01*
X151079200Y-94044000D01*
X151079200Y-95255884D01*
X151083675Y-95271123D01*
X151085065Y-95272328D01*
X151092748Y-95273999D01*
X151129040Y-95273999D01*
X151138887Y-95273224D01*
X151218807Y-95260567D01*
X151237433Y-95254515D01*
X151333793Y-95205417D01*
X151349636Y-95193906D01*
X151426106Y-95117436D01*
X151437619Y-95101590D01*
X151474652Y-95028908D01*
X151523400Y-94977292D01*
X151592315Y-94960226D01*
X151659516Y-94983126D01*
X151699185Y-95028906D01*
X151724772Y-95079122D01*
X151740874Y-95110723D01*
X151831477Y-95201326D01*
X151945645Y-95259498D01*
X151955434Y-95261048D01*
X151955436Y-95261049D01*
X151968709Y-95263151D01*
X152038093Y-95298505D01*
X154834204Y-98094616D01*
X154849346Y-98113364D01*
X154850461Y-98114589D01*
X154856111Y-98123340D01*
X154864289Y-98129787D01*
X154864291Y-98129789D01*
X154882482Y-98144129D01*
X154886923Y-98148075D01*
X154886985Y-98148002D01*
X154890949Y-98151361D01*
X154894626Y-98155038D01*
X154910374Y-98166292D01*
X154915044Y-98169798D01*
X154955329Y-98201556D01*
X154963963Y-98204588D01*
X154971416Y-98209914D01*
X155020532Y-98224603D01*
X155026174Y-98226436D01*
X155067049Y-98240790D01*
X155074533Y-98243418D01*
X155080098Y-98243900D01*
X155082806Y-98243900D01*
X155085440Y-98244014D01*
X155085538Y-98244043D01*
X155085531Y-98244207D01*
X155086235Y-98244251D01*
X155092460Y-98246113D01*
X155102865Y-98245704D01*
X155113201Y-98247010D01*
X155112889Y-98249478D01*
X155167414Y-98263191D01*
X155215974Y-98314983D01*
X155229500Y-98371777D01*
X155229501Y-98958900D01*
X155209499Y-99027021D01*
X155155843Y-99073514D01*
X155103501Y-99084900D01*
X155102606Y-99084900D01*
X155076092Y-99082079D01*
X155039290Y-99074155D01*
X155029731Y-99071700D01*
X154998202Y-99062271D01*
X154998199Y-99062271D01*
X154988222Y-99059287D01*
X154977813Y-99059696D01*
X154973077Y-99059098D01*
X154968309Y-99058873D01*
X154958124Y-99056680D01*
X154947781Y-99057904D01*
X154947778Y-99057904D01*
X154915118Y-99061770D01*
X154905263Y-99062546D01*
X154861979Y-99064247D01*
X154852265Y-99068005D01*
X154847582Y-99068975D01*
X154842996Y-99070308D01*
X154832659Y-99071531D01*
X154804818Y-99084900D01*
X154793631Y-99090272D01*
X154784550Y-99094202D01*
X154744148Y-99109832D01*
X154736174Y-99116535D01*
X154729336Y-99120579D01*
X154725912Y-99122790D01*
X154718768Y-99126220D01*
X154714492Y-99129814D01*
X154687317Y-99156989D01*
X154679297Y-99164345D01*
X154669596Y-99172500D01*
X154647436Y-99191127D01*
X154642063Y-99200051D01*
X154635300Y-99207970D01*
X154634811Y-99207553D01*
X154627846Y-99216460D01*
X154328784Y-99515522D01*
X154310036Y-99530664D01*
X154308811Y-99531779D01*
X154300060Y-99537429D01*
X154293613Y-99545607D01*
X154293611Y-99545609D01*
X154279271Y-99563800D01*
X154275323Y-99568243D01*
X154275396Y-99568305D01*
X154272037Y-99572269D01*
X154268362Y-99575944D01*
X154267445Y-99577227D01*
X154209031Y-99615686D01*
X154138038Y-99616470D01*
X154077892Y-99578747D01*
X154047688Y-99514496D01*
X154046200Y-99495189D01*
X154046200Y-99140115D01*
X154041725Y-99124876D01*
X154040335Y-99123671D01*
X154032652Y-99122000D01*
X153637315Y-99122000D01*
X153622076Y-99126475D01*
X153620871Y-99127865D01*
X153619200Y-99135548D01*
X153619200Y-100205884D01*
X153623675Y-100221123D01*
X153625065Y-100222328D01*
X153632748Y-100223999D01*
X153669040Y-100223999D01*
X153678887Y-100223224D01*
X153758807Y-100210567D01*
X153777433Y-100204515D01*
X153873793Y-100155417D01*
X153889636Y-100143906D01*
X153964405Y-100069137D01*
X154026717Y-100035111D01*
X154097532Y-100040176D01*
X154154368Y-100082723D01*
X154179179Y-100149243D01*
X154179500Y-100158232D01*
X154179500Y-101006061D01*
X154159498Y-101074182D01*
X154105842Y-101120675D01*
X154033790Y-101130510D01*
X153983687Y-101122575D01*
X153973842Y-101121800D01*
X153942115Y-101121800D01*
X153926876Y-101126275D01*
X153925671Y-101127665D01*
X153924000Y-101135348D01*
X153924000Y-103561684D01*
X153928475Y-103576923D01*
X153929865Y-103578128D01*
X153937548Y-103579799D01*
X153973840Y-103579799D01*
X153983687Y-103579024D01*
X154033790Y-103571089D01*
X154104201Y-103580189D01*
X154158515Y-103625912D01*
X154179500Y-103695538D01*
X154179500Y-103794580D01*
X154176951Y-103818528D01*
X154176872Y-103820193D01*
X154174680Y-103830376D01*
X154175904Y-103840717D01*
X154178627Y-103863723D01*
X154178977Y-103869654D01*
X154179072Y-103869646D01*
X154179500Y-103874824D01*
X154179500Y-103880024D01*
X154180354Y-103885153D01*
X154180354Y-103885156D01*
X154182669Y-103899065D01*
X154183506Y-103904943D01*
X154186709Y-103932002D01*
X154189530Y-103955841D01*
X154193493Y-103964093D01*
X154194996Y-103973126D01*
X154199943Y-103982295D01*
X154199944Y-103982297D01*
X154219334Y-104018232D01*
X154222031Y-104023525D01*
X154240785Y-104062582D01*
X154240788Y-104062586D01*
X154244219Y-104069732D01*
X154247814Y-104074008D01*
X154249737Y-104075931D01*
X154251509Y-104077863D01*
X154251552Y-104077942D01*
X154251428Y-104078055D01*
X154251904Y-104078595D01*
X154254990Y-104084314D01*
X154262635Y-104091381D01*
X154294586Y-104120916D01*
X154298152Y-104124346D01*
X154354211Y-104180405D01*
X154388237Y-104242717D01*
X154383172Y-104313532D01*
X154340625Y-104370368D01*
X154274105Y-104395179D01*
X154265116Y-104395500D01*
X153176071Y-104395500D01*
X153107950Y-104375498D01*
X153061457Y-104321842D01*
X153051353Y-104251568D01*
X153073747Y-104195976D01*
X153104755Y-104152824D01*
X153163842Y-104005841D01*
X153174350Y-103932004D01*
X153185581Y-103853091D01*
X153185581Y-103853088D01*
X153186162Y-103849007D01*
X153186307Y-103835200D01*
X153167276Y-103677933D01*
X153135176Y-103592984D01*
X153124807Y-103565543D01*
X153119439Y-103494750D01*
X153153196Y-103432292D01*
X153215362Y-103398000D01*
X153286199Y-103402762D01*
X153331768Y-103431910D01*
X153399564Y-103499706D01*
X153415407Y-103511217D01*
X153511768Y-103560315D01*
X153530392Y-103566367D01*
X153610315Y-103579025D01*
X153620158Y-103579800D01*
X153651885Y-103579800D01*
X153667124Y-103575325D01*
X153668329Y-103573935D01*
X153670000Y-103566252D01*
X153670000Y-101139916D01*
X153665525Y-101124677D01*
X153664135Y-101123472D01*
X153656452Y-101121801D01*
X153620160Y-101121801D01*
X153610313Y-101122576D01*
X153530393Y-101135233D01*
X153511767Y-101141285D01*
X153415407Y-101190383D01*
X153399564Y-101201894D01*
X153323094Y-101278364D01*
X153311581Y-101294210D01*
X153274548Y-101366892D01*
X153225800Y-101418508D01*
X153156885Y-101435574D01*
X153089684Y-101412674D01*
X153050015Y-101366894D01*
X153012828Y-101293912D01*
X153012827Y-101293910D01*
X153008326Y-101285077D01*
X152917723Y-101194474D01*
X152803555Y-101136302D01*
X152708834Y-101121300D01*
X152345166Y-101121300D01*
X152250445Y-101136302D01*
X152136277Y-101194474D01*
X152045674Y-101285077D01*
X152008267Y-101358492D01*
X152004267Y-101366342D01*
X151955518Y-101417957D01*
X151886603Y-101435023D01*
X151819402Y-101412122D01*
X151779733Y-101366342D01*
X151775733Y-101358492D01*
X151738326Y-101285077D01*
X151647723Y-101194474D01*
X151533555Y-101136302D01*
X151438834Y-101121300D01*
X151075166Y-101121300D01*
X150980445Y-101136302D01*
X150866277Y-101194474D01*
X150775674Y-101285077D01*
X150738267Y-101358492D01*
X150734267Y-101366342D01*
X150685518Y-101417957D01*
X150616603Y-101435023D01*
X150549402Y-101412122D01*
X150509733Y-101366342D01*
X150505733Y-101358492D01*
X150468326Y-101285077D01*
X150377723Y-101194474D01*
X150263555Y-101136302D01*
X150168834Y-101121300D01*
X149805166Y-101121300D01*
X149784962Y-101124500D01*
X149720235Y-101134751D01*
X149720232Y-101134752D01*
X149710445Y-101136302D01*
X149701615Y-101140801D01*
X149696904Y-101142332D01*
X149625936Y-101144359D01*
X149574150Y-101116576D01*
X149474275Y-101027591D01*
X149466889Y-101023680D01*
X149390456Y-100983211D01*
X149334274Y-100953464D01*
X149180633Y-100914872D01*
X149173034Y-100914832D01*
X149173033Y-100914832D01*
X149107181Y-100914487D01*
X149022221Y-100914042D01*
X149014841Y-100915814D01*
X149014839Y-100915814D01*
X148875563Y-100949251D01*
X148875560Y-100949252D01*
X148868184Y-100951023D01*
X148727414Y-101023680D01*
X148608039Y-101127818D01*
X148516950Y-101257424D01*
X148497508Y-101307290D01*
X148466726Y-101386243D01*
X148459406Y-101405017D01*
X148458414Y-101412550D01*
X148458414Y-101412551D01*
X148440227Y-101550698D01*
X148438729Y-101562076D01*
X148442447Y-101595754D01*
X148454884Y-101708397D01*
X148456113Y-101719533D01*
X148458723Y-101726664D01*
X148458723Y-101726666D01*
X148505052Y-101853266D01*
X148510553Y-101868299D01*
X148514789Y-101874602D01*
X148514789Y-101874603D01*
X148582400Y-101975218D01*
X148598908Y-101999785D01*
X148604527Y-102004898D01*
X148604528Y-102004899D01*
X148698655Y-102090547D01*
X148716076Y-102106399D01*
X148855293Y-102181988D01*
X148935264Y-102202968D01*
X148955054Y-102208160D01*
X149015869Y-102244794D01*
X149047224Y-102308491D01*
X149039165Y-102379029D01*
X149012175Y-102419131D01*
X148793229Y-102638077D01*
X148730917Y-102672103D01*
X148660102Y-102667038D01*
X148603266Y-102624491D01*
X148593247Y-102608816D01*
X148576005Y-102576862D01*
X148574056Y-102573249D01*
X148571369Y-102567975D01*
X148552615Y-102528918D01*
X148552612Y-102528914D01*
X148549181Y-102521768D01*
X148545586Y-102517492D01*
X148543663Y-102515569D01*
X148541891Y-102513637D01*
X148541848Y-102513558D01*
X148541972Y-102513445D01*
X148541496Y-102512905D01*
X148538410Y-102507186D01*
X148498813Y-102470583D01*
X148495248Y-102467154D01*
X147482405Y-101454311D01*
X147448379Y-101391999D01*
X147445500Y-101365216D01*
X147445500Y-101245865D01*
X147465502Y-101177744D01*
X147519158Y-101131251D01*
X147571500Y-101119865D01*
X147586827Y-101119865D01*
X147591439Y-101119364D01*
X147640668Y-101114016D01*
X147640669Y-101114016D01*
X147648519Y-101113163D01*
X147655912Y-101110391D01*
X147655914Y-101110391D01*
X147711486Y-101089558D01*
X147783835Y-101062436D01*
X147791014Y-101057056D01*
X147791017Y-101057054D01*
X147892295Y-100981150D01*
X147899475Y-100975769D01*
X147919349Y-100949251D01*
X147980760Y-100867311D01*
X147980762Y-100867308D01*
X147986142Y-100860129D01*
X148036869Y-100724813D01*
X148040682Y-100689719D01*
X148043202Y-100666518D01*
X148043202Y-100666517D01*
X148043571Y-100663121D01*
X148043571Y-99846840D01*
X149128201Y-99846840D01*
X149128976Y-99856687D01*
X149141633Y-99936607D01*
X149147685Y-99955233D01*
X149196783Y-100051593D01*
X149208294Y-100067436D01*
X149284764Y-100143906D01*
X149300607Y-100155417D01*
X149396968Y-100204515D01*
X149415592Y-100210567D01*
X149495515Y-100223225D01*
X149505358Y-100224000D01*
X149537085Y-100224000D01*
X149552324Y-100219525D01*
X149553529Y-100218135D01*
X149555200Y-100210452D01*
X149555200Y-100205884D01*
X149809200Y-100205884D01*
X149813675Y-100221123D01*
X149815065Y-100222328D01*
X149822748Y-100223999D01*
X149859040Y-100223999D01*
X149868887Y-100223224D01*
X149948807Y-100210567D01*
X149967433Y-100204515D01*
X150063793Y-100155417D01*
X150079636Y-100143906D01*
X150156106Y-100067436D01*
X150167617Y-100051593D01*
X150204933Y-99978356D01*
X150253681Y-99926741D01*
X150322596Y-99909675D01*
X150389798Y-99932576D01*
X150429467Y-99978356D01*
X150466783Y-100051593D01*
X150478294Y-100067436D01*
X150554764Y-100143906D01*
X150570607Y-100155417D01*
X150666968Y-100204515D01*
X150685592Y-100210567D01*
X150765515Y-100223225D01*
X150775358Y-100224000D01*
X150807085Y-100224000D01*
X150822324Y-100219525D01*
X150823529Y-100218135D01*
X150825200Y-100210452D01*
X150825200Y-100205884D01*
X151079200Y-100205884D01*
X151083675Y-100221123D01*
X151085065Y-100222328D01*
X151092748Y-100223999D01*
X151129040Y-100223999D01*
X151138887Y-100223224D01*
X151218807Y-100210567D01*
X151237433Y-100204515D01*
X151333793Y-100155417D01*
X151349636Y-100143906D01*
X151426106Y-100067436D01*
X151437617Y-100051593D01*
X151474933Y-99978356D01*
X151523681Y-99926741D01*
X151592596Y-99909675D01*
X151659798Y-99932576D01*
X151699467Y-99978356D01*
X151736783Y-100051593D01*
X151748294Y-100067436D01*
X151824764Y-100143906D01*
X151840607Y-100155417D01*
X151936968Y-100204515D01*
X151955592Y-100210567D01*
X152035515Y-100223225D01*
X152045358Y-100224000D01*
X152077085Y-100224000D01*
X152092324Y-100219525D01*
X152093529Y-100218135D01*
X152095200Y-100210452D01*
X152095200Y-100205884D01*
X152349200Y-100205884D01*
X152353675Y-100221123D01*
X152355065Y-100222328D01*
X152362748Y-100223999D01*
X152399040Y-100223999D01*
X152408887Y-100223224D01*
X152488807Y-100210567D01*
X152507433Y-100204515D01*
X152603793Y-100155417D01*
X152619636Y-100143906D01*
X152696106Y-100067436D01*
X152707617Y-100051593D01*
X152744933Y-99978356D01*
X152793681Y-99926741D01*
X152862596Y-99909675D01*
X152929798Y-99932576D01*
X152969467Y-99978356D01*
X153006783Y-100051593D01*
X153018294Y-100067436D01*
X153094764Y-100143906D01*
X153110607Y-100155417D01*
X153206968Y-100204515D01*
X153225592Y-100210567D01*
X153305515Y-100223225D01*
X153315358Y-100224000D01*
X153347085Y-100224000D01*
X153362324Y-100219525D01*
X153363529Y-100218135D01*
X153365200Y-100210452D01*
X153365200Y-98849885D01*
X153619200Y-98849885D01*
X153623675Y-98865124D01*
X153625065Y-98866329D01*
X153632748Y-98868000D01*
X154028084Y-98868000D01*
X154043323Y-98863525D01*
X154044528Y-98862135D01*
X154046199Y-98854452D01*
X154046199Y-98143160D01*
X154045424Y-98133313D01*
X154032767Y-98053393D01*
X154026715Y-98034767D01*
X153977617Y-97938407D01*
X153966106Y-97922564D01*
X153889636Y-97846094D01*
X153873793Y-97834583D01*
X153777432Y-97785485D01*
X153758808Y-97779433D01*
X153678885Y-97766775D01*
X153669042Y-97766000D01*
X153637315Y-97766000D01*
X153622076Y-97770475D01*
X153620871Y-97771865D01*
X153619200Y-97779548D01*
X153619200Y-98849885D01*
X153365200Y-98849885D01*
X153365200Y-97784116D01*
X153360725Y-97768877D01*
X153359335Y-97767672D01*
X153351652Y-97766001D01*
X153315360Y-97766001D01*
X153305513Y-97766776D01*
X153225593Y-97779433D01*
X153206967Y-97785485D01*
X153110607Y-97834583D01*
X153094764Y-97846094D01*
X153018294Y-97922564D01*
X153006783Y-97938407D01*
X152969467Y-98011644D01*
X152920719Y-98063259D01*
X152851804Y-98080325D01*
X152784602Y-98057424D01*
X152744933Y-98011644D01*
X152707617Y-97938407D01*
X152696106Y-97922564D01*
X152619636Y-97846094D01*
X152603793Y-97834583D01*
X152507432Y-97785485D01*
X152488808Y-97779433D01*
X152408885Y-97766775D01*
X152399042Y-97766000D01*
X152367315Y-97766000D01*
X152352076Y-97770475D01*
X152350871Y-97771865D01*
X152349200Y-97779548D01*
X152349200Y-100205884D01*
X152095200Y-100205884D01*
X152095200Y-97784116D01*
X152090725Y-97768877D01*
X152089335Y-97767672D01*
X152081652Y-97766001D01*
X152045360Y-97766001D01*
X152035513Y-97766776D01*
X151955593Y-97779433D01*
X151936967Y-97785485D01*
X151840607Y-97834583D01*
X151824764Y-97846094D01*
X151748294Y-97922564D01*
X151736783Y-97938407D01*
X151699467Y-98011644D01*
X151650719Y-98063259D01*
X151581804Y-98080325D01*
X151514602Y-98057424D01*
X151474933Y-98011644D01*
X151437617Y-97938407D01*
X151426106Y-97922564D01*
X151349636Y-97846094D01*
X151333793Y-97834583D01*
X151237432Y-97785485D01*
X151218808Y-97779433D01*
X151138885Y-97766775D01*
X151129042Y-97766000D01*
X151097315Y-97766000D01*
X151082076Y-97770475D01*
X151080871Y-97771865D01*
X151079200Y-97779548D01*
X151079200Y-100205884D01*
X150825200Y-100205884D01*
X150825200Y-97784116D01*
X150820725Y-97768877D01*
X150819335Y-97767672D01*
X150811652Y-97766001D01*
X150775360Y-97766001D01*
X150765513Y-97766776D01*
X150685593Y-97779433D01*
X150666967Y-97785485D01*
X150570607Y-97834583D01*
X150554764Y-97846094D01*
X150478294Y-97922564D01*
X150466783Y-97938407D01*
X150429467Y-98011644D01*
X150380719Y-98063259D01*
X150311804Y-98080325D01*
X150244602Y-98057424D01*
X150204933Y-98011644D01*
X150167617Y-97938407D01*
X150156106Y-97922564D01*
X150079636Y-97846094D01*
X150063793Y-97834583D01*
X149967432Y-97785485D01*
X149948808Y-97779433D01*
X149868885Y-97766775D01*
X149859042Y-97766000D01*
X149827315Y-97766000D01*
X149812076Y-97770475D01*
X149810871Y-97771865D01*
X149809200Y-97779548D01*
X149809200Y-100205884D01*
X149555200Y-100205884D01*
X149555200Y-99140115D01*
X149550725Y-99124876D01*
X149549335Y-99123671D01*
X149541652Y-99122000D01*
X149146316Y-99122000D01*
X149131077Y-99126475D01*
X149129872Y-99127865D01*
X149128201Y-99135548D01*
X149128201Y-99846840D01*
X148043571Y-99846840D01*
X148043571Y-99267609D01*
X148043202Y-99264212D01*
X148037722Y-99213768D01*
X148037722Y-99213767D01*
X148036869Y-99205917D01*
X148023600Y-99170520D01*
X148008638Y-99130609D01*
X147986142Y-99070601D01*
X147980762Y-99063422D01*
X147980760Y-99063419D01*
X147914784Y-98975388D01*
X147899475Y-98954961D01*
X147873223Y-98935286D01*
X147791017Y-98873676D01*
X147791014Y-98873674D01*
X147783835Y-98868294D01*
X147734729Y-98849885D01*
X149128200Y-98849885D01*
X149132675Y-98865124D01*
X149134065Y-98866329D01*
X149141748Y-98868000D01*
X149537085Y-98868000D01*
X149552324Y-98863525D01*
X149553529Y-98862135D01*
X149555200Y-98854452D01*
X149555200Y-97784116D01*
X149550725Y-97768877D01*
X149549335Y-97767672D01*
X149541652Y-97766001D01*
X149505360Y-97766001D01*
X149495513Y-97766776D01*
X149415593Y-97779433D01*
X149396967Y-97785485D01*
X149300607Y-97834583D01*
X149284764Y-97846094D01*
X149208294Y-97922564D01*
X149196783Y-97938407D01*
X149147685Y-98034768D01*
X149141633Y-98053392D01*
X149128975Y-98133315D01*
X149128200Y-98143158D01*
X149128200Y-98849885D01*
X147734729Y-98849885D01*
X147724872Y-98846190D01*
X147674577Y-98827335D01*
X147617812Y-98784694D01*
X147593112Y-98718132D01*
X147608319Y-98648783D01*
X147643242Y-98608526D01*
X147648815Y-98604350D01*
X147715545Y-98554339D01*
X147800064Y-98441564D01*
X147803306Y-98432918D01*
X147836589Y-98344135D01*
X147849535Y-98309601D01*
X147856071Y-98249435D01*
X147856071Y-97681295D01*
X147849535Y-97621129D01*
X147828243Y-97564334D01*
X147803215Y-97497570D01*
X147803214Y-97497567D01*
X147800064Y-97489166D01*
X147715545Y-97376391D01*
X147602770Y-97291872D01*
X147594369Y-97288722D01*
X147594366Y-97288721D01*
X147525341Y-97262845D01*
X147468577Y-97220203D01*
X147443877Y-97153642D01*
X147443571Y-97144863D01*
X147443571Y-96795864D01*
X147463573Y-96727743D01*
X147517229Y-96681250D01*
X147569571Y-96669864D01*
X147889137Y-96669864D01*
X147924889Y-96662753D01*
X147951197Y-96657521D01*
X147951199Y-96657520D01*
X147963372Y-96655099D01*
X147973692Y-96648204D01*
X147973693Y-96648203D01*
X148037239Y-96605742D01*
X148047555Y-96598849D01*
X148103805Y-96514666D01*
X148118571Y-96440432D01*
X148118571Y-96197513D01*
X148138573Y-96129392D01*
X148155476Y-96108418D01*
X149087605Y-95176289D01*
X149149917Y-95142263D01*
X149220732Y-95147328D01*
X149277568Y-95189875D01*
X149302379Y-95256395D01*
X149302700Y-95265384D01*
X149302700Y-95627880D01*
X149300151Y-95651828D01*
X149300072Y-95653493D01*
X149297880Y-95663676D01*
X149299104Y-95674017D01*
X149301827Y-95697023D01*
X149302177Y-95702954D01*
X149302272Y-95702946D01*
X149302700Y-95708124D01*
X149302700Y-95713324D01*
X149303554Y-95718453D01*
X149303554Y-95718456D01*
X149305869Y-95732365D01*
X149306706Y-95738243D01*
X149309992Y-95766003D01*
X149312730Y-95789141D01*
X149314146Y-95792090D01*
X149317640Y-95837997D01*
X149302329Y-95954296D01*
X149310268Y-96026207D01*
X149318273Y-96098708D01*
X149319713Y-96111753D01*
X149322323Y-96118884D01*
X149322323Y-96118886D01*
X149368483Y-96245024D01*
X149374153Y-96260519D01*
X149378389Y-96266822D01*
X149378389Y-96266823D01*
X149455630Y-96381769D01*
X149462508Y-96392005D01*
X149468127Y-96397118D01*
X149468128Y-96397119D01*
X149551702Y-96473165D01*
X149579676Y-96498619D01*
X149718893Y-96574208D01*
X149872122Y-96614407D01*
X149956077Y-96615726D01*
X150022919Y-96616776D01*
X150022922Y-96616776D01*
X150030516Y-96616895D01*
X150184932Y-96581529D01*
X150281305Y-96533059D01*
X150319672Y-96513763D01*
X150319675Y-96513761D01*
X150326455Y-96510351D01*
X150332226Y-96505422D01*
X150332229Y-96505420D01*
X150441136Y-96412404D01*
X150441136Y-96412403D01*
X150446914Y-96407469D01*
X150539355Y-96278824D01*
X150598442Y-96131841D01*
X150613138Y-96028576D01*
X150620181Y-95979091D01*
X150620181Y-95979088D01*
X150620762Y-95975007D01*
X150620907Y-95961200D01*
X150601876Y-95803933D01*
X150545880Y-95655746D01*
X150518629Y-95616096D01*
X150460455Y-95531451D01*
X150460454Y-95531449D01*
X150456153Y-95525192D01*
X150445840Y-95516003D01*
X150389417Y-95465733D01*
X150337875Y-95419811D01*
X150311309Y-95405745D01*
X150204589Y-95349239D01*
X150204586Y-95349238D01*
X150197874Y-95345684D01*
X150190508Y-95343834D01*
X150183694Y-95341218D01*
X150127267Y-95298131D01*
X150103092Y-95231377D01*
X150118845Y-95162150D01*
X150139756Y-95134493D01*
X150163526Y-95110723D01*
X150179628Y-95079122D01*
X150205215Y-95028906D01*
X150253963Y-94977292D01*
X150322878Y-94960226D01*
X150390079Y-94983127D01*
X150429748Y-95028908D01*
X150466781Y-95101590D01*
X150478294Y-95117436D01*
X150554764Y-95193906D01*
X150570607Y-95205417D01*
X150666968Y-95254515D01*
X150685592Y-95260567D01*
X150765515Y-95273225D01*
X150775358Y-95274000D01*
X150807085Y-95274000D01*
X150822324Y-95269525D01*
X150823529Y-95268135D01*
X150825200Y-95260452D01*
X150825200Y-94044000D01*
X150845202Y-93975879D01*
X150898858Y-93929386D01*
X150951200Y-93918000D01*
X150953200Y-93918000D01*
X151021321Y-93938002D01*
G37*
%TD.AperFunction*%
%TA.AperFunction,Conductor*%
G36*
X172947622Y-98062502D02*
G01*
X172994115Y-98116158D01*
X173005501Y-98168500D01*
X173005501Y-98338066D01*
X173011972Y-98370602D01*
X173017623Y-98399011D01*
X173020266Y-98412301D01*
X173027161Y-98422620D01*
X173027162Y-98422622D01*
X173056077Y-98465895D01*
X173076516Y-98496484D01*
X173160699Y-98552734D01*
X173234933Y-98567500D01*
X173319329Y-98567500D01*
X174912071Y-98567499D01*
X174980192Y-98587501D01*
X175026685Y-98641157D01*
X175038071Y-98693499D01*
X175038071Y-99172500D01*
X175018069Y-99240621D01*
X174964413Y-99287114D01*
X174912071Y-99298500D01*
X173319356Y-99298501D01*
X173234934Y-99298501D01*
X173199182Y-99305612D01*
X173172874Y-99310844D01*
X173172872Y-99310845D01*
X173160699Y-99313266D01*
X173150379Y-99320161D01*
X173150378Y-99320162D01*
X173123832Y-99337900D01*
X173076516Y-99369516D01*
X173020266Y-99453699D01*
X173005500Y-99527933D01*
X173005501Y-100082723D01*
X173005501Y-100598615D01*
X172985499Y-100666736D01*
X172968596Y-100687710D01*
X172705273Y-100951033D01*
X172686525Y-100966175D01*
X172685300Y-100967290D01*
X172676549Y-100972940D01*
X172670102Y-100981118D01*
X172670100Y-100981120D01*
X172655760Y-100999311D01*
X172651814Y-101003752D01*
X172651887Y-101003814D01*
X172648528Y-101007778D01*
X172644851Y-101011455D01*
X172633597Y-101027203D01*
X172630091Y-101031873D01*
X172598333Y-101072158D01*
X172595301Y-101080792D01*
X172589975Y-101088245D01*
X172575923Y-101135233D01*
X172575288Y-101137355D01*
X172573453Y-101143003D01*
X172559603Y-101182442D01*
X172556471Y-101191362D01*
X172555989Y-101196927D01*
X172555989Y-101199635D01*
X172555875Y-101202269D01*
X172555846Y-101202367D01*
X172555682Y-101202360D01*
X172555638Y-101203064D01*
X172553776Y-101209289D01*
X172555388Y-101250315D01*
X172555892Y-101263146D01*
X172555989Y-101268093D01*
X172555989Y-101962127D01*
X172535987Y-102030248D01*
X172519084Y-102051222D01*
X171532511Y-103037795D01*
X171470199Y-103071821D01*
X171443416Y-103074700D01*
X170971000Y-103074700D01*
X170902879Y-103054698D01*
X170856386Y-103001042D01*
X170845000Y-102948700D01*
X170845000Y-102167600D01*
X170865002Y-102099479D01*
X170918658Y-102052986D01*
X170971000Y-102041600D01*
X171249885Y-102041600D01*
X171265124Y-102037125D01*
X171266329Y-102035735D01*
X171268000Y-102028052D01*
X171268000Y-102023484D01*
X171522000Y-102023484D01*
X171526475Y-102038723D01*
X171527865Y-102039928D01*
X171535548Y-102041599D01*
X171963828Y-102041599D01*
X171976088Y-102040391D01*
X172031931Y-102029285D01*
X172054427Y-102019967D01*
X172117808Y-101977617D01*
X172135017Y-101960408D01*
X172177368Y-101897025D01*
X172186684Y-101874534D01*
X172197793Y-101818685D01*
X172199000Y-101806430D01*
X172199000Y-101032715D01*
X172194525Y-101017476D01*
X172193135Y-101016271D01*
X172185452Y-101014600D01*
X171540115Y-101014600D01*
X171524876Y-101019075D01*
X171523671Y-101020465D01*
X171522000Y-101028148D01*
X171522000Y-102023484D01*
X171268000Y-102023484D01*
X171268000Y-100742485D01*
X171522000Y-100742485D01*
X171526475Y-100757724D01*
X171527865Y-100758929D01*
X171535548Y-100760600D01*
X172180884Y-100760600D01*
X172196123Y-100756125D01*
X172197328Y-100754735D01*
X172198999Y-100747052D01*
X172198999Y-99968772D01*
X172197791Y-99956512D01*
X172186685Y-99900669D01*
X172177367Y-99878173D01*
X172135017Y-99814792D01*
X172117808Y-99797583D01*
X172054425Y-99755232D01*
X172031934Y-99745916D01*
X171976085Y-99734807D01*
X171963830Y-99733600D01*
X171540115Y-99733600D01*
X171524876Y-99738075D01*
X171523671Y-99739465D01*
X171522000Y-99747148D01*
X171522000Y-100742485D01*
X171268000Y-100742485D01*
X171268000Y-99751716D01*
X171263525Y-99736476D01*
X171262402Y-99735503D01*
X171224019Y-99675776D01*
X171224019Y-99604780D01*
X171262403Y-99545054D01*
X171305982Y-99520445D01*
X171310188Y-99519078D01*
X171319984Y-99517527D01*
X171436974Y-99457918D01*
X171529818Y-99365074D01*
X171589427Y-99248084D01*
X171604800Y-99151023D01*
X171604799Y-98935285D01*
X171624801Y-98867165D01*
X171641704Y-98846190D01*
X172408489Y-98079405D01*
X172470801Y-98045379D01*
X172497584Y-98042500D01*
X172879501Y-98042500D01*
X172947622Y-98062502D01*
G37*
%TD.AperFunction*%
%TA.AperFunction,Conductor*%
G36*
X160559698Y-95054142D02*
G01*
X160559699Y-95054134D01*
X160633933Y-95068900D01*
X160933951Y-95068900D01*
X161234066Y-95068899D01*
X161308301Y-95054134D01*
X161309136Y-95058334D01*
X161356324Y-95053243D01*
X161359680Y-95054228D01*
X161359699Y-95054134D01*
X161433933Y-95068900D01*
X161451665Y-95068900D01*
X161830854Y-95068899D01*
X161898973Y-95088901D01*
X161945466Y-95142556D01*
X161955571Y-95212830D01*
X161933940Y-95267350D01*
X161902950Y-95311444D01*
X161877339Y-95377134D01*
X161860700Y-95419811D01*
X161845406Y-95459037D01*
X161844414Y-95466570D01*
X161844414Y-95466571D01*
X161826450Y-95603024D01*
X161824729Y-95616096D01*
X161829726Y-95661355D01*
X161841110Y-95764467D01*
X161842113Y-95773553D01*
X161844723Y-95780684D01*
X161844723Y-95780686D01*
X161884457Y-95889264D01*
X161896553Y-95922319D01*
X161900789Y-95928622D01*
X161900789Y-95928623D01*
X161970135Y-96031820D01*
X161984908Y-96053805D01*
X161990527Y-96058918D01*
X161990528Y-96058919D01*
X162088599Y-96148156D01*
X162102076Y-96160419D01*
X162241293Y-96236008D01*
X162394522Y-96276207D01*
X162478477Y-96277526D01*
X162545319Y-96278576D01*
X162545322Y-96278576D01*
X162552916Y-96278695D01*
X162707332Y-96243329D01*
X162798428Y-96197513D01*
X162842072Y-96175563D01*
X162842075Y-96175561D01*
X162848855Y-96172151D01*
X162854626Y-96167222D01*
X162854629Y-96167220D01*
X162963536Y-96074204D01*
X162963536Y-96074203D01*
X162969314Y-96069269D01*
X163061755Y-95940624D01*
X163120842Y-95793641D01*
X163127932Y-95743821D01*
X163142581Y-95640891D01*
X163142581Y-95640888D01*
X163143162Y-95636807D01*
X163143307Y-95623000D01*
X163140221Y-95597494D01*
X163138750Y-95585342D01*
X163124276Y-95465733D01*
X163068280Y-95317546D01*
X163033037Y-95266267D01*
X163010937Y-95198798D01*
X163028823Y-95130091D01*
X163081014Y-95081960D01*
X163136877Y-95068900D01*
X163496671Y-95068899D01*
X163603500Y-95068899D01*
X163671621Y-95088901D01*
X163718114Y-95142556D01*
X163729500Y-95194899D01*
X163729501Y-95484446D01*
X163729501Y-95764466D01*
X163738914Y-95811790D01*
X163744266Y-95838701D01*
X163740066Y-95839536D01*
X163745157Y-95886724D01*
X163744172Y-95890080D01*
X163744266Y-95890099D01*
X163729500Y-95964333D01*
X163729501Y-96564466D01*
X163741631Y-96625451D01*
X163744266Y-96638701D01*
X163740066Y-96639536D01*
X163745157Y-96686724D01*
X163744172Y-96690080D01*
X163744266Y-96690099D01*
X163729500Y-96764333D01*
X163729501Y-97063392D01*
X163729501Y-97184858D01*
X163709499Y-97252978D01*
X163655844Y-97299472D01*
X163585570Y-97309576D01*
X163561938Y-97303424D01*
X163558274Y-97301484D01*
X163404633Y-97262892D01*
X163397034Y-97262852D01*
X163397033Y-97262852D01*
X163331181Y-97262507D01*
X163246221Y-97262062D01*
X163238841Y-97263834D01*
X163238839Y-97263834D01*
X163099563Y-97297271D01*
X163099560Y-97297272D01*
X163092184Y-97299043D01*
X162951414Y-97371700D01*
X162832039Y-97475838D01*
X162740950Y-97605444D01*
X162717619Y-97665285D01*
X162686630Y-97744769D01*
X162683406Y-97753037D01*
X162682414Y-97760570D01*
X162682414Y-97760571D01*
X162665805Y-97886733D01*
X162662729Y-97910096D01*
X162664106Y-97922564D01*
X162678995Y-98057424D01*
X162680113Y-98067553D01*
X162682723Y-98074684D01*
X162682723Y-98074686D01*
X162731669Y-98208437D01*
X162734553Y-98216319D01*
X162738789Y-98222622D01*
X162738789Y-98222623D01*
X162816364Y-98338066D01*
X162822908Y-98347805D01*
X162828527Y-98352918D01*
X162828528Y-98352919D01*
X162916715Y-98433162D01*
X162940076Y-98454419D01*
X163079293Y-98530008D01*
X163232522Y-98570207D01*
X163316477Y-98571526D01*
X163383319Y-98572576D01*
X163383322Y-98572576D01*
X163390916Y-98572695D01*
X163545332Y-98537329D01*
X163552119Y-98533916D01*
X163559265Y-98531343D01*
X163560262Y-98534112D01*
X163616703Y-98523806D01*
X163682353Y-98550836D01*
X163722967Y-98609068D01*
X163729500Y-98649112D01*
X163729501Y-98810865D01*
X163729501Y-98964466D01*
X163741943Y-99027021D01*
X163744266Y-99038701D01*
X163740066Y-99039536D01*
X163745157Y-99086724D01*
X163744172Y-99090080D01*
X163744266Y-99090099D01*
X163729500Y-99164333D01*
X163729501Y-99450907D01*
X163729501Y-99521658D01*
X163709499Y-99589778D01*
X163655844Y-99636271D01*
X163585570Y-99646376D01*
X163561938Y-99640224D01*
X163558274Y-99638284D01*
X163404633Y-99599692D01*
X163397034Y-99599652D01*
X163397033Y-99599652D01*
X163362926Y-99599473D01*
X163294912Y-99579114D01*
X163248701Y-99525215D01*
X163238501Y-99488612D01*
X163232697Y-99440654D01*
X163225676Y-99382633D01*
X163169680Y-99234446D01*
X163157319Y-99216460D01*
X163084255Y-99110151D01*
X163084254Y-99110149D01*
X163079953Y-99103892D01*
X163056810Y-99083272D01*
X163007721Y-99039536D01*
X162961675Y-98998511D01*
X162821674Y-98924384D01*
X162668033Y-98885792D01*
X162660434Y-98885752D01*
X162660433Y-98885752D01*
X162509621Y-98884962D01*
X162509628Y-98883641D01*
X162447440Y-98872940D01*
X162395088Y-98824984D01*
X162376974Y-98756337D01*
X162378183Y-98742063D01*
X162392581Y-98640894D01*
X162392582Y-98640884D01*
X162393162Y-98636807D01*
X162393231Y-98630265D01*
X162393264Y-98627134D01*
X162393264Y-98627128D01*
X162393307Y-98623000D01*
X162391556Y-98608526D01*
X162387622Y-98576021D01*
X162374276Y-98465733D01*
X162318280Y-98317546D01*
X162280923Y-98263191D01*
X162232855Y-98193251D01*
X162232854Y-98193249D01*
X162228553Y-98186992D01*
X162205282Y-98166258D01*
X162168307Y-98133315D01*
X162110275Y-98081611D01*
X162102889Y-98077700D01*
X161976988Y-98011039D01*
X161976989Y-98011039D01*
X161970274Y-98007484D01*
X161816633Y-97968892D01*
X161809034Y-97968852D01*
X161809033Y-97968852D01*
X161743181Y-97968507D01*
X161658221Y-97968062D01*
X161650841Y-97969834D01*
X161650839Y-97969834D01*
X161511563Y-98003271D01*
X161511560Y-98003272D01*
X161504184Y-98005043D01*
X161363414Y-98077700D01*
X161244039Y-98181838D01*
X161239672Y-98188052D01*
X161239669Y-98188055D01*
X161209241Y-98231350D01*
X161153707Y-98275582D01*
X161106154Y-98284900D01*
X158700082Y-98284900D01*
X158631961Y-98264898D01*
X158605514Y-98239260D01*
X158604278Y-98240349D01*
X158599255Y-98234651D01*
X158594953Y-98228392D01*
X158581403Y-98216319D01*
X158542817Y-98181941D01*
X158476675Y-98123011D01*
X158469289Y-98119100D01*
X158371933Y-98067553D01*
X158336674Y-98048884D01*
X158183033Y-98010292D01*
X158175434Y-98010252D01*
X158175433Y-98010252D01*
X158109581Y-98009907D01*
X158024621Y-98009462D01*
X158017241Y-98011234D01*
X158017239Y-98011234D01*
X157877963Y-98044671D01*
X157877960Y-98044672D01*
X157870584Y-98046443D01*
X157729814Y-98119100D01*
X157610439Y-98223238D01*
X157606072Y-98229451D01*
X157606067Y-98229457D01*
X157604736Y-98231351D01*
X157603413Y-98232405D01*
X157600989Y-98235097D01*
X157600540Y-98234693D01*
X157549202Y-98275583D01*
X157501650Y-98284900D01*
X157464500Y-98284900D01*
X157396379Y-98264898D01*
X157349886Y-98211242D01*
X157338500Y-98158900D01*
X157338499Y-97570523D01*
X157338499Y-97564334D01*
X157323734Y-97490099D01*
X157327934Y-97489264D01*
X157322843Y-97442076D01*
X157323828Y-97438720D01*
X157323734Y-97438701D01*
X157337293Y-97370535D01*
X157338500Y-97364467D01*
X157338499Y-96764334D01*
X157323734Y-96690099D01*
X157327934Y-96689264D01*
X157322843Y-96642076D01*
X157323828Y-96638720D01*
X157323734Y-96638701D01*
X157337293Y-96570535D01*
X157338500Y-96564467D01*
X157338499Y-95964334D01*
X157323734Y-95890099D01*
X157327934Y-95889264D01*
X157322843Y-95842076D01*
X157323828Y-95838720D01*
X157323734Y-95838701D01*
X157337293Y-95770535D01*
X157338500Y-95764467D01*
X157338499Y-95194899D01*
X157358501Y-95126779D01*
X157412157Y-95080286D01*
X157464499Y-95068900D01*
X157933012Y-95068899D01*
X158034066Y-95068899D01*
X158108301Y-95054134D01*
X158109136Y-95058334D01*
X158156324Y-95053243D01*
X158159680Y-95054228D01*
X158159699Y-95054134D01*
X158233933Y-95068900D01*
X158264856Y-95068900D01*
X158720181Y-95068899D01*
X158788301Y-95088901D01*
X158834794Y-95142556D01*
X158845102Y-95211345D01*
X158827539Y-95344753D01*
X158824729Y-95366096D01*
X158831590Y-95428237D01*
X158838056Y-95486803D01*
X158842113Y-95523553D01*
X158844723Y-95530684D01*
X158844723Y-95530686D01*
X158893088Y-95662849D01*
X158896553Y-95672319D01*
X158900789Y-95678622D01*
X158900789Y-95678623D01*
X158980222Y-95796831D01*
X158984908Y-95803805D01*
X158990527Y-95808918D01*
X158990528Y-95808919D01*
X159079744Y-95890099D01*
X159102076Y-95910419D01*
X159241293Y-95986008D01*
X159394522Y-96026207D01*
X159478477Y-96027526D01*
X159545319Y-96028576D01*
X159545322Y-96028576D01*
X159552916Y-96028695D01*
X159707332Y-95993329D01*
X159784941Y-95954296D01*
X159842072Y-95925563D01*
X159842075Y-95925561D01*
X159848855Y-95922151D01*
X159854626Y-95917222D01*
X159854629Y-95917220D01*
X159963536Y-95824204D01*
X159963536Y-95824203D01*
X159969314Y-95819269D01*
X160061755Y-95690624D01*
X160120842Y-95543641D01*
X160129266Y-95484446D01*
X160142581Y-95390891D01*
X160142581Y-95390888D01*
X160143162Y-95386807D01*
X160143307Y-95373000D01*
X160140002Y-95345684D01*
X160124276Y-95215733D01*
X160125878Y-95215539D01*
X160128653Y-95153532D01*
X160169669Y-95095582D01*
X160235504Y-95069005D01*
X160247840Y-95068400D01*
X160427827Y-95068399D01*
X160440088Y-95067191D01*
X160508106Y-95053663D01*
X160508967Y-95057994D01*
X160555772Y-95052988D01*
X160559698Y-95054142D01*
G37*
%TD.AperFunction*%
%TA.AperFunction,Conductor*%
G36*
X171308828Y-93312502D02*
G01*
X171348482Y-93353228D01*
X171362435Y-93376267D01*
X171480021Y-93498031D01*
X171621660Y-93590717D01*
X171780315Y-93649720D01*
X171787296Y-93650651D01*
X171787298Y-93650652D01*
X171941118Y-93671176D01*
X171941122Y-93671176D01*
X171948099Y-93672107D01*
X171955110Y-93671469D01*
X171955114Y-93671469D01*
X172109652Y-93657405D01*
X172116673Y-93656766D01*
X172277659Y-93604458D01*
X172378451Y-93544374D01*
X172417004Y-93521392D01*
X172417006Y-93521391D01*
X172423056Y-93517784D01*
X172512712Y-93432406D01*
X172575836Y-93399915D01*
X172646507Y-93406708D01*
X172690240Y-93436126D01*
X172750021Y-93498031D01*
X172891660Y-93590717D01*
X173050315Y-93649720D01*
X173057296Y-93650651D01*
X173057298Y-93650652D01*
X173211118Y-93671176D01*
X173211122Y-93671176D01*
X173218099Y-93672107D01*
X173225111Y-93671469D01*
X173225115Y-93671469D01*
X173377754Y-93657578D01*
X173447407Y-93671324D01*
X173478268Y-93693964D01*
X173573595Y-93789291D01*
X173607621Y-93851603D01*
X173610500Y-93878386D01*
X173610500Y-94092501D01*
X173590498Y-94160622D01*
X173536842Y-94207115D01*
X173484500Y-94218501D01*
X173234934Y-94218501D01*
X173199182Y-94225612D01*
X173172874Y-94230844D01*
X173172872Y-94230845D01*
X173160699Y-94233266D01*
X173150379Y-94240161D01*
X173150378Y-94240162D01*
X173096346Y-94276266D01*
X173076516Y-94289516D01*
X173020266Y-94373699D01*
X173005500Y-94447933D01*
X173005501Y-95005916D01*
X173005501Y-95518615D01*
X172985499Y-95586736D01*
X172968596Y-95607710D01*
X172002811Y-96573495D01*
X171940499Y-96607521D01*
X171913716Y-96610400D01*
X170644406Y-96610400D01*
X170620459Y-96607851D01*
X170618793Y-96607772D01*
X170608610Y-96605580D01*
X170598268Y-96606804D01*
X170598265Y-96606804D01*
X170575273Y-96609526D01*
X170569332Y-96609877D01*
X170569340Y-96609972D01*
X170564160Y-96610400D01*
X170558962Y-96610400D01*
X170553840Y-96611253D01*
X170553835Y-96611253D01*
X170539913Y-96613571D01*
X170534036Y-96614408D01*
X170527535Y-96615177D01*
X170493483Y-96619207D01*
X170493481Y-96619208D01*
X170483145Y-96620431D01*
X170474896Y-96624392D01*
X170465860Y-96625896D01*
X170456691Y-96630843D01*
X170456689Y-96630844D01*
X170420726Y-96650248D01*
X170415437Y-96652943D01*
X170376401Y-96671688D01*
X170369254Y-96675120D01*
X170364978Y-96678714D01*
X170363038Y-96680654D01*
X170361127Y-96682407D01*
X170361037Y-96682456D01*
X170360925Y-96682333D01*
X170360390Y-96682805D01*
X170354672Y-96685890D01*
X170347605Y-96693535D01*
X170318070Y-96725486D01*
X170314640Y-96729052D01*
X170195395Y-96848297D01*
X170133083Y-96882323D01*
X170062268Y-96877258D01*
X170005432Y-96834711D01*
X169980621Y-96768191D01*
X169980300Y-96759202D01*
X169980300Y-96540730D01*
X169973764Y-96480564D01*
X169936835Y-96382057D01*
X169927444Y-96357005D01*
X169927443Y-96357002D01*
X169924293Y-96348601D01*
X169839774Y-96235826D01*
X169726999Y-96151307D01*
X169718598Y-96148158D01*
X169718597Y-96148157D01*
X169699569Y-96141024D01*
X169642805Y-96098381D01*
X169618106Y-96031820D01*
X169617800Y-96023042D01*
X169617800Y-95924100D01*
X169637802Y-95855979D01*
X169691458Y-95809486D01*
X169743800Y-95798100D01*
X169952156Y-95798100D01*
X169958664Y-95797393D01*
X170005997Y-95792251D01*
X170005998Y-95792251D01*
X170013848Y-95791398D01*
X170021241Y-95788626D01*
X170021243Y-95788626D01*
X170102199Y-95758277D01*
X170149164Y-95740671D01*
X170156343Y-95735291D01*
X170156346Y-95735289D01*
X170253002Y-95662849D01*
X170264804Y-95654004D01*
X170293214Y-95616096D01*
X170346089Y-95545546D01*
X170346091Y-95545543D01*
X170351471Y-95538364D01*
X170402198Y-95403048D01*
X170404411Y-95382682D01*
X170408531Y-95344753D01*
X170408531Y-95344752D01*
X170408900Y-95341356D01*
X170408900Y-94345844D01*
X170407715Y-94334933D01*
X170403051Y-94292003D01*
X170403051Y-94292002D01*
X170402198Y-94284152D01*
X170351471Y-94148836D01*
X170346091Y-94141657D01*
X170346089Y-94141654D01*
X170270185Y-94040376D01*
X170264804Y-94033196D01*
X170236848Y-94012244D01*
X170156346Y-93951911D01*
X170156343Y-93951909D01*
X170149164Y-93946529D01*
X170043183Y-93906799D01*
X170021243Y-93898574D01*
X170021241Y-93898574D01*
X170013848Y-93895802D01*
X170005998Y-93894949D01*
X170005997Y-93894949D01*
X169955553Y-93889469D01*
X169955552Y-93889469D01*
X169952156Y-93889100D01*
X169206644Y-93889100D01*
X169203248Y-93889469D01*
X169203247Y-93889469D01*
X169152803Y-93894949D01*
X169152802Y-93894949D01*
X169144952Y-93895802D01*
X169137559Y-93898574D01*
X169137557Y-93898574D01*
X169115617Y-93906799D01*
X169009636Y-93946529D01*
X169002457Y-93951909D01*
X169002454Y-93951911D01*
X168921952Y-94012244D01*
X168893996Y-94033196D01*
X168888615Y-94040376D01*
X168812711Y-94141654D01*
X168812709Y-94141657D01*
X168807329Y-94148836D01*
X168756602Y-94284152D01*
X168755749Y-94292002D01*
X168755749Y-94292003D01*
X168751085Y-94334933D01*
X168749900Y-94345844D01*
X168749900Y-95341356D01*
X168750269Y-95344752D01*
X168750269Y-95344753D01*
X168754390Y-95382682D01*
X168756602Y-95403048D01*
X168807329Y-95538364D01*
X168812709Y-95545543D01*
X168812711Y-95545546D01*
X168833626Y-95573452D01*
X168858474Y-95639958D01*
X168858800Y-95649017D01*
X168858800Y-96023042D01*
X168838798Y-96091163D01*
X168785142Y-96137656D01*
X168777031Y-96141024D01*
X168758003Y-96148157D01*
X168758002Y-96148158D01*
X168749601Y-96151307D01*
X168636826Y-96235826D01*
X168552307Y-96348601D01*
X168549157Y-96357002D01*
X168549156Y-96357005D01*
X168539765Y-96382057D01*
X168502836Y-96480564D01*
X168496300Y-96540730D01*
X168496300Y-96544416D01*
X168496282Y-96544477D01*
X168496116Y-96547544D01*
X168495393Y-96547505D01*
X168476298Y-96612537D01*
X168422642Y-96659030D01*
X168352368Y-96669134D01*
X168287788Y-96639640D01*
X168281205Y-96633511D01*
X168242278Y-96594584D01*
X168227136Y-96575836D01*
X168226021Y-96574611D01*
X168220371Y-96565860D01*
X168212193Y-96559413D01*
X168212191Y-96559411D01*
X168194000Y-96545071D01*
X168189559Y-96541124D01*
X168189496Y-96541198D01*
X168186830Y-96538939D01*
X168186450Y-96538362D01*
X168182910Y-96535216D01*
X168181856Y-96534162D01*
X168182959Y-96533059D01*
X168148836Y-96481231D01*
X168148764Y-96480564D01*
X168146139Y-96473561D01*
X168102444Y-96357005D01*
X168102443Y-96357002D01*
X168099293Y-96348601D01*
X168014774Y-96235826D01*
X167901999Y-96151307D01*
X167893598Y-96148157D01*
X167893595Y-96148156D01*
X167787593Y-96108418D01*
X167770036Y-96101836D01*
X167709870Y-96095300D01*
X167116730Y-96095300D01*
X167056564Y-96101836D01*
X167001905Y-96122327D01*
X166988250Y-96127446D01*
X166917443Y-96132629D01*
X166855074Y-96098708D01*
X166820944Y-96036453D01*
X166818020Y-96009464D01*
X166818020Y-95869379D01*
X166838022Y-95801258D01*
X166891678Y-95754765D01*
X166961952Y-95744661D01*
X166988246Y-95751396D01*
X167006601Y-95758277D01*
X167087557Y-95788626D01*
X167087559Y-95788626D01*
X167094952Y-95791398D01*
X167102802Y-95792251D01*
X167102803Y-95792251D01*
X167150136Y-95797393D01*
X167156644Y-95798100D01*
X167902156Y-95798100D01*
X167908664Y-95797393D01*
X167955997Y-95792251D01*
X167955998Y-95792251D01*
X167963848Y-95791398D01*
X167971241Y-95788626D01*
X167971243Y-95788626D01*
X168052199Y-95758277D01*
X168099164Y-95740671D01*
X168106343Y-95735291D01*
X168106346Y-95735289D01*
X168203002Y-95662849D01*
X168214804Y-95654004D01*
X168243214Y-95616096D01*
X168296089Y-95545546D01*
X168296091Y-95545543D01*
X168301471Y-95538364D01*
X168352198Y-95403048D01*
X168354411Y-95382682D01*
X168358531Y-95344753D01*
X168358531Y-95344752D01*
X168358900Y-95341356D01*
X168358900Y-94345844D01*
X168357715Y-94334933D01*
X168353051Y-94292003D01*
X168353051Y-94292002D01*
X168352198Y-94284152D01*
X168301471Y-94148836D01*
X168296091Y-94141657D01*
X168296089Y-94141654D01*
X168220185Y-94040376D01*
X168214804Y-94033196D01*
X168121320Y-93963134D01*
X168114015Y-93957659D01*
X168071500Y-93900800D01*
X168066474Y-93829981D01*
X168072673Y-93809837D01*
X168096206Y-93751298D01*
X168096208Y-93751291D01*
X168099042Y-93744241D01*
X168112710Y-93648203D01*
X168120781Y-93591491D01*
X168120781Y-93591488D01*
X168121362Y-93587407D01*
X168121507Y-93573600D01*
X168120733Y-93567199D01*
X168104570Y-93433637D01*
X168116243Y-93363607D01*
X168163925Y-93311005D01*
X168229657Y-93292500D01*
X171240707Y-93292500D01*
X171308828Y-93312502D01*
G37*
%TD.AperFunction*%
%TA.AperFunction,Conductor*%
G36*
X148587049Y-92347502D02*
G01*
X148633542Y-92401158D01*
X148636909Y-92409268D01*
X148639265Y-92415551D01*
X148642507Y-92424199D01*
X148727026Y-92536974D01*
X148839801Y-92621493D01*
X148848202Y-92624643D01*
X148848205Y-92624644D01*
X148916550Y-92650265D01*
X148971764Y-92670964D01*
X149031930Y-92677500D01*
X149176700Y-92677500D01*
X149244821Y-92697502D01*
X149291314Y-92751158D01*
X149302700Y-92803500D01*
X149302700Y-92825261D01*
X149282698Y-92893382D01*
X149265795Y-92914356D01*
X149200874Y-92979277D01*
X149142702Y-93093445D01*
X149127700Y-93188166D01*
X149127700Y-94010616D01*
X149107698Y-94078737D01*
X149090795Y-94099711D01*
X147966546Y-95223960D01*
X147904234Y-95257986D01*
X147877451Y-95260865D01*
X147006446Y-95260866D01*
X146539005Y-95260866D01*
X146503253Y-95267977D01*
X146476945Y-95273209D01*
X146476943Y-95273210D01*
X146464770Y-95275631D01*
X146454450Y-95282526D01*
X146454449Y-95282527D01*
X146400577Y-95318524D01*
X146380587Y-95331881D01*
X146324337Y-95416064D01*
X146311628Y-95479959D01*
X146310735Y-95484446D01*
X146277828Y-95547356D01*
X146216133Y-95582488D01*
X146187156Y-95585865D01*
X142746955Y-95585865D01*
X142723008Y-95583316D01*
X142721342Y-95583237D01*
X142711159Y-95581045D01*
X142700817Y-95582269D01*
X142700814Y-95582269D01*
X142677822Y-95584991D01*
X142671881Y-95585342D01*
X142671889Y-95585437D01*
X142666709Y-95585865D01*
X142661511Y-95585865D01*
X142656389Y-95586718D01*
X142656384Y-95586718D01*
X142642462Y-95589036D01*
X142636585Y-95589873D01*
X142630084Y-95590642D01*
X142596032Y-95594672D01*
X142596030Y-95594673D01*
X142585694Y-95595896D01*
X142577445Y-95599857D01*
X142568409Y-95601361D01*
X142559240Y-95606308D01*
X142559238Y-95606309D01*
X142523275Y-95625713D01*
X142517986Y-95628408D01*
X142491162Y-95641289D01*
X142471803Y-95650585D01*
X142467527Y-95654179D01*
X142465587Y-95656119D01*
X142463676Y-95657872D01*
X142463586Y-95657921D01*
X142463474Y-95657798D01*
X142462939Y-95658270D01*
X142457221Y-95661355D01*
X142450154Y-95669000D01*
X142420619Y-95700951D01*
X142417189Y-95704517D01*
X142188256Y-95933450D01*
X142125944Y-95967476D01*
X142055129Y-95962411D01*
X141998293Y-95919864D01*
X141973482Y-95853344D01*
X141975582Y-95819777D01*
X141979900Y-95798067D01*
X141979899Y-94447934D01*
X141971160Y-94403994D01*
X141967556Y-94385874D01*
X141967555Y-94385872D01*
X141965134Y-94373699D01*
X141908884Y-94289516D01*
X141824701Y-94233266D01*
X141750467Y-94218500D01*
X141744280Y-94218500D01*
X141738117Y-94217893D01*
X141738398Y-94215039D01*
X141682063Y-94198498D01*
X141635570Y-94144842D01*
X141625466Y-94074568D01*
X141654960Y-94009988D01*
X141661089Y-94003405D01*
X141690742Y-93973752D01*
X141753054Y-93939726D01*
X141779837Y-93936847D01*
X142500027Y-93936847D01*
X142523975Y-93939396D01*
X142525640Y-93939475D01*
X142535823Y-93941667D01*
X142546164Y-93940443D01*
X142566788Y-93938002D01*
X142569170Y-93937720D01*
X142575101Y-93937370D01*
X142575093Y-93937275D01*
X142580271Y-93936847D01*
X142585471Y-93936847D01*
X142590600Y-93935993D01*
X142590603Y-93935993D01*
X142604512Y-93933678D01*
X142610390Y-93932841D01*
X142650948Y-93928041D01*
X142650949Y-93928041D01*
X142661288Y-93926817D01*
X142669540Y-93922854D01*
X142678573Y-93921351D01*
X142687742Y-93916404D01*
X142687744Y-93916403D01*
X142723679Y-93897013D01*
X142728972Y-93894316D01*
X142768029Y-93875562D01*
X142768033Y-93875559D01*
X142775179Y-93872128D01*
X142779455Y-93868533D01*
X142781378Y-93866610D01*
X142783310Y-93864838D01*
X142783389Y-93864795D01*
X142783502Y-93864919D01*
X142784042Y-93864443D01*
X142789761Y-93861357D01*
X142798778Y-93851603D01*
X142826363Y-93821761D01*
X142829793Y-93818195D01*
X143264526Y-93383462D01*
X143326838Y-93349436D01*
X143364492Y-93347027D01*
X143374817Y-93347921D01*
X143386422Y-93348926D01*
X143396531Y-93346415D01*
X143406913Y-93345598D01*
X143406963Y-93346238D01*
X143418187Y-93344865D01*
X146187158Y-93344865D01*
X146255279Y-93364867D01*
X146301772Y-93418523D01*
X146310734Y-93446274D01*
X146324337Y-93514666D01*
X146331232Y-93524985D01*
X146331233Y-93524987D01*
X146353489Y-93558294D01*
X146380587Y-93598849D01*
X146464770Y-93655099D01*
X146539004Y-93669865D01*
X147213961Y-93669865D01*
X147889137Y-93669864D01*
X147924889Y-93662753D01*
X147951197Y-93657521D01*
X147951199Y-93657520D01*
X147963372Y-93655099D01*
X147973692Y-93648204D01*
X147973693Y-93648203D01*
X148037239Y-93605742D01*
X148047555Y-93598849D01*
X148083671Y-93544798D01*
X148096910Y-93524985D01*
X148103805Y-93514666D01*
X148118571Y-93440432D01*
X148118570Y-92490299D01*
X148116140Y-92478082D01*
X148122466Y-92407370D01*
X148166019Y-92351302D01*
X148239718Y-92327500D01*
X148518928Y-92327500D01*
X148587049Y-92347502D01*
G37*
%TD.AperFunction*%
%TA.AperFunction,Conductor*%
G36*
X142198165Y-89024667D02*
G01*
X142244658Y-89078323D01*
X142254762Y-89148597D01*
X142225268Y-89213177D01*
X142204903Y-89232016D01*
X142167564Y-89259595D01*
X142167561Y-89259598D01*
X142159990Y-89265190D01*
X142078791Y-89375124D01*
X142033507Y-89504073D01*
X142030500Y-89535885D01*
X142030501Y-90194514D01*
X142030780Y-90197462D01*
X142030780Y-90197471D01*
X142031471Y-90204784D01*
X142033507Y-90226327D01*
X142078791Y-90355276D01*
X142159990Y-90465210D01*
X142269924Y-90546409D01*
X142398873Y-90591693D01*
X142406515Y-90592415D01*
X142406518Y-90592416D01*
X142421421Y-90593824D01*
X142430685Y-90594700D01*
X142454713Y-90594700D01*
X142825615Y-90594699D01*
X142893735Y-90614701D01*
X142914710Y-90631604D01*
X143235711Y-90952605D01*
X143269737Y-91014917D01*
X143264672Y-91085732D01*
X143222125Y-91142568D01*
X143155605Y-91167379D01*
X143146616Y-91167700D01*
X142705130Y-91167700D01*
X142644964Y-91174236D01*
X142624926Y-91181748D01*
X142521405Y-91220556D01*
X142521402Y-91220557D01*
X142513001Y-91223707D01*
X142400226Y-91308226D01*
X142315707Y-91421001D01*
X142312558Y-91429402D01*
X142312557Y-91429403D01*
X142306915Y-91444454D01*
X142264273Y-91501218D01*
X142197711Y-91525917D01*
X142128362Y-91510709D01*
X142078244Y-91460423D01*
X142070951Y-91444452D01*
X142065402Y-91429649D01*
X142056867Y-91414061D01*
X141983198Y-91315763D01*
X141970637Y-91303202D01*
X141872339Y-91229533D01*
X141856753Y-91220999D01*
X141740727Y-91177503D01*
X141725471Y-91173875D01*
X141676624Y-91168569D01*
X141669807Y-91168200D01*
X141471815Y-91168200D01*
X141456576Y-91172675D01*
X141455371Y-91174065D01*
X141453700Y-91181748D01*
X141453700Y-92608084D01*
X141458175Y-92623323D01*
X141459565Y-92624528D01*
X141467248Y-92626199D01*
X141669805Y-92626199D01*
X141676626Y-92625829D01*
X141725473Y-92620524D01*
X141740724Y-92616898D01*
X141856753Y-92573401D01*
X141872339Y-92564867D01*
X141970637Y-92491198D01*
X141983198Y-92478637D01*
X142056867Y-92380339D01*
X142065402Y-92364751D01*
X142070951Y-92349948D01*
X142113592Y-92293183D01*
X142180154Y-92268483D01*
X142249503Y-92283690D01*
X142299621Y-92333976D01*
X142306914Y-92349944D01*
X142315707Y-92373399D01*
X142400226Y-92486174D01*
X142513001Y-92570693D01*
X142521402Y-92573843D01*
X142521405Y-92573844D01*
X142590430Y-92599720D01*
X142647194Y-92642362D01*
X142671894Y-92708923D01*
X142672200Y-92717702D01*
X142672200Y-92850208D01*
X142652198Y-92918329D01*
X142635296Y-92939303D01*
X142433658Y-93140942D01*
X142371346Y-93174967D01*
X142344562Y-93177847D01*
X141624373Y-93177847D01*
X141600425Y-93175298D01*
X141598760Y-93175219D01*
X141588577Y-93173027D01*
X141569390Y-93175298D01*
X141555230Y-93176974D01*
X141549299Y-93177324D01*
X141549307Y-93177419D01*
X141544129Y-93177847D01*
X141538929Y-93177847D01*
X141533800Y-93178701D01*
X141533797Y-93178701D01*
X141519888Y-93181016D01*
X141514010Y-93181853D01*
X141473452Y-93186653D01*
X141473451Y-93186653D01*
X141463112Y-93187877D01*
X141454860Y-93191840D01*
X141445827Y-93193343D01*
X141436658Y-93198290D01*
X141436656Y-93198291D01*
X141400721Y-93217681D01*
X141395429Y-93220378D01*
X141349221Y-93242566D01*
X141344946Y-93246160D01*
X141343021Y-93248085D01*
X141341091Y-93249856D01*
X141341006Y-93249902D01*
X141340894Y-93249779D01*
X141340359Y-93250251D01*
X141334639Y-93253337D01*
X141327572Y-93260982D01*
X141298037Y-93292933D01*
X141294607Y-93296499D01*
X140765184Y-93825922D01*
X140746436Y-93841064D01*
X140745211Y-93842179D01*
X140736460Y-93847829D01*
X140730013Y-93856007D01*
X140730011Y-93856009D01*
X140715671Y-93874200D01*
X140711725Y-93878641D01*
X140711798Y-93878703D01*
X140708439Y-93882667D01*
X140704762Y-93886344D01*
X140693508Y-93902092D01*
X140690002Y-93906762D01*
X140658244Y-93947047D01*
X140655212Y-93955681D01*
X140649886Y-93963134D01*
X140646901Y-93973115D01*
X140635199Y-94012244D01*
X140633364Y-94017892D01*
X140627990Y-94033196D01*
X140616382Y-94066251D01*
X140615900Y-94071816D01*
X140615900Y-94074524D01*
X140615786Y-94077158D01*
X140615757Y-94077256D01*
X140615593Y-94077249D01*
X140615549Y-94077953D01*
X140613687Y-94084178D01*
X140614096Y-94094583D01*
X140612790Y-94104919D01*
X140609554Y-94104510D01*
X140596514Y-94156396D01*
X140544731Y-94204965D01*
X140487917Y-94218501D01*
X140079471Y-94218501D01*
X140011350Y-94198499D01*
X139964857Y-94144843D01*
X139953471Y-94092501D01*
X139953471Y-92177805D01*
X140535201Y-92177805D01*
X140535571Y-92184626D01*
X140540876Y-92233473D01*
X140544502Y-92248724D01*
X140587999Y-92364753D01*
X140596533Y-92380339D01*
X140670202Y-92478637D01*
X140682763Y-92491198D01*
X140781061Y-92564867D01*
X140796647Y-92573401D01*
X140912673Y-92616897D01*
X140927929Y-92620525D01*
X140976776Y-92625831D01*
X140983593Y-92626200D01*
X141181585Y-92626200D01*
X141196824Y-92621725D01*
X141198029Y-92620335D01*
X141199700Y-92612652D01*
X141199700Y-92042315D01*
X141195225Y-92027076D01*
X141193835Y-92025871D01*
X141186152Y-92024200D01*
X140553316Y-92024200D01*
X140538077Y-92028675D01*
X140536872Y-92030065D01*
X140535201Y-92037748D01*
X140535201Y-92177805D01*
X139953471Y-92177805D01*
X139953471Y-91752085D01*
X140535200Y-91752085D01*
X140539675Y-91767324D01*
X140541065Y-91768529D01*
X140548748Y-91770200D01*
X141181585Y-91770200D01*
X141196824Y-91765725D01*
X141198029Y-91764335D01*
X141199700Y-91756652D01*
X141199700Y-91186316D01*
X141195225Y-91171077D01*
X141193835Y-91169872D01*
X141186152Y-91168201D01*
X140983595Y-91168201D01*
X140976774Y-91168571D01*
X140927927Y-91173876D01*
X140912676Y-91177502D01*
X140796647Y-91220999D01*
X140781061Y-91229533D01*
X140682763Y-91303202D01*
X140670202Y-91315763D01*
X140596533Y-91414061D01*
X140587999Y-91429647D01*
X140544503Y-91545673D01*
X140540875Y-91560929D01*
X140535569Y-91609776D01*
X140535200Y-91616593D01*
X140535200Y-91752085D01*
X139953471Y-91752085D01*
X139953471Y-89130665D01*
X139973473Y-89062544D01*
X140027129Y-89016051D01*
X140079471Y-89004665D01*
X142130044Y-89004665D01*
X142198165Y-89024667D01*
G37*
%TD.AperFunction*%
%TA.AperFunction,Conductor*%
G36*
X174980192Y-89024667D02*
G01*
X175026685Y-89078323D01*
X175038071Y-89130665D01*
X175038071Y-94092500D01*
X175018069Y-94160621D01*
X174964413Y-94207114D01*
X174912071Y-94218500D01*
X174495500Y-94218500D01*
X174427379Y-94198498D01*
X174380886Y-94144842D01*
X174369500Y-94092500D01*
X174369500Y-93722920D01*
X174372049Y-93698973D01*
X174372128Y-93697307D01*
X174374320Y-93687124D01*
X174373096Y-93676782D01*
X174373096Y-93676779D01*
X174370374Y-93653787D01*
X174370023Y-93647846D01*
X174369928Y-93647854D01*
X174369500Y-93642674D01*
X174369500Y-93637476D01*
X174366329Y-93618424D01*
X174365492Y-93612547D01*
X174360693Y-93571997D01*
X174360692Y-93571995D01*
X174359469Y-93561659D01*
X174355508Y-93553410D01*
X174354004Y-93544374D01*
X174349056Y-93535203D01*
X174329652Y-93499240D01*
X174326957Y-93493951D01*
X174308212Y-93454915D01*
X174304780Y-93447768D01*
X174301186Y-93443492D01*
X174299246Y-93441552D01*
X174297493Y-93439641D01*
X174297444Y-93439551D01*
X174297567Y-93439439D01*
X174297095Y-93438904D01*
X174294010Y-93433186D01*
X174254413Y-93396583D01*
X174250848Y-93393154D01*
X174012622Y-93154928D01*
X173978596Y-93092616D01*
X173976943Y-93048297D01*
X173992427Y-92938124D01*
X173992428Y-92938116D01*
X173992978Y-92934200D01*
X173993173Y-92920241D01*
X173993219Y-92916962D01*
X173993219Y-92916957D01*
X173993274Y-92913000D01*
X173982600Y-92817840D01*
X173975191Y-92751780D01*
X173975190Y-92751777D01*
X173974406Y-92744784D01*
X173918738Y-92584929D01*
X173829038Y-92441379D01*
X173815988Y-92428237D01*
X173797494Y-92409614D01*
X173754801Y-92366621D01*
X173720994Y-92304191D01*
X173726306Y-92233394D01*
X173757315Y-92186592D01*
X173795167Y-92150546D01*
X173815638Y-92131052D01*
X173819539Y-92125181D01*
X173905410Y-91995935D01*
X173905411Y-91995933D01*
X173909311Y-91990063D01*
X173969420Y-91831824D01*
X173980161Y-91755395D01*
X173992427Y-91668123D01*
X173992427Y-91668118D01*
X173992978Y-91664200D01*
X173993274Y-91643000D01*
X173984883Y-91568194D01*
X173975191Y-91481780D01*
X173975190Y-91481777D01*
X173974406Y-91474784D01*
X173918738Y-91314929D01*
X173868938Y-91235232D01*
X173849802Y-91166862D01*
X173870667Y-91099001D01*
X173905791Y-91063696D01*
X173906810Y-91063015D01*
X173924017Y-91045808D01*
X173966368Y-90982425D01*
X173975684Y-90959934D01*
X173986793Y-90904085D01*
X173988000Y-90891830D01*
X173988000Y-90518115D01*
X173983525Y-90502876D01*
X173982135Y-90501671D01*
X173974452Y-90500000D01*
X173233000Y-90500000D01*
X173164879Y-90479998D01*
X173118386Y-90426342D01*
X173107000Y-90374000D01*
X173107000Y-90227885D01*
X173361000Y-90227885D01*
X173365475Y-90243124D01*
X173366865Y-90244329D01*
X173374548Y-90246000D01*
X173969884Y-90246000D01*
X173985123Y-90241525D01*
X173986328Y-90240135D01*
X173987999Y-90232452D01*
X173987999Y-89854172D01*
X173986791Y-89841912D01*
X173975685Y-89786069D01*
X173966367Y-89763573D01*
X173924017Y-89700192D01*
X173906808Y-89682983D01*
X173843425Y-89640632D01*
X173820934Y-89631316D01*
X173765085Y-89620207D01*
X173752830Y-89619000D01*
X173379115Y-89619000D01*
X173363876Y-89623475D01*
X173362671Y-89624865D01*
X173361000Y-89632548D01*
X173361000Y-90227885D01*
X173107000Y-90227885D01*
X173107000Y-89637116D01*
X173102525Y-89621877D01*
X173101135Y-89620672D01*
X173093452Y-89619001D01*
X172715172Y-89619001D01*
X172702912Y-89620209D01*
X172647069Y-89631315D01*
X172624573Y-89640633D01*
X172561192Y-89682983D01*
X172543985Y-89700190D01*
X172543278Y-89701248D01*
X172541142Y-89703033D01*
X172535206Y-89708969D01*
X172534675Y-89708438D01*
X172488800Y-89746775D01*
X172418357Y-89755622D01*
X172371003Y-89737632D01*
X172296844Y-89690569D01*
X172269442Y-89680812D01*
X172144016Y-89636149D01*
X172144011Y-89636148D01*
X172137381Y-89633787D01*
X172130395Y-89632954D01*
X172130391Y-89632953D01*
X172011287Y-89618751D01*
X171969301Y-89613745D01*
X171962298Y-89614481D01*
X171962297Y-89614481D01*
X171807965Y-89630701D01*
X171807961Y-89630702D01*
X171800957Y-89631438D01*
X171794286Y-89633709D01*
X171647387Y-89683717D01*
X171647384Y-89683718D01*
X171640717Y-89685988D01*
X171634719Y-89689678D01*
X171634717Y-89689679D01*
X171502543Y-89770993D01*
X171502541Y-89770995D01*
X171496544Y-89774684D01*
X171375605Y-89893117D01*
X171283909Y-90035400D01*
X171281498Y-90042025D01*
X171228425Y-90187840D01*
X171228424Y-90187845D01*
X171226015Y-90194463D01*
X171204800Y-90362399D01*
X171221318Y-90530862D01*
X171274748Y-90691479D01*
X171278397Y-90697504D01*
X171339300Y-90798066D01*
X171362435Y-90836267D01*
X171367326Y-90841332D01*
X171367327Y-90841333D01*
X171444142Y-90920877D01*
X171477074Y-90983774D01*
X171470774Y-91054490D01*
X171441663Y-91098427D01*
X171410607Y-91128841D01*
X171375605Y-91163117D01*
X171371794Y-91169031D01*
X171371792Y-91169033D01*
X171333088Y-91229090D01*
X171283909Y-91305400D01*
X171271085Y-91340634D01*
X171228425Y-91457840D01*
X171228424Y-91457845D01*
X171226015Y-91464463D01*
X171204800Y-91632399D01*
X171221318Y-91800862D01*
X171274748Y-91961479D01*
X171278397Y-91967504D01*
X171355436Y-92094710D01*
X171362435Y-92106267D01*
X171367326Y-92111332D01*
X171367327Y-92111333D01*
X171395504Y-92140511D01*
X171434865Y-92181270D01*
X171444142Y-92190877D01*
X171477074Y-92253774D01*
X171470774Y-92324490D01*
X171441663Y-92368427D01*
X171420427Y-92389224D01*
X171375605Y-92433117D01*
X171371793Y-92439032D01*
X171371789Y-92439037D01*
X171348126Y-92475755D01*
X171294412Y-92522180D01*
X171242215Y-92533500D01*
X168420357Y-92533500D01*
X168352236Y-92513498D01*
X168305743Y-92459842D01*
X168295270Y-92422637D01*
X168286637Y-92351302D01*
X168280276Y-92298733D01*
X168224280Y-92150546D01*
X168185872Y-92094662D01*
X168138855Y-92026251D01*
X168138854Y-92026249D01*
X168134553Y-92019992D01*
X168016275Y-91914611D01*
X167878576Y-91841703D01*
X167827733Y-91792151D01*
X167811751Y-91722976D01*
X167835705Y-91656142D01*
X167848440Y-91641254D01*
X168425289Y-91064405D01*
X168487601Y-91030379D01*
X168514384Y-91027500D01*
X169466026Y-91027499D01*
X169585066Y-91027499D01*
X169620818Y-91020388D01*
X169647126Y-91015156D01*
X169647128Y-91015155D01*
X169659301Y-91012734D01*
X169669621Y-91005839D01*
X169669622Y-91005838D01*
X169733168Y-90963377D01*
X169743484Y-90956484D01*
X169799734Y-90872301D01*
X169814500Y-90798067D01*
X169814499Y-89130665D01*
X169834501Y-89062544D01*
X169888157Y-89016051D01*
X169940499Y-89004665D01*
X174912071Y-89004665D01*
X174980192Y-89024667D01*
G37*
%TD.AperFunction*%
%TA.AperFunction,Conductor*%
G36*
X160327621Y-89024667D02*
G01*
X160374114Y-89078323D01*
X160385500Y-89130665D01*
X160385501Y-89965111D01*
X160385501Y-90798066D01*
X160391901Y-90830244D01*
X160396496Y-90853344D01*
X160400266Y-90872301D01*
X160407161Y-90882620D01*
X160407162Y-90882622D01*
X160432047Y-90919864D01*
X160456516Y-90956484D01*
X160540699Y-91012734D01*
X160614933Y-91027500D01*
X160733939Y-91027500D01*
X161685615Y-91027499D01*
X161753736Y-91047501D01*
X161774710Y-91064404D01*
X162788505Y-92078199D01*
X162822531Y-92140511D01*
X162817466Y-92211326D01*
X162802497Y-92239744D01*
X162757321Y-92304023D01*
X162757317Y-92304030D01*
X162752950Y-92310244D01*
X162728946Y-92371811D01*
X162699494Y-92447353D01*
X162695406Y-92457837D01*
X162694414Y-92465370D01*
X162694414Y-92465371D01*
X162676727Y-92599720D01*
X162674729Y-92614896D01*
X162681600Y-92677131D01*
X162689842Y-92751780D01*
X162692113Y-92772353D01*
X162694723Y-92779484D01*
X162694723Y-92779486D01*
X162698790Y-92790599D01*
X162703416Y-92861445D01*
X162669006Y-92923545D01*
X162606484Y-92957184D01*
X162580464Y-92959900D01*
X162250743Y-92959901D01*
X162233934Y-92959901D01*
X162159699Y-92974666D01*
X162158864Y-92970466D01*
X162111676Y-92975557D01*
X162108320Y-92974572D01*
X162108301Y-92974666D01*
X162040135Y-92961107D01*
X162034067Y-92959900D01*
X161734049Y-92959900D01*
X161433934Y-92959901D01*
X161359699Y-92974666D01*
X161358864Y-92970466D01*
X161311676Y-92975557D01*
X161308320Y-92974572D01*
X161308301Y-92974666D01*
X161240135Y-92961107D01*
X161234067Y-92959900D01*
X160934049Y-92959900D01*
X160633934Y-92959901D01*
X160559699Y-92974666D01*
X160558905Y-92970672D01*
X160510941Y-92975820D01*
X160508134Y-92974996D01*
X160508106Y-92975137D01*
X160440085Y-92961607D01*
X160427830Y-92960400D01*
X160279115Y-92960400D01*
X160263876Y-92964875D01*
X160262671Y-92966265D01*
X160261000Y-92973948D01*
X160261000Y-94015400D01*
X160240998Y-94083521D01*
X160187342Y-94130014D01*
X160135000Y-94141400D01*
X160133000Y-94141400D01*
X160064879Y-94121398D01*
X160018386Y-94067742D01*
X160007000Y-94015400D01*
X160007000Y-92978516D01*
X160002525Y-92963277D01*
X160001135Y-92962072D01*
X159993452Y-92960401D01*
X159840172Y-92960401D01*
X159827912Y-92961609D01*
X159759894Y-92975137D01*
X159759033Y-92970806D01*
X159712228Y-92975812D01*
X159708302Y-92974658D01*
X159708301Y-92974666D01*
X159640135Y-92961107D01*
X159634067Y-92959900D01*
X159627880Y-92959900D01*
X159318146Y-92959901D01*
X159039500Y-92959901D01*
X158971379Y-92939899D01*
X158924886Y-92886243D01*
X158913500Y-92833901D01*
X158913500Y-91153499D01*
X158933502Y-91085378D01*
X158987158Y-91038885D01*
X159039500Y-91027499D01*
X159425066Y-91027499D01*
X159460818Y-91020388D01*
X159487126Y-91015156D01*
X159487128Y-91015155D01*
X159499301Y-91012734D01*
X159509621Y-91005839D01*
X159509622Y-91005838D01*
X159573168Y-90963377D01*
X159583484Y-90956484D01*
X159639734Y-90872301D01*
X159654500Y-90798067D01*
X159654499Y-89130665D01*
X159674501Y-89062544D01*
X159728157Y-89016051D01*
X159780499Y-89004665D01*
X160259500Y-89004665D01*
X160327621Y-89024667D01*
G37*
%TD.AperFunction*%
%TA.AperFunction,Conductor*%
G36*
X146213537Y-91534702D02*
G01*
X146234511Y-91551605D01*
X146728677Y-92045771D01*
X146762703Y-92108083D01*
X146757638Y-92178898D01*
X146715091Y-92235734D01*
X146648571Y-92260545D01*
X146639582Y-92260866D01*
X146539005Y-92260866D01*
X146503253Y-92267977D01*
X146476945Y-92273209D01*
X146476943Y-92273210D01*
X146464770Y-92275631D01*
X146454450Y-92282526D01*
X146454449Y-92282527D01*
X146407958Y-92313592D01*
X146380587Y-92331881D01*
X146324337Y-92416064D01*
X146311628Y-92479959D01*
X146310735Y-92484446D01*
X146277828Y-92547356D01*
X146216133Y-92582488D01*
X146187156Y-92585865D01*
X143880350Y-92585865D01*
X143812229Y-92565863D01*
X143765736Y-92512207D01*
X143755632Y-92441933D01*
X143779521Y-92384303D01*
X143782311Y-92380581D01*
X143782312Y-92380578D01*
X143787693Y-92373399D01*
X143790935Y-92364753D01*
X143830595Y-92258958D01*
X143837164Y-92241436D01*
X143843700Y-92181270D01*
X143843700Y-91640700D01*
X143863702Y-91572579D01*
X143917358Y-91526086D01*
X143969700Y-91514700D01*
X146145416Y-91514700D01*
X146213537Y-91534702D01*
G37*
%TD.AperFunction*%
%TD*%
M02*
