%TF.GenerationSoftware,KiCad,Pcbnew,(6.0.4)*%
%TF.CreationDate,2023-01-22T23:07:16+01:00*%
%TF.ProjectId,panelController,70616e65-6c43-46f6-9e74-726f6c6c6572,rev?*%
%TF.SameCoordinates,Original*%
%TF.FileFunction,Legend,Bot*%
%TF.FilePolarity,Positive*%
%FSLAX46Y46*%
G04 Gerber Fmt 4.6, Leading zero omitted, Abs format (unit mm)*
G04 Created by KiCad (PCBNEW (6.0.4)) date 2023-01-22 23:07:16*
%MOMM*%
%LPD*%
G01*
G04 APERTURE LIST*
%ADD10C,1.000000*%
%ADD11R,1.300000X2.000000*%
%ADD12R,1.000000X1.000000*%
%ADD13O,1.000000X1.000000*%
%ADD14R,2.000000X1.300000*%
G04 APERTURE END LIST*
%LPC*%
D10*
%TO.C,J401*%
X146050000Y-110363000D03*
D11*
X146050000Y-110633000D03*
D10*
X148590000Y-110363000D03*
D11*
X148590000Y-110633000D03*
D10*
X151130000Y-110363000D03*
D11*
X151130000Y-110633000D03*
D10*
X153670000Y-110363000D03*
D11*
X153670000Y-110633000D03*
X156210000Y-110633000D03*
D10*
X156210000Y-110363000D03*
D11*
X158750000Y-110633000D03*
D10*
X158750000Y-110363000D03*
X161290000Y-110363000D03*
D11*
X161290000Y-110633000D03*
D10*
X163830000Y-110363000D03*
D11*
X163830000Y-110633000D03*
D10*
X166370000Y-110363000D03*
D11*
X166370000Y-110633000D03*
X168910000Y-110633000D03*
D10*
X168910000Y-110363000D03*
%TD*%
D11*
%TO.C,J403*%
X168910000Y-89773000D03*
D10*
X168910000Y-90043000D03*
X166370000Y-90043000D03*
D11*
X166370000Y-89773000D03*
X163830000Y-89773000D03*
D10*
X163830000Y-90043000D03*
D11*
X161290000Y-89773000D03*
D10*
X161290000Y-90043000D03*
D11*
X158750000Y-89773000D03*
D10*
X158750000Y-90043000D03*
X156210000Y-90043000D03*
D11*
X156210000Y-89773000D03*
X153670000Y-89773000D03*
D10*
X153670000Y-90043000D03*
D11*
X151130000Y-89773000D03*
D10*
X151130000Y-90043000D03*
X148590000Y-90043000D03*
D11*
X148590000Y-89773000D03*
X146050000Y-89773000D03*
D10*
X146050000Y-90043000D03*
%TD*%
D12*
%TO.C,U14*%
X173234000Y-90373000D03*
D13*
X171964000Y-90373000D03*
X173234000Y-91643000D03*
X171964000Y-91643000D03*
X173234000Y-92913000D03*
X171964000Y-92913000D03*
%TD*%
D10*
%TO.C,J12*%
X173990000Y-107830106D03*
D14*
X174260000Y-107823000D03*
X174260000Y-105283000D03*
D10*
X173990000Y-105283000D03*
X173990000Y-102743000D03*
D14*
X174260000Y-102743000D03*
X174260000Y-100203000D03*
D10*
X173990000Y-100203000D03*
D14*
X174260000Y-97663000D03*
D10*
X173990000Y-97663000D03*
X173990000Y-95123000D03*
D14*
X174260000Y-95123000D03*
%TD*%
D10*
%TO.C,J11*%
X140995400Y-95115894D03*
D14*
X140725400Y-95123000D03*
D10*
X140995400Y-97663000D03*
D14*
X140725400Y-97663000D03*
D10*
X140995400Y-100203000D03*
D14*
X140725400Y-100203000D03*
X140725400Y-102743000D03*
D10*
X140995400Y-102743000D03*
D14*
X140725400Y-105283000D03*
D10*
X140995400Y-105283000D03*
X140995400Y-107823000D03*
D14*
X140725400Y-107823000D03*
%TD*%
M02*
