%TF.GenerationSoftware,KiCad,Pcbnew,(6.0.4)*%
%TF.CreationDate,2023-01-22T23:07:16+01:00*%
%TF.ProjectId,panelController,70616e65-6c43-46f6-9e74-726f6c6c6572,rev?*%
%TF.SameCoordinates,Original*%
%TF.FileFunction,Other,Comment*%
%FSLAX46Y46*%
G04 Gerber Fmt 4.6, Leading zero omitted, Abs format (unit mm)*
G04 Created by KiCad (PCBNEW (6.0.4)) date 2023-01-22 23:07:16*
%MOMM*%
%LPD*%
G01*
G04 APERTURE LIST*
%ADD10C,0.030000*%
G04 APERTURE END LIST*
D10*
%TO.C,SW11*%
X169835476Y-102701885D02*
X169635476Y-102701885D01*
X169835476Y-102587600D02*
X169721190Y-102673314D01*
X169635476Y-102587600D02*
X169749761Y-102701885D01*
X169730714Y-102501885D02*
X169730714Y-102435219D01*
X169835476Y-102406647D02*
X169835476Y-102501885D01*
X169635476Y-102501885D01*
X169635476Y-102406647D01*
X169730714Y-102320933D02*
X169730714Y-102254266D01*
X169835476Y-102225695D02*
X169835476Y-102320933D01*
X169635476Y-102320933D01*
X169635476Y-102225695D01*
X169835476Y-102139980D02*
X169635476Y-102139980D01*
X169635476Y-102063790D01*
X169645000Y-102044742D01*
X169654523Y-102035219D01*
X169673571Y-102025695D01*
X169702142Y-102025695D01*
X169721190Y-102035219D01*
X169730714Y-102044742D01*
X169740238Y-102063790D01*
X169740238Y-102139980D01*
X169759285Y-101939980D02*
X169759285Y-101787600D01*
X169635476Y-101654266D02*
X169635476Y-101616171D01*
X169645000Y-101597123D01*
X169664047Y-101578076D01*
X169702142Y-101568552D01*
X169768809Y-101568552D01*
X169806904Y-101578076D01*
X169825952Y-101597123D01*
X169835476Y-101616171D01*
X169835476Y-101654266D01*
X169825952Y-101673314D01*
X169806904Y-101692361D01*
X169768809Y-101701885D01*
X169702142Y-101701885D01*
X169664047Y-101692361D01*
X169645000Y-101673314D01*
X169635476Y-101654266D01*
X169635476Y-101482838D02*
X169797380Y-101482838D01*
X169816428Y-101473314D01*
X169825952Y-101463790D01*
X169835476Y-101444742D01*
X169835476Y-101406647D01*
X169825952Y-101387600D01*
X169816428Y-101378076D01*
X169797380Y-101368552D01*
X169635476Y-101368552D01*
X169635476Y-101301885D02*
X169635476Y-101187600D01*
X169835476Y-101244742D02*
X169635476Y-101244742D01*
X169635476Y-100987600D02*
X169635476Y-100854266D01*
X169835476Y-100987600D01*
X169835476Y-100854266D01*
X169635476Y-100739980D02*
X169635476Y-100701885D01*
X169645000Y-100682838D01*
X169664047Y-100663790D01*
X169702142Y-100654266D01*
X169768809Y-100654266D01*
X169806904Y-100663790D01*
X169825952Y-100682838D01*
X169835476Y-100701885D01*
X169835476Y-100739980D01*
X169825952Y-100759028D01*
X169806904Y-100778076D01*
X169768809Y-100787600D01*
X169702142Y-100787600D01*
X169664047Y-100778076D01*
X169645000Y-100759028D01*
X169635476Y-100739980D01*
X169835476Y-100568552D02*
X169635476Y-100568552D01*
X169835476Y-100454266D01*
X169635476Y-100454266D01*
X169730714Y-100359028D02*
X169730714Y-100292361D01*
X169835476Y-100263790D02*
X169835476Y-100359028D01*
X169635476Y-100359028D01*
X169635476Y-100263790D01*
X169435476Y-102568552D02*
X169235476Y-102568552D01*
X169435476Y-102454266D01*
X169235476Y-102454266D01*
X169435476Y-102330457D02*
X169425952Y-102349504D01*
X169416428Y-102359028D01*
X169397380Y-102368552D01*
X169340238Y-102368552D01*
X169321190Y-102359028D01*
X169311666Y-102349504D01*
X169302142Y-102330457D01*
X169302142Y-102301885D01*
X169311666Y-102282838D01*
X169321190Y-102273314D01*
X169340238Y-102263790D01*
X169397380Y-102263790D01*
X169416428Y-102273314D01*
X169425952Y-102282838D01*
X169435476Y-102301885D01*
X169435476Y-102330457D01*
X169330714Y-101959028D02*
X169330714Y-102025695D01*
X169435476Y-102025695D02*
X169235476Y-102025695D01*
X169235476Y-101930457D01*
X169416428Y-101854266D02*
X169425952Y-101844742D01*
X169435476Y-101854266D01*
X169425952Y-101863790D01*
X169416428Y-101854266D01*
X169435476Y-101854266D01*
X169416428Y-101644742D02*
X169425952Y-101654266D01*
X169435476Y-101682838D01*
X169435476Y-101701885D01*
X169425952Y-101730457D01*
X169406904Y-101749504D01*
X169387857Y-101759028D01*
X169349761Y-101768552D01*
X169321190Y-101768552D01*
X169283095Y-101759028D01*
X169264047Y-101749504D01*
X169245000Y-101730457D01*
X169235476Y-101701885D01*
X169235476Y-101682838D01*
X169245000Y-101654266D01*
X169254523Y-101644742D01*
X169302142Y-101473314D02*
X169435476Y-101473314D01*
X169302142Y-101559028D02*
X169406904Y-101559028D01*
X169425952Y-101549504D01*
X169435476Y-101530457D01*
X169435476Y-101501885D01*
X169425952Y-101482838D01*
X169416428Y-101473314D01*
X169302142Y-101254266D02*
X169302142Y-101178076D01*
X169235476Y-101225695D02*
X169406904Y-101225695D01*
X169425952Y-101216171D01*
X169435476Y-101197123D01*
X169435476Y-101178076D01*
X169435476Y-101111409D02*
X169302142Y-101111409D01*
X169340238Y-101111409D02*
X169321190Y-101101885D01*
X169311666Y-101092361D01*
X169302142Y-101073314D01*
X169302142Y-101054266D01*
X169435476Y-100901885D02*
X169330714Y-100901885D01*
X169311666Y-100911409D01*
X169302142Y-100930457D01*
X169302142Y-100968552D01*
X169311666Y-100987600D01*
X169425952Y-100901885D02*
X169435476Y-100920933D01*
X169435476Y-100968552D01*
X169425952Y-100987600D01*
X169406904Y-100997123D01*
X169387857Y-100997123D01*
X169368809Y-100987600D01*
X169359285Y-100968552D01*
X169359285Y-100920933D01*
X169349761Y-100901885D01*
X169425952Y-100720933D02*
X169435476Y-100739980D01*
X169435476Y-100778076D01*
X169425952Y-100797123D01*
X169416428Y-100806647D01*
X169397380Y-100816171D01*
X169340238Y-100816171D01*
X169321190Y-100806647D01*
X169311666Y-100797123D01*
X169302142Y-100778076D01*
X169302142Y-100739980D01*
X169311666Y-100720933D01*
X169435476Y-100635219D02*
X169235476Y-100635219D01*
X169359285Y-100616171D02*
X169435476Y-100559028D01*
X169302142Y-100559028D02*
X169378333Y-100635219D01*
X169425952Y-100482838D02*
X169435476Y-100463790D01*
X169435476Y-100425695D01*
X169425952Y-100406647D01*
X169406904Y-100397123D01*
X169397380Y-100397123D01*
X169378333Y-100406647D01*
X169368809Y-100425695D01*
X169368809Y-100454266D01*
X169359285Y-100473314D01*
X169340238Y-100482838D01*
X169330714Y-100482838D01*
X169311666Y-100473314D01*
X169302142Y-100454266D01*
X169302142Y-100425695D01*
X169311666Y-100406647D01*
X169435476Y-107568552D02*
X169235476Y-107568552D01*
X169435476Y-107454266D01*
X169235476Y-107454266D01*
X169435476Y-107330457D02*
X169425952Y-107349504D01*
X169416428Y-107359028D01*
X169397380Y-107368552D01*
X169340238Y-107368552D01*
X169321190Y-107359028D01*
X169311666Y-107349504D01*
X169302142Y-107330457D01*
X169302142Y-107301885D01*
X169311666Y-107282838D01*
X169321190Y-107273314D01*
X169340238Y-107263790D01*
X169397380Y-107263790D01*
X169416428Y-107273314D01*
X169425952Y-107282838D01*
X169435476Y-107301885D01*
X169435476Y-107330457D01*
X169330714Y-106959028D02*
X169330714Y-107025695D01*
X169435476Y-107025695D02*
X169235476Y-107025695D01*
X169235476Y-106930457D01*
X169416428Y-106854266D02*
X169425952Y-106844742D01*
X169435476Y-106854266D01*
X169425952Y-106863790D01*
X169416428Y-106854266D01*
X169435476Y-106854266D01*
X169416428Y-106644742D02*
X169425952Y-106654266D01*
X169435476Y-106682838D01*
X169435476Y-106701885D01*
X169425952Y-106730457D01*
X169406904Y-106749504D01*
X169387857Y-106759028D01*
X169349761Y-106768552D01*
X169321190Y-106768552D01*
X169283095Y-106759028D01*
X169264047Y-106749504D01*
X169245000Y-106730457D01*
X169235476Y-106701885D01*
X169235476Y-106682838D01*
X169245000Y-106654266D01*
X169254523Y-106644742D01*
X169302142Y-106473314D02*
X169435476Y-106473314D01*
X169302142Y-106559028D02*
X169406904Y-106559028D01*
X169425952Y-106549504D01*
X169435476Y-106530457D01*
X169435476Y-106501885D01*
X169425952Y-106482838D01*
X169416428Y-106473314D01*
X169302142Y-106254266D02*
X169302142Y-106178076D01*
X169235476Y-106225695D02*
X169406904Y-106225695D01*
X169425952Y-106216171D01*
X169435476Y-106197123D01*
X169435476Y-106178076D01*
X169435476Y-106111409D02*
X169302142Y-106111409D01*
X169340238Y-106111409D02*
X169321190Y-106101885D01*
X169311666Y-106092361D01*
X169302142Y-106073314D01*
X169302142Y-106054266D01*
X169435476Y-105901885D02*
X169330714Y-105901885D01*
X169311666Y-105911409D01*
X169302142Y-105930457D01*
X169302142Y-105968552D01*
X169311666Y-105987600D01*
X169425952Y-105901885D02*
X169435476Y-105920933D01*
X169435476Y-105968552D01*
X169425952Y-105987600D01*
X169406904Y-105997123D01*
X169387857Y-105997123D01*
X169368809Y-105987600D01*
X169359285Y-105968552D01*
X169359285Y-105920933D01*
X169349761Y-105901885D01*
X169425952Y-105720933D02*
X169435476Y-105739980D01*
X169435476Y-105778076D01*
X169425952Y-105797123D01*
X169416428Y-105806647D01*
X169397380Y-105816171D01*
X169340238Y-105816171D01*
X169321190Y-105806647D01*
X169311666Y-105797123D01*
X169302142Y-105778076D01*
X169302142Y-105739980D01*
X169311666Y-105720933D01*
X169435476Y-105635219D02*
X169235476Y-105635219D01*
X169359285Y-105616171D02*
X169435476Y-105559028D01*
X169302142Y-105559028D02*
X169378333Y-105635219D01*
X169425952Y-105482838D02*
X169435476Y-105463790D01*
X169435476Y-105425695D01*
X169425952Y-105406647D01*
X169406904Y-105397123D01*
X169397380Y-105397123D01*
X169378333Y-105406647D01*
X169368809Y-105425695D01*
X169368809Y-105454266D01*
X169359285Y-105473314D01*
X169340238Y-105482838D01*
X169330714Y-105482838D01*
X169311666Y-105473314D01*
X169302142Y-105454266D01*
X169302142Y-105425695D01*
X169311666Y-105406647D01*
X169835476Y-107701885D02*
X169635476Y-107701885D01*
X169835476Y-107587600D02*
X169721190Y-107673314D01*
X169635476Y-107587600D02*
X169749761Y-107701885D01*
X169730714Y-107501885D02*
X169730714Y-107435219D01*
X169835476Y-107406647D02*
X169835476Y-107501885D01*
X169635476Y-107501885D01*
X169635476Y-107406647D01*
X169730714Y-107320933D02*
X169730714Y-107254266D01*
X169835476Y-107225695D02*
X169835476Y-107320933D01*
X169635476Y-107320933D01*
X169635476Y-107225695D01*
X169835476Y-107139980D02*
X169635476Y-107139980D01*
X169635476Y-107063790D01*
X169645000Y-107044742D01*
X169654523Y-107035219D01*
X169673571Y-107025695D01*
X169702142Y-107025695D01*
X169721190Y-107035219D01*
X169730714Y-107044742D01*
X169740238Y-107063790D01*
X169740238Y-107139980D01*
X169759285Y-106939980D02*
X169759285Y-106787600D01*
X169635476Y-106654266D02*
X169635476Y-106616171D01*
X169645000Y-106597123D01*
X169664047Y-106578076D01*
X169702142Y-106568552D01*
X169768809Y-106568552D01*
X169806904Y-106578076D01*
X169825952Y-106597123D01*
X169835476Y-106616171D01*
X169835476Y-106654266D01*
X169825952Y-106673314D01*
X169806904Y-106692361D01*
X169768809Y-106701885D01*
X169702142Y-106701885D01*
X169664047Y-106692361D01*
X169645000Y-106673314D01*
X169635476Y-106654266D01*
X169635476Y-106482838D02*
X169797380Y-106482838D01*
X169816428Y-106473314D01*
X169825952Y-106463790D01*
X169835476Y-106444742D01*
X169835476Y-106406647D01*
X169825952Y-106387600D01*
X169816428Y-106378076D01*
X169797380Y-106368552D01*
X169635476Y-106368552D01*
X169635476Y-106301885D02*
X169635476Y-106187600D01*
X169835476Y-106244742D02*
X169635476Y-106244742D01*
X169635476Y-105987600D02*
X169635476Y-105854266D01*
X169835476Y-105987600D01*
X169835476Y-105854266D01*
X169635476Y-105739980D02*
X169635476Y-105701885D01*
X169645000Y-105682838D01*
X169664047Y-105663790D01*
X169702142Y-105654266D01*
X169768809Y-105654266D01*
X169806904Y-105663790D01*
X169825952Y-105682838D01*
X169835476Y-105701885D01*
X169835476Y-105739980D01*
X169825952Y-105759028D01*
X169806904Y-105778076D01*
X169768809Y-105787600D01*
X169702142Y-105787600D01*
X169664047Y-105778076D01*
X169645000Y-105759028D01*
X169635476Y-105739980D01*
X169835476Y-105568552D02*
X169635476Y-105568552D01*
X169835476Y-105454266D01*
X169635476Y-105454266D01*
X169730714Y-105359028D02*
X169730714Y-105292361D01*
X169835476Y-105263790D02*
X169835476Y-105359028D01*
X169635476Y-105359028D01*
X169635476Y-105263790D01*
%TD*%
M02*
