M48
; DRILL file {KiCad (6.0.4)} date Sun Jan 22 23:07:16 2023
; FORMAT={-:-/ absolute / inch / decimal}
; #@! TF.CreationDate,2023-01-22T23:07:16+01:00
; #@! TF.GenerationSoftware,Kicad,Pcbnew,(6.0.4)
; #@! TF.FileFunction,Plated,1,2,PTH
FMAT,2
INCH
; #@! TA.AperFunction,Plated,PTH,ViaDrill
T1C0.0157
; #@! TA.AperFunction,Plated,PTH,ComponentDrill
T2C0.0276
; #@! TA.AperFunction,Plated,PTH,ComponentDrill
T3C0.0300
; #@! TA.AperFunction,Plated,PTH,ComponentDrill
T4C0.0394
%
G90
G05
T1
X5.532Y-3.664
X5.545Y-3.535
X5.608Y-3.716
X5.609Y-4.089
X5.67Y-3.859
X5.673Y-4.139
X5.727Y-3.93
X5.73Y-3.62
X5.759Y-4.092
X5.784Y-4.183
X5.792Y-4.296
X5.849Y-3.684
X5.852Y-3.95
X5.87Y-3.9988
X5.904Y-3.778
X5.91Y-4.13
X5.957Y-4.086
X5.963Y-3.962
X5.9639Y-3.7647
X5.9639Y-3.8237
X6.0031Y-3.6376
X6.005Y-4.088
X6.026Y-3.963
X6.055Y-4.09
X6.06Y-4.155
X6.1312Y-4.02
X6.14Y-3.658
X6.17Y-4.0133
X6.21Y-3.775
X6.2244Y-3.8844
X6.254Y-4.262
X6.255Y-4.1
X6.2789Y-3.7548
X6.28Y-3.835
X6.28Y-3.955
X6.294Y-3.614
X6.3281Y-3.7647
X6.338Y-3.9809
X6.365Y-4.24
X6.3675Y-3.8828
X6.375Y-3.82
X6.397Y-3.7647
X6.401Y-3.9189
X6.43Y-3.795
X6.43Y-3.855
X6.43Y-3.947
X6.4305Y-3.6465
X6.4876Y-3.6516
X6.5695Y-4.0515
X6.5742Y-3.8356
X6.593Y-3.684
X6.6Y-3.64
X6.6035Y-3.862
X6.6125Y-4.113
X6.6254Y-4.0758
X6.7021Y-4.2863
X6.715Y-3.86
X6.74Y-3.785
X6.7558Y-4.0349
X6.7612Y-4.1289
X6.764Y-3.714
X6.8399Y-4.3257
X6.871Y-3.631
T2
X6.7702Y-3.558
X6.7702Y-3.608
X6.7702Y-3.658
X6.8202Y-3.558
X6.8202Y-3.608
X6.8202Y-3.658
T3
X5.501Y-3.745
X5.501Y-3.845
X5.501Y-3.945
X5.501Y-4.045
X5.501Y-4.145
X5.501Y-4.245
X5.75Y-3.495
X5.75Y-4.395
X5.85Y-3.495
X5.85Y-4.395
X5.95Y-3.495
X5.95Y-4.395
X6.05Y-3.495
X6.05Y-4.395
X6.15Y-3.495
X6.15Y-4.395
X6.25Y-3.495
X6.25Y-4.395
X6.35Y-3.495
X6.35Y-4.395
X6.45Y-3.495
X6.45Y-4.395
X6.55Y-3.495
X6.55Y-4.395
X6.65Y-3.495
X6.65Y-4.395
X6.9Y-3.745
X6.9Y-3.845
X6.9Y-3.945
X6.9Y-4.045
X6.9Y-4.145
X6.9Y-4.245
T4
X5.551Y-3.7447
X5.551Y-3.845
X5.551Y-3.945
X5.551Y-4.045
X5.551Y-4.145
X5.551Y-4.245
X5.75Y-3.545
X5.75Y-4.345
X5.85Y-3.545
X5.85Y-4.345
X5.95Y-3.545
X5.95Y-4.345
X6.05Y-3.545
X6.05Y-4.345
X6.15Y-3.545
X6.15Y-4.345
X6.25Y-3.545
X6.25Y-4.345
X6.35Y-3.545
X6.35Y-4.345
X6.45Y-3.545
X6.45Y-4.345
X6.55Y-3.545
X6.55Y-4.345
X6.65Y-3.545
X6.65Y-4.345
X6.85Y-3.745
X6.85Y-3.845
X6.85Y-3.945
X6.85Y-4.045
X6.85Y-4.145
X6.85Y-4.2453
T0
M30
