%TF.GenerationSoftware,KiCad,Pcbnew,(6.0.4)*%
%TF.CreationDate,2023-01-22T23:07:16+01:00*%
%TF.ProjectId,panelController,70616e65-6c43-46f6-9e74-726f6c6c6572,rev?*%
%TF.SameCoordinates,Original*%
%TF.FileFunction,Copper,L2,Bot*%
%TF.FilePolarity,Positive*%
%FSLAX46Y46*%
G04 Gerber Fmt 4.6, Leading zero omitted, Abs format (unit mm)*
G04 Created by KiCad (PCBNEW (6.0.4)) date 2023-01-22 23:07:16*
%MOMM*%
%LPD*%
G01*
G04 APERTURE LIST*
%TA.AperFunction,ComponentPad*%
%ADD10C,1.000000*%
%TD*%
%TA.AperFunction,ComponentPad*%
%ADD11R,1.300000X2.000000*%
%TD*%
%TA.AperFunction,ComponentPad*%
%ADD12R,1.000000X1.000000*%
%TD*%
%TA.AperFunction,ComponentPad*%
%ADD13O,1.000000X1.000000*%
%TD*%
%TA.AperFunction,CastellatedPad*%
%ADD14C,1.000000*%
%TD*%
%TA.AperFunction,CastellatedPad*%
%ADD15R,2.000000X1.300000*%
%TD*%
%TA.AperFunction,ViaPad*%
%ADD16C,0.800000*%
%TD*%
%TA.AperFunction,Conductor*%
%ADD17C,0.250000*%
%TD*%
G04 APERTURE END LIST*
D10*
%TO.P,J401,1,Pin_1*%
%TO.N,+3V3*%
X146050000Y-110363000D03*
D11*
X146050000Y-110633000D03*
D10*
%TO.P,J401,2,Pin_2*%
%TO.N,GPIO2*%
X148590000Y-110363000D03*
D11*
X148590000Y-110633000D03*
D10*
%TO.P,J401,3,Pin_3*%
%TO.N,GPIO3*%
X151130000Y-110363000D03*
D11*
X151130000Y-110633000D03*
D10*
%TO.P,J401,4,Pin_4*%
%TO.N,GPIO4*%
X153670000Y-110363000D03*
D11*
X153670000Y-110633000D03*
%TO.P,J401,5,Pin_5*%
%TO.N,GPIO5*%
X156210000Y-110633000D03*
D10*
X156210000Y-110363000D03*
D11*
%TO.P,J401,6,Pin_6*%
%TO.N,GPIO6*%
X158750000Y-110633000D03*
D10*
X158750000Y-110363000D03*
%TO.P,J401,7,Pin_7*%
%TO.N,GPIO7*%
X161290000Y-110363000D03*
D11*
X161290000Y-110633000D03*
D10*
%TO.P,J401,8,Pin_8*%
%TO.N,GPIO8*%
X163830000Y-110363000D03*
D11*
X163830000Y-110633000D03*
D10*
%TO.P,J401,9,Pin_9*%
%TO.N,GPIO9*%
X166370000Y-110363000D03*
D11*
X166370000Y-110633000D03*
%TO.P,J401,10,Pin_10*%
%TO.N,GND*%
X168910000Y-110633000D03*
D10*
X168910000Y-110363000D03*
%TD*%
D11*
%TO.P,J403,1,Pin_1*%
%TO.N,GPIO10*%
X168910000Y-89773000D03*
D10*
X168910000Y-90043000D03*
%TO.P,J403,2,Pin_2*%
%TO.N,GPIO11*%
X166370000Y-90043000D03*
D11*
X166370000Y-89773000D03*
%TO.P,J403,3,Pin_3*%
%TO.N,GPIO12*%
X163830000Y-89773000D03*
D10*
X163830000Y-90043000D03*
D11*
%TO.P,J403,4,Pin_4*%
%TO.N,GPIO13*%
X161290000Y-89773000D03*
D10*
X161290000Y-90043000D03*
D11*
%TO.P,J403,5,Pin_5*%
%TO.N,GPIO_A0*%
X158750000Y-89773000D03*
D10*
X158750000Y-90043000D03*
%TO.P,J403,6,Pin_6*%
%TO.N,GPIO_A1*%
X156210000Y-90043000D03*
D11*
X156210000Y-89773000D03*
%TO.P,J403,7,Pin_7*%
%TO.N,GPIO_A2*%
X153670000Y-89773000D03*
D10*
X153670000Y-90043000D03*
D11*
%TO.P,J403,8,Pin_8*%
%TO.N,GPIO_A3*%
X151130000Y-89773000D03*
D10*
X151130000Y-90043000D03*
%TO.P,J403,9,Pin_9*%
%TO.N,SDA*%
X148590000Y-90043000D03*
D11*
X148590000Y-89773000D03*
%TO.P,J403,10,Pin_10*%
%TO.N,SCL*%
X146050000Y-89773000D03*
D10*
X146050000Y-90043000D03*
%TD*%
D12*
%TO.P,U14,1*%
%TO.N,GND*%
X173234000Y-90373000D03*
D13*
%TO.P,U14,2*%
%TO.N,RESET*%
X171964000Y-90373000D03*
%TO.P,U14,3*%
%TO.N,GPIO11*%
X173234000Y-91643000D03*
%TO.P,U14,4*%
%TO.N,GPIO13*%
X171964000Y-91643000D03*
%TO.P,U14,5*%
%TO.N,+5V*%
X173234000Y-92913000D03*
%TO.P,U14,6*%
%TO.N,GPIO12*%
X171964000Y-92913000D03*
%TD*%
D14*
%TO.P,J12,1,Pin_1*%
%TO.N,GND*%
X173990000Y-107830106D03*
D15*
X174260000Y-107823000D03*
%TO.P,J12,2,Pin_2*%
X174260000Y-105283000D03*
D14*
X173990000Y-105283000D03*
%TO.P,J12,3,Pin_3*%
%TO.N,Rx*%
X173990000Y-102743000D03*
D15*
X174260000Y-102743000D03*
%TO.P,J12,4,Pin_4*%
%TO.N,Tx*%
X174260000Y-100203000D03*
D14*
X173990000Y-100203000D03*
D15*
%TO.P,J12,5,Pin_5*%
%TO.N,RESET*%
X174260000Y-97663000D03*
D14*
X173990000Y-97663000D03*
%TO.P,J12,6,Pin_6*%
%TO.N,+5V*%
X173990000Y-95123000D03*
D15*
X174260000Y-95123000D03*
%TD*%
D14*
%TO.P,J11,1,Pin_1*%
%TO.N,+12V*%
X140995400Y-95115894D03*
D15*
X140725400Y-95123000D03*
D14*
%TO.P,J11,2,Pin_2*%
%TO.N,+5V*%
X140995400Y-97663000D03*
D15*
X140725400Y-97663000D03*
D14*
%TO.P,J11,3,Pin_3*%
%TO.N,A*%
X140995400Y-100203000D03*
D15*
X140725400Y-100203000D03*
%TO.P,J11,4,Pin_4*%
%TO.N,B*%
X140725400Y-102743000D03*
D14*
X140995400Y-102743000D03*
D15*
%TO.P,J11,5,Pin_5*%
%TO.N,GND*%
X140725400Y-105283000D03*
D14*
X140995400Y-105283000D03*
%TO.P,J11,6,Pin_6*%
%TO.N,+3V3*%
X140995400Y-107823000D03*
D15*
X140725400Y-107823000D03*
%TD*%
D16*
%TO.N,GND*%
X145465800Y-99822000D03*
X159512000Y-97409000D03*
X163322000Y-96393000D03*
X161925000Y-97028000D03*
X144094200Y-105130600D03*
X151484000Y-95623000D03*
X148564600Y-93573600D03*
X159867600Y-91795600D03*
X158851600Y-108254800D03*
X160734000Y-95623000D03*
X158877000Y-104140000D03*
X151460200Y-100634800D03*
X153797000Y-103886000D03*
X171734000Y-104873000D03*
X142468600Y-103860600D03*
X153060400Y-100660200D03*
X171805600Y-94335600D03*
X157734000Y-95885000D03*
X170234000Y-108873000D03*
X159512000Y-100457000D03*
X171596701Y-102485701D03*
X146913600Y-106248200D03*
X142443200Y-94386400D03*
X147116800Y-109118400D03*
X145542000Y-91948000D03*
X140512800Y-93065600D03*
X151484000Y-97123000D03*
X150114000Y-104902000D03*
X171196000Y-96139000D03*
X146278600Y-103936800D03*
X161671000Y-107696000D03*
X144018000Y-98018600D03*
X174523400Y-92227400D03*
X148640800Y-100330000D03*
X173734000Y-109873000D03*
X140843000Y-89789000D03*
%TO.N,+5V*%
X160984000Y-101114898D03*
X156717905Y-101938902D03*
X166985774Y-97424559D03*
X162484000Y-95623000D03*
X155956000Y-92913200D03*
X149961600Y-95961200D03*
X149098000Y-101568980D03*
%TO.N,GPIO2*%
X155733020Y-102109211D03*
X153924000Y-105537000D03*
%TO.N,A*%
X152527000Y-103835200D03*
%TO.N,B*%
X151307800Y-103784400D03*
%TO.N,GPIO9*%
X166866237Y-102909037D03*
X163322000Y-97917000D03*
%TO.N,GPIO12*%
X167640000Y-92456000D03*
X164784000Y-92749600D03*
%TO.N,GPIO13*%
X163334000Y-92621800D03*
X167462200Y-93573600D03*
%TO.N,Rx*%
X167958100Y-104470200D03*
X162585400Y-99539900D03*
%TO.N,Net-(R11-Pad2)*%
X167728300Y-98093632D03*
X159484000Y-95373000D03*
%TO.N,Tx*%
X163322000Y-100253800D03*
X168284827Y-103525607D03*
%TO.N,SCL*%
X152477605Y-92396128D03*
%TO.N,RESET*%
X158100400Y-98664400D03*
X170561000Y-98044000D03*
X161734000Y-98623000D03*
%TD*%
D17*
%TO.N,+5V*%
X156163714Y-101384711D02*
X156717905Y-101938902D01*
X165184215Y-95623000D02*
X162484000Y-95623000D01*
X160984000Y-101114898D02*
X160714187Y-101384711D01*
X160714187Y-101384711D02*
X157137711Y-101384711D01*
X160984000Y-96445000D02*
X160984000Y-101114898D01*
X156717905Y-101938902D02*
X156717905Y-101804517D01*
X155536289Y-101384711D02*
X150533711Y-101384711D01*
X161798000Y-95631000D02*
X160984000Y-96445000D01*
X155536289Y-101384711D02*
X156163714Y-101384711D01*
X153009600Y-92913200D02*
X149961600Y-95961200D01*
X162484000Y-95623000D02*
X162476000Y-95631000D01*
X150533711Y-101384711D02*
X150349442Y-101568980D01*
X155956000Y-92913200D02*
X153009600Y-92913200D01*
X162476000Y-95631000D02*
X161798000Y-95631000D01*
X156717905Y-101804517D02*
X157137711Y-101384711D01*
X150349442Y-101568980D02*
X149098000Y-101568980D01*
X166985774Y-97424559D02*
X165184215Y-95623000D01*
%TO.N,GPIO2*%
X153924000Y-105537000D02*
X155733020Y-103727980D01*
X155733020Y-103727980D02*
X155733020Y-102109211D01*
%TO.N,A*%
X140995400Y-100203000D02*
X143085880Y-102293480D01*
X143085880Y-102293480D02*
X150985280Y-102293480D01*
X150985280Y-102293480D02*
X152527000Y-103835200D01*
%TO.N,B*%
X140995400Y-102743000D02*
X150266400Y-102743000D01*
X150266400Y-102743000D02*
X151307800Y-103784400D01*
%TO.N,GPIO9*%
X164046511Y-98641511D02*
X163322000Y-97917000D01*
X164046511Y-100089311D02*
X164046511Y-98641511D01*
X166866237Y-102909037D02*
X164046511Y-100089311D01*
%TO.N,GPIO11*%
X167424511Y-91097511D02*
X166370000Y-90043000D01*
X174117000Y-89662000D02*
X173990000Y-89535000D01*
X171447022Y-89535000D02*
X169884511Y-91097511D01*
X174117000Y-91059000D02*
X174117000Y-89662000D01*
X173533000Y-91643000D02*
X174117000Y-91059000D01*
X169884511Y-91097511D02*
X167424511Y-91097511D01*
X173234000Y-91643000D02*
X173533000Y-91643000D01*
X173990000Y-89535000D02*
X171447022Y-89535000D01*
%TO.N,GPIO12*%
X167640000Y-92456000D02*
X167346400Y-92749600D01*
X167346400Y-92749600D02*
X164784000Y-92749600D01*
%TO.N,GPIO13*%
X171247000Y-91643000D02*
X170112193Y-92777807D01*
X167547014Y-93573600D02*
X167462200Y-93573600D01*
X167462200Y-93573600D02*
X164285800Y-93573600D01*
X171964000Y-91643000D02*
X171247000Y-91643000D01*
X170112193Y-92777807D02*
X168342807Y-92777807D01*
X168342807Y-92777807D02*
X167547014Y-93573600D01*
X164285800Y-93573600D02*
X163334000Y-92621800D01*
%TO.N,Rx*%
X162585400Y-100541814D02*
X162585400Y-99539900D01*
X167666611Y-104178711D02*
X167958100Y-104470200D01*
X166475580Y-104178711D02*
X167666611Y-104178711D01*
X166475580Y-104178711D02*
X165666834Y-103369966D01*
X165666834Y-103369966D02*
X165413552Y-103369966D01*
X165413552Y-103369966D02*
X162585400Y-100541814D01*
%TO.N,Net-(R11-Pad2)*%
X166734000Y-94373000D02*
X160484000Y-94373000D01*
X160484000Y-94373000D02*
X159484000Y-95373000D01*
X167728300Y-95367300D02*
X167234000Y-94873000D01*
X167728300Y-98093632D02*
X167728300Y-95367300D01*
X167234000Y-94873000D02*
X166734000Y-94373000D01*
%TO.N,Tx*%
X166566134Y-103633548D02*
X168176886Y-103633548D01*
X163322000Y-100389414D02*
X163322000Y-100253800D01*
X166566134Y-103633548D02*
X163322000Y-100389414D01*
X168176886Y-103633548D02*
X168284827Y-103525607D01*
%TO.N,SCL*%
X151267477Y-91186000D02*
X152477605Y-92396128D01*
X147193000Y-91186000D02*
X149860000Y-91186000D01*
X149860000Y-91186000D02*
X151267477Y-91186000D01*
X146050000Y-90043000D02*
X147193000Y-91186000D01*
%TO.N,RESET*%
X163021897Y-97192489D02*
X163622103Y-97192489D01*
X161544000Y-91694000D02*
X158623000Y-94615000D01*
X166759614Y-100330000D02*
X168275000Y-100330000D01*
X168275000Y-100330000D02*
X170561000Y-98044000D01*
X161734000Y-98623000D02*
X161734000Y-98480386D01*
X161734000Y-98480386D02*
X163021897Y-97192489D01*
X169927010Y-91694000D02*
X161544000Y-91694000D01*
X158623000Y-98141800D02*
X158100400Y-98664400D01*
X171964000Y-90373000D02*
X171248011Y-90373000D01*
X171248011Y-90373000D02*
X169927010Y-91694000D01*
X163622103Y-97192489D02*
X166759614Y-100330000D01*
X158623000Y-94615000D02*
X158623000Y-98141800D01*
%TD*%
%TA.AperFunction,Conductor*%
%TO.N,GND*%
G36*
X174980192Y-89024667D02*
G01*
X175026685Y-89078323D01*
X175038071Y-89130665D01*
X175038071Y-94092500D01*
X175018069Y-94160621D01*
X174964413Y-94207114D01*
X174912071Y-94218500D01*
X173319356Y-94218501D01*
X173234934Y-94218501D01*
X173199182Y-94225612D01*
X173172874Y-94230844D01*
X173172872Y-94230845D01*
X173160699Y-94233266D01*
X173150379Y-94240161D01*
X173150378Y-94240162D01*
X173089985Y-94280516D01*
X173076516Y-94289516D01*
X173020266Y-94373699D01*
X173005500Y-94447933D01*
X173005501Y-95798066D01*
X173020266Y-95872301D01*
X173076516Y-95956484D01*
X173160699Y-96012734D01*
X173234933Y-96027500D01*
X173319329Y-96027500D01*
X174912071Y-96027499D01*
X174980192Y-96047501D01*
X175026685Y-96101157D01*
X175038071Y-96153499D01*
X175038071Y-96632500D01*
X175018069Y-96700621D01*
X174964413Y-96747114D01*
X174912071Y-96758500D01*
X173319356Y-96758501D01*
X173234934Y-96758501D01*
X173199182Y-96765612D01*
X173172874Y-96770844D01*
X173172872Y-96770845D01*
X173160699Y-96773266D01*
X173150379Y-96780161D01*
X173150378Y-96780162D01*
X173101427Y-96812871D01*
X173076516Y-96829516D01*
X173020266Y-96913699D01*
X173005500Y-96987933D01*
X173005501Y-98338066D01*
X173010187Y-98361624D01*
X173016924Y-98395497D01*
X173020266Y-98412301D01*
X173027161Y-98422620D01*
X173027162Y-98422622D01*
X173061007Y-98473273D01*
X173076516Y-98496484D01*
X173160699Y-98552734D01*
X173234933Y-98567500D01*
X173319329Y-98567500D01*
X174912071Y-98567499D01*
X174980192Y-98587501D01*
X175026685Y-98641157D01*
X175038071Y-98693499D01*
X175038071Y-99172500D01*
X175018069Y-99240621D01*
X174964413Y-99287114D01*
X174912071Y-99298500D01*
X173319356Y-99298501D01*
X173234934Y-99298501D01*
X173199182Y-99305612D01*
X173172874Y-99310844D01*
X173172872Y-99310845D01*
X173160699Y-99313266D01*
X173150379Y-99320161D01*
X173150378Y-99320162D01*
X173122114Y-99339048D01*
X173076516Y-99369516D01*
X173020266Y-99453699D01*
X173005500Y-99527933D01*
X173005501Y-100878066D01*
X173020266Y-100952301D01*
X173027161Y-100962621D01*
X173027162Y-100962622D01*
X173062322Y-101015241D01*
X173076516Y-101036484D01*
X173086832Y-101043377D01*
X173148197Y-101084380D01*
X173160699Y-101092734D01*
X173234933Y-101107500D01*
X173319329Y-101107500D01*
X174912071Y-101107499D01*
X174980192Y-101127501D01*
X175026685Y-101181157D01*
X175038071Y-101233499D01*
X175038071Y-101712500D01*
X175018069Y-101780621D01*
X174964413Y-101827114D01*
X174912071Y-101838500D01*
X173319356Y-101838501D01*
X173234934Y-101838501D01*
X173202671Y-101844918D01*
X173172874Y-101850844D01*
X173172872Y-101850845D01*
X173160699Y-101853266D01*
X173150379Y-101860161D01*
X173150378Y-101860162D01*
X173099770Y-101893978D01*
X173076516Y-101909516D01*
X173020266Y-101993699D01*
X173005500Y-102067933D01*
X173005501Y-103418066D01*
X173020266Y-103492301D01*
X173027161Y-103502620D01*
X173027162Y-103502622D01*
X173045283Y-103529741D01*
X173076516Y-103576484D01*
X173160699Y-103632734D01*
X173234933Y-103647500D01*
X173319329Y-103647500D01*
X174912071Y-103647499D01*
X174980192Y-103667501D01*
X175026685Y-103721157D01*
X175038071Y-103773499D01*
X175038071Y-104253000D01*
X175018069Y-104321121D01*
X174964413Y-104367614D01*
X174912071Y-104379000D01*
X174405115Y-104379000D01*
X174389876Y-104383475D01*
X174388671Y-104384865D01*
X174387000Y-104392548D01*
X174387000Y-106168884D01*
X174391475Y-106184123D01*
X174392865Y-106185328D01*
X174400548Y-106186999D01*
X174912071Y-106186999D01*
X174980192Y-106207001D01*
X175026685Y-106260657D01*
X175038071Y-106312999D01*
X175038071Y-106793000D01*
X175018069Y-106861121D01*
X174964413Y-106907614D01*
X174912071Y-106919000D01*
X174405115Y-106919000D01*
X174389876Y-106923475D01*
X174388671Y-106924865D01*
X174387000Y-106932548D01*
X174387000Y-108708884D01*
X174391475Y-108724123D01*
X174392865Y-108725328D01*
X174400548Y-108726999D01*
X174912071Y-108726999D01*
X174980192Y-108747001D01*
X175026685Y-108800657D01*
X175038071Y-108852999D01*
X175038071Y-111265265D01*
X175018069Y-111333386D01*
X174964413Y-111379879D01*
X174912071Y-111391265D01*
X169940000Y-111391265D01*
X169871879Y-111371263D01*
X169825386Y-111317607D01*
X169814000Y-111265265D01*
X169814000Y-110778115D01*
X169809525Y-110762876D01*
X169808135Y-110761671D01*
X169800452Y-110760000D01*
X168024116Y-110760000D01*
X168008877Y-110764475D01*
X168007672Y-110765865D01*
X168006001Y-110773548D01*
X168006001Y-111265265D01*
X167985999Y-111333386D01*
X167932343Y-111379879D01*
X167880001Y-111391265D01*
X167400500Y-111391265D01*
X167332379Y-111371263D01*
X167285886Y-111317607D01*
X167274500Y-111265265D01*
X167274500Y-110487885D01*
X168006000Y-110487885D01*
X168010475Y-110503124D01*
X168011865Y-110504329D01*
X168019548Y-110506000D01*
X168764885Y-110506000D01*
X168780124Y-110501525D01*
X168781329Y-110500135D01*
X168783000Y-110492452D01*
X168783000Y-110487885D01*
X169037000Y-110487885D01*
X169041475Y-110503124D01*
X169042865Y-110504329D01*
X169050548Y-110506000D01*
X169795884Y-110506000D01*
X169811123Y-110501525D01*
X169812328Y-110500135D01*
X169813999Y-110492452D01*
X169813999Y-109614172D01*
X169812791Y-109601912D01*
X169801685Y-109546069D01*
X169792367Y-109523573D01*
X169750017Y-109460192D01*
X169732808Y-109442983D01*
X169669425Y-109400632D01*
X169646934Y-109391316D01*
X169591085Y-109380207D01*
X169578830Y-109379000D01*
X169055115Y-109379000D01*
X169039876Y-109383475D01*
X169038671Y-109384865D01*
X169037000Y-109392548D01*
X169037000Y-110487885D01*
X168783000Y-110487885D01*
X168783000Y-109397116D01*
X168778525Y-109381877D01*
X168777135Y-109380672D01*
X168769452Y-109379001D01*
X168241172Y-109379001D01*
X168228912Y-109380209D01*
X168173069Y-109391315D01*
X168150573Y-109400633D01*
X168087192Y-109442983D01*
X168069983Y-109460192D01*
X168027632Y-109523575D01*
X168018316Y-109546066D01*
X168007207Y-109601915D01*
X168006000Y-109614170D01*
X168006000Y-110487885D01*
X167274500Y-110487885D01*
X167274499Y-109614123D01*
X167274499Y-109607934D01*
X167267388Y-109572182D01*
X167262156Y-109545874D01*
X167262155Y-109545872D01*
X167259734Y-109533699D01*
X167203484Y-109449516D01*
X167119301Y-109393266D01*
X167045067Y-109378500D01*
X166370110Y-109378500D01*
X165694934Y-109378501D01*
X165659182Y-109385612D01*
X165632874Y-109390844D01*
X165632872Y-109390845D01*
X165620699Y-109393266D01*
X165610379Y-109400161D01*
X165610378Y-109400162D01*
X165549985Y-109440516D01*
X165536516Y-109449516D01*
X165480266Y-109533699D01*
X165465500Y-109607933D01*
X165465501Y-110492452D01*
X165465501Y-111265265D01*
X165445499Y-111333386D01*
X165391843Y-111379879D01*
X165339501Y-111391265D01*
X164860500Y-111391265D01*
X164792379Y-111371263D01*
X164745886Y-111317607D01*
X164734500Y-111265265D01*
X164734499Y-109614123D01*
X164734499Y-109607934D01*
X164727388Y-109572182D01*
X164722156Y-109545874D01*
X164722155Y-109545872D01*
X164719734Y-109533699D01*
X164663484Y-109449516D01*
X164579301Y-109393266D01*
X164505067Y-109378500D01*
X163830110Y-109378500D01*
X163154934Y-109378501D01*
X163119182Y-109385612D01*
X163092874Y-109390844D01*
X163092872Y-109390845D01*
X163080699Y-109393266D01*
X163070379Y-109400161D01*
X163070378Y-109400162D01*
X163009985Y-109440516D01*
X162996516Y-109449516D01*
X162940266Y-109533699D01*
X162925500Y-109607933D01*
X162925501Y-110492452D01*
X162925501Y-111265265D01*
X162905499Y-111333386D01*
X162851843Y-111379879D01*
X162799501Y-111391265D01*
X162320500Y-111391265D01*
X162252379Y-111371263D01*
X162205886Y-111317607D01*
X162194500Y-111265265D01*
X162194499Y-109614123D01*
X162194499Y-109607934D01*
X162187388Y-109572182D01*
X162182156Y-109545874D01*
X162182155Y-109545872D01*
X162179734Y-109533699D01*
X162123484Y-109449516D01*
X162039301Y-109393266D01*
X161965067Y-109378500D01*
X161290110Y-109378500D01*
X160614934Y-109378501D01*
X160579182Y-109385612D01*
X160552874Y-109390844D01*
X160552872Y-109390845D01*
X160540699Y-109393266D01*
X160530379Y-109400161D01*
X160530378Y-109400162D01*
X160469985Y-109440516D01*
X160456516Y-109449516D01*
X160400266Y-109533699D01*
X160385500Y-109607933D01*
X160385501Y-110492452D01*
X160385501Y-111265265D01*
X160365499Y-111333386D01*
X160311843Y-111379879D01*
X160259501Y-111391265D01*
X159780500Y-111391265D01*
X159712379Y-111371263D01*
X159665886Y-111317607D01*
X159654500Y-111265265D01*
X159654499Y-109614123D01*
X159654499Y-109607934D01*
X159647388Y-109572182D01*
X159642156Y-109545874D01*
X159642155Y-109545872D01*
X159639734Y-109533699D01*
X159583484Y-109449516D01*
X159499301Y-109393266D01*
X159425067Y-109378500D01*
X158750110Y-109378500D01*
X158074934Y-109378501D01*
X158039182Y-109385612D01*
X158012874Y-109390844D01*
X158012872Y-109390845D01*
X158000699Y-109393266D01*
X157990379Y-109400161D01*
X157990378Y-109400162D01*
X157929985Y-109440516D01*
X157916516Y-109449516D01*
X157860266Y-109533699D01*
X157845500Y-109607933D01*
X157845501Y-110492452D01*
X157845501Y-111265265D01*
X157825499Y-111333386D01*
X157771843Y-111379879D01*
X157719501Y-111391265D01*
X157240500Y-111391265D01*
X157172379Y-111371263D01*
X157125886Y-111317607D01*
X157114500Y-111265265D01*
X157114499Y-109614123D01*
X157114499Y-109607934D01*
X157107388Y-109572182D01*
X157102156Y-109545874D01*
X157102155Y-109545872D01*
X157099734Y-109533699D01*
X157043484Y-109449516D01*
X156959301Y-109393266D01*
X156885067Y-109378500D01*
X156210110Y-109378500D01*
X155534934Y-109378501D01*
X155499182Y-109385612D01*
X155472874Y-109390844D01*
X155472872Y-109390845D01*
X155460699Y-109393266D01*
X155450379Y-109400161D01*
X155450378Y-109400162D01*
X155389985Y-109440516D01*
X155376516Y-109449516D01*
X155320266Y-109533699D01*
X155305500Y-109607933D01*
X155305501Y-110492452D01*
X155305501Y-111265265D01*
X155285499Y-111333386D01*
X155231843Y-111379879D01*
X155179501Y-111391265D01*
X154700500Y-111391265D01*
X154632379Y-111371263D01*
X154585886Y-111317607D01*
X154574500Y-111265265D01*
X154574499Y-109614123D01*
X154574499Y-109607934D01*
X154567388Y-109572182D01*
X154562156Y-109545874D01*
X154562155Y-109545872D01*
X154559734Y-109533699D01*
X154503484Y-109449516D01*
X154419301Y-109393266D01*
X154345067Y-109378500D01*
X153670110Y-109378500D01*
X152994934Y-109378501D01*
X152959182Y-109385612D01*
X152932874Y-109390844D01*
X152932872Y-109390845D01*
X152920699Y-109393266D01*
X152910379Y-109400161D01*
X152910378Y-109400162D01*
X152849985Y-109440516D01*
X152836516Y-109449516D01*
X152780266Y-109533699D01*
X152765500Y-109607933D01*
X152765501Y-110492452D01*
X152765501Y-111265265D01*
X152745499Y-111333386D01*
X152691843Y-111379879D01*
X152639501Y-111391265D01*
X152160500Y-111391265D01*
X152092379Y-111371263D01*
X152045886Y-111317607D01*
X152034500Y-111265265D01*
X152034499Y-109614123D01*
X152034499Y-109607934D01*
X152027388Y-109572182D01*
X152022156Y-109545874D01*
X152022155Y-109545872D01*
X152019734Y-109533699D01*
X151963484Y-109449516D01*
X151879301Y-109393266D01*
X151805067Y-109378500D01*
X151130110Y-109378500D01*
X150454934Y-109378501D01*
X150419182Y-109385612D01*
X150392874Y-109390844D01*
X150392872Y-109390845D01*
X150380699Y-109393266D01*
X150370379Y-109400161D01*
X150370378Y-109400162D01*
X150309985Y-109440516D01*
X150296516Y-109449516D01*
X150240266Y-109533699D01*
X150225500Y-109607933D01*
X150225501Y-110492452D01*
X150225501Y-111265265D01*
X150205499Y-111333386D01*
X150151843Y-111379879D01*
X150099501Y-111391265D01*
X149620500Y-111391265D01*
X149552379Y-111371263D01*
X149505886Y-111317607D01*
X149494500Y-111265265D01*
X149494499Y-109614123D01*
X149494499Y-109607934D01*
X149487388Y-109572182D01*
X149482156Y-109545874D01*
X149482155Y-109545872D01*
X149479734Y-109533699D01*
X149423484Y-109449516D01*
X149339301Y-109393266D01*
X149265067Y-109378500D01*
X148590110Y-109378500D01*
X147914934Y-109378501D01*
X147879182Y-109385612D01*
X147852874Y-109390844D01*
X147852872Y-109390845D01*
X147840699Y-109393266D01*
X147830379Y-109400161D01*
X147830378Y-109400162D01*
X147769985Y-109440516D01*
X147756516Y-109449516D01*
X147700266Y-109533699D01*
X147685500Y-109607933D01*
X147685501Y-110492452D01*
X147685501Y-111265265D01*
X147665499Y-111333386D01*
X147611843Y-111379879D01*
X147559501Y-111391265D01*
X147080500Y-111391265D01*
X147012379Y-111371263D01*
X146965886Y-111317607D01*
X146954500Y-111265265D01*
X146954499Y-109614123D01*
X146954499Y-109607934D01*
X146947388Y-109572182D01*
X146942156Y-109545874D01*
X146942155Y-109545872D01*
X146939734Y-109533699D01*
X146883484Y-109449516D01*
X146799301Y-109393266D01*
X146725067Y-109378500D01*
X146050110Y-109378500D01*
X145374934Y-109378501D01*
X145339182Y-109385612D01*
X145312874Y-109390844D01*
X145312872Y-109390845D01*
X145300699Y-109393266D01*
X145290379Y-109400161D01*
X145290378Y-109400162D01*
X145229985Y-109440516D01*
X145216516Y-109449516D01*
X145160266Y-109533699D01*
X145145500Y-109607933D01*
X145145501Y-110492452D01*
X145145501Y-111265265D01*
X145125499Y-111333386D01*
X145071843Y-111379879D01*
X145019501Y-111391265D01*
X140079471Y-111391265D01*
X140011350Y-111371263D01*
X139964857Y-111317607D01*
X139953471Y-111265265D01*
X139953471Y-108853500D01*
X139973473Y-108785379D01*
X140027129Y-108738886D01*
X140079471Y-108727500D01*
X141666332Y-108727499D01*
X141750466Y-108727499D01*
X141786218Y-108720388D01*
X141812526Y-108715156D01*
X141812528Y-108715155D01*
X141824701Y-108712734D01*
X141835021Y-108705839D01*
X141835022Y-108705838D01*
X141898568Y-108663377D01*
X141908884Y-108656484D01*
X141965134Y-108572301D01*
X141979900Y-108498067D01*
X141979900Y-108491828D01*
X173006001Y-108491828D01*
X173007209Y-108504088D01*
X173018315Y-108559931D01*
X173027633Y-108582427D01*
X173069983Y-108645808D01*
X173087192Y-108663017D01*
X173150575Y-108705368D01*
X173173066Y-108714684D01*
X173228915Y-108725793D01*
X173241170Y-108727000D01*
X174114885Y-108727000D01*
X174130124Y-108722525D01*
X174131329Y-108721135D01*
X174133000Y-108713452D01*
X174133000Y-107968115D01*
X174128525Y-107952876D01*
X174127135Y-107951671D01*
X174119452Y-107950000D01*
X173024116Y-107950000D01*
X173008877Y-107954475D01*
X173007672Y-107955865D01*
X173006001Y-107963548D01*
X173006001Y-108491828D01*
X141979900Y-108491828D01*
X141979899Y-107677885D01*
X173006000Y-107677885D01*
X173010475Y-107693124D01*
X173011865Y-107694329D01*
X173019548Y-107696000D01*
X174114885Y-107696000D01*
X174130124Y-107691525D01*
X174131329Y-107690135D01*
X174133000Y-107682452D01*
X174133000Y-106937116D01*
X174128525Y-106921877D01*
X174127135Y-106920672D01*
X174119452Y-106919001D01*
X173241172Y-106919001D01*
X173228912Y-106920209D01*
X173173069Y-106931315D01*
X173150573Y-106940633D01*
X173087192Y-106982983D01*
X173069983Y-107000192D01*
X173027632Y-107063575D01*
X173018316Y-107086066D01*
X173007207Y-107141915D01*
X173006000Y-107154170D01*
X173006000Y-107677885D01*
X141979899Y-107677885D01*
X141979899Y-107147934D01*
X141965134Y-107073699D01*
X141908884Y-106989516D01*
X141824701Y-106933266D01*
X141750467Y-106918500D01*
X141666359Y-106918500D01*
X140079471Y-106918501D01*
X140011350Y-106898499D01*
X139964857Y-106844843D01*
X139953471Y-106792501D01*
X139953471Y-106313000D01*
X139973473Y-106244879D01*
X140027129Y-106198386D01*
X140079471Y-106187000D01*
X140580285Y-106187000D01*
X140595524Y-106182525D01*
X140596729Y-106181135D01*
X140598400Y-106173452D01*
X140598400Y-106168884D01*
X140852400Y-106168884D01*
X140856875Y-106184123D01*
X140858265Y-106185328D01*
X140865948Y-106186999D01*
X141744228Y-106186999D01*
X141756488Y-106185791D01*
X141812331Y-106174685D01*
X141834827Y-106165367D01*
X141898208Y-106123017D01*
X141915417Y-106105808D01*
X141957768Y-106042425D01*
X141967084Y-106019934D01*
X141978193Y-105964085D01*
X141979400Y-105951830D01*
X141979400Y-105428115D01*
X141974925Y-105412876D01*
X141973535Y-105411671D01*
X141965852Y-105410000D01*
X140870515Y-105410000D01*
X140855276Y-105414475D01*
X140854071Y-105415865D01*
X140852400Y-105423548D01*
X140852400Y-106168884D01*
X140598400Y-106168884D01*
X140598400Y-105137885D01*
X140852400Y-105137885D01*
X140856875Y-105153124D01*
X140858265Y-105154329D01*
X140865948Y-105156000D01*
X141961284Y-105156000D01*
X141976523Y-105151525D01*
X141977728Y-105150135D01*
X141979399Y-105142452D01*
X141979399Y-104614172D01*
X141978191Y-104601912D01*
X141967085Y-104546069D01*
X141957767Y-104523573D01*
X141915417Y-104460192D01*
X141898208Y-104442983D01*
X141834825Y-104400632D01*
X141812334Y-104391316D01*
X141756485Y-104380207D01*
X141744230Y-104379000D01*
X140870515Y-104379000D01*
X140855276Y-104383475D01*
X140854071Y-104384865D01*
X140852400Y-104392548D01*
X140852400Y-105137885D01*
X140598400Y-105137885D01*
X140598400Y-104397116D01*
X140593925Y-104381877D01*
X140592535Y-104380672D01*
X140584852Y-104379001D01*
X140079471Y-104379001D01*
X140011350Y-104358999D01*
X139964857Y-104305343D01*
X139953471Y-104253001D01*
X139953471Y-103773500D01*
X139973473Y-103705379D01*
X140027129Y-103658886D01*
X140079471Y-103647500D01*
X141666332Y-103647499D01*
X141750466Y-103647499D01*
X141786218Y-103640388D01*
X141812526Y-103635156D01*
X141812528Y-103635155D01*
X141824701Y-103632734D01*
X141835021Y-103625839D01*
X141835022Y-103625838D01*
X141898568Y-103583377D01*
X141908884Y-103576484D01*
X141965134Y-103492301D01*
X141979900Y-103418067D01*
X141979900Y-103248500D01*
X141999902Y-103180379D01*
X142053558Y-103133886D01*
X142105900Y-103122500D01*
X150057016Y-103122500D01*
X150125137Y-103142502D01*
X150146111Y-103159405D01*
X150618049Y-103631343D01*
X150652075Y-103693655D01*
X150653876Y-103736882D01*
X150648529Y-103777496D01*
X150655969Y-103844882D01*
X150663451Y-103912649D01*
X150665913Y-103934953D01*
X150668523Y-103942084D01*
X150668523Y-103942086D01*
X150717074Y-104074758D01*
X150720353Y-104083719D01*
X150724589Y-104090022D01*
X150724589Y-104090023D01*
X150756814Y-104137978D01*
X150808708Y-104215205D01*
X150814327Y-104220318D01*
X150814328Y-104220319D01*
X150916110Y-104312933D01*
X150925876Y-104321819D01*
X151065093Y-104397408D01*
X151218322Y-104437607D01*
X151302277Y-104438926D01*
X151369119Y-104439976D01*
X151369122Y-104439976D01*
X151376716Y-104440095D01*
X151531132Y-104404729D01*
X151622057Y-104358999D01*
X151665872Y-104336963D01*
X151665875Y-104336961D01*
X151672655Y-104333551D01*
X151678426Y-104328622D01*
X151678429Y-104328620D01*
X151787336Y-104235604D01*
X151787336Y-104235603D01*
X151793114Y-104230669D01*
X151797550Y-104224496D01*
X151802685Y-104218911D01*
X151804035Y-104220153D01*
X151852380Y-104182469D01*
X151923083Y-104176023D01*
X151986048Y-104208827D01*
X152003289Y-104229369D01*
X152023666Y-104259694D01*
X152023671Y-104259700D01*
X152027908Y-104266005D01*
X152033527Y-104271118D01*
X152033528Y-104271119D01*
X152105890Y-104336963D01*
X152145076Y-104372619D01*
X152284293Y-104448208D01*
X152437522Y-104488407D01*
X152521477Y-104489726D01*
X152588319Y-104490776D01*
X152588322Y-104490776D01*
X152595916Y-104490895D01*
X152750332Y-104455529D01*
X152842987Y-104408929D01*
X152885072Y-104387763D01*
X152885075Y-104387761D01*
X152891855Y-104384351D01*
X152897626Y-104379422D01*
X152897629Y-104379420D01*
X153006536Y-104286404D01*
X153006536Y-104286403D01*
X153012314Y-104281469D01*
X153104755Y-104152824D01*
X153163842Y-104005841D01*
X153186162Y-103849007D01*
X153186307Y-103835200D01*
X153167276Y-103677933D01*
X153111280Y-103529746D01*
X153038696Y-103424135D01*
X153025855Y-103405451D01*
X153025854Y-103405449D01*
X153021553Y-103399192D01*
X152903275Y-103293811D01*
X152763274Y-103219684D01*
X152609633Y-103181092D01*
X152602034Y-103181052D01*
X152602033Y-103181052D01*
X152541626Y-103180736D01*
X152460335Y-103180310D01*
X152392321Y-103159952D01*
X152371901Y-103143407D01*
X151291758Y-102063264D01*
X151276616Y-102044516D01*
X151275501Y-102043291D01*
X151269851Y-102034540D01*
X151261673Y-102028093D01*
X151261671Y-102028091D01*
X151243480Y-102013751D01*
X151239039Y-102009805D01*
X151238977Y-102009878D01*
X151235014Y-102006520D01*
X151231336Y-102002842D01*
X151217177Y-101992724D01*
X151173384Y-101936844D01*
X151166754Y-101866158D01*
X151199393Y-101803108D01*
X151260937Y-101767713D01*
X151290437Y-101764211D01*
X154980646Y-101764211D01*
X155048767Y-101784213D01*
X155095260Y-101837869D01*
X155105364Y-101908143D01*
X155098039Y-101935980D01*
X155097187Y-101938165D01*
X155097186Y-101938169D01*
X155094426Y-101945248D01*
X155093434Y-101952781D01*
X155093434Y-101952782D01*
X155077460Y-102074122D01*
X155073749Y-102102307D01*
X155082441Y-102181035D01*
X155089997Y-102249473D01*
X155091133Y-102259764D01*
X155093743Y-102266895D01*
X155093743Y-102266897D01*
X155134839Y-102379197D01*
X155145573Y-102408530D01*
X155149809Y-102414833D01*
X155149809Y-102414834D01*
X155202136Y-102492704D01*
X155233928Y-102540016D01*
X155239547Y-102545129D01*
X155239548Y-102545130D01*
X155312319Y-102611346D01*
X155349242Y-102671986D01*
X155353520Y-102704540D01*
X155353520Y-103518596D01*
X155333518Y-103586717D01*
X155316615Y-103607691D01*
X154078411Y-104845895D01*
X154016099Y-104879921D01*
X153988658Y-104882798D01*
X153848221Y-104882062D01*
X153840841Y-104883834D01*
X153840839Y-104883834D01*
X153701563Y-104917271D01*
X153701560Y-104917272D01*
X153694184Y-104919043D01*
X153553414Y-104991700D01*
X153434039Y-105095838D01*
X153342950Y-105225444D01*
X153285406Y-105373037D01*
X153284414Y-105380570D01*
X153284414Y-105380571D01*
X153278220Y-105427623D01*
X153264729Y-105530096D01*
X153282113Y-105687553D01*
X153336553Y-105836319D01*
X153424908Y-105967805D01*
X153430527Y-105972918D01*
X153430528Y-105972919D01*
X153441903Y-105983269D01*
X153542076Y-106074419D01*
X153681293Y-106150008D01*
X153834522Y-106190207D01*
X153918477Y-106191526D01*
X153985319Y-106192576D01*
X153985322Y-106192576D01*
X153992916Y-106192695D01*
X154147332Y-106157329D01*
X154217742Y-106121917D01*
X154282072Y-106089563D01*
X154282075Y-106089561D01*
X154288855Y-106086151D01*
X154294626Y-106081222D01*
X154294629Y-106081220D01*
X154403536Y-105988204D01*
X154403536Y-105988203D01*
X154409314Y-105983269D01*
X154431907Y-105951828D01*
X173006001Y-105951828D01*
X173007209Y-105964088D01*
X173018315Y-106019931D01*
X173027633Y-106042427D01*
X173069983Y-106105808D01*
X173087192Y-106123017D01*
X173150575Y-106165368D01*
X173173066Y-106174684D01*
X173228915Y-106185793D01*
X173241170Y-106187000D01*
X174114885Y-106187000D01*
X174130124Y-106182525D01*
X174131329Y-106181135D01*
X174133000Y-106173452D01*
X174133000Y-105428115D01*
X174128525Y-105412876D01*
X174127135Y-105411671D01*
X174119452Y-105410000D01*
X173024116Y-105410000D01*
X173008877Y-105414475D01*
X173007672Y-105415865D01*
X173006001Y-105423548D01*
X173006001Y-105951828D01*
X154431907Y-105951828D01*
X154501755Y-105854624D01*
X154560842Y-105707641D01*
X154583162Y-105550807D01*
X154583307Y-105537000D01*
X154577437Y-105488496D01*
X154589109Y-105418468D01*
X154613429Y-105384265D01*
X154859809Y-105137885D01*
X173006000Y-105137885D01*
X173010475Y-105153124D01*
X173011865Y-105154329D01*
X173019548Y-105156000D01*
X174114885Y-105156000D01*
X174130124Y-105151525D01*
X174131329Y-105150135D01*
X174133000Y-105142452D01*
X174133000Y-104397116D01*
X174128525Y-104381877D01*
X174127135Y-104380672D01*
X174119452Y-104379001D01*
X173241172Y-104379001D01*
X173228912Y-104380209D01*
X173173069Y-104391315D01*
X173150573Y-104400633D01*
X173087192Y-104442983D01*
X173069983Y-104460192D01*
X173027632Y-104523575D01*
X173018316Y-104546066D01*
X173007207Y-104601915D01*
X173006000Y-104614170D01*
X173006000Y-105137885D01*
X154859809Y-105137885D01*
X155963236Y-104034458D01*
X155981984Y-104019316D01*
X155983209Y-104018201D01*
X155991960Y-104012551D01*
X155998407Y-104004373D01*
X155998409Y-104004371D01*
X156012749Y-103986180D01*
X156016695Y-103981739D01*
X156016622Y-103981677D01*
X156019981Y-103977713D01*
X156023658Y-103974036D01*
X156034912Y-103958288D01*
X156038418Y-103953618D01*
X156070176Y-103913333D01*
X156073208Y-103904699D01*
X156078534Y-103897246D01*
X156093223Y-103848130D01*
X156095056Y-103842488D01*
X156109410Y-103801613D01*
X156109410Y-103801612D01*
X156112038Y-103794129D01*
X156112520Y-103788564D01*
X156112520Y-103785856D01*
X156112634Y-103783222D01*
X156112663Y-103783124D01*
X156112827Y-103783131D01*
X156112871Y-103782427D01*
X156114733Y-103776202D01*
X156112617Y-103722345D01*
X156112520Y-103717398D01*
X156112520Y-102703941D01*
X156132522Y-102635820D01*
X156156689Y-102608130D01*
X156212556Y-102560415D01*
X156218334Y-102555480D01*
X156227449Y-102542795D01*
X156283444Y-102499148D01*
X156354148Y-102492704D01*
X156389888Y-102505590D01*
X156475198Y-102551910D01*
X156628427Y-102592109D01*
X156712382Y-102593428D01*
X156779224Y-102594478D01*
X156779227Y-102594478D01*
X156786821Y-102594597D01*
X156941237Y-102559231D01*
X157011647Y-102523819D01*
X157075977Y-102491465D01*
X157075980Y-102491463D01*
X157082760Y-102488053D01*
X157088531Y-102483124D01*
X157088534Y-102483122D01*
X157197441Y-102390106D01*
X157197441Y-102390105D01*
X157203219Y-102385171D01*
X157295660Y-102256526D01*
X157354747Y-102109543D01*
X157370362Y-101999822D01*
X157376486Y-101956793D01*
X157376486Y-101956790D01*
X157377067Y-101952709D01*
X157377212Y-101938902D01*
X157373151Y-101905345D01*
X157384826Y-101835316D01*
X157432508Y-101782715D01*
X157498239Y-101764211D01*
X160660267Y-101764211D01*
X160684215Y-101766760D01*
X160685880Y-101766839D01*
X160696063Y-101769031D01*
X160706404Y-101767807D01*
X160720176Y-101766177D01*
X160729410Y-101765084D01*
X160735341Y-101764734D01*
X160735333Y-101764639D01*
X160740511Y-101764211D01*
X160745711Y-101764211D01*
X160750840Y-101763357D01*
X160750843Y-101763357D01*
X160764752Y-101761042D01*
X160770629Y-101760205D01*
X160771980Y-101760045D01*
X160811556Y-101755361D01*
X160858336Y-101758612D01*
X160894522Y-101768105D01*
X160978477Y-101769424D01*
X161045319Y-101770474D01*
X161045322Y-101770474D01*
X161052916Y-101770593D01*
X161207332Y-101735227D01*
X161277742Y-101699815D01*
X161342072Y-101667461D01*
X161342075Y-101667459D01*
X161348855Y-101664049D01*
X161354626Y-101659120D01*
X161354629Y-101659118D01*
X161463536Y-101566102D01*
X161463536Y-101566101D01*
X161469314Y-101561167D01*
X161561755Y-101432522D01*
X161620842Y-101285539D01*
X161634513Y-101189480D01*
X161642581Y-101132789D01*
X161642581Y-101132786D01*
X161643162Y-101128705D01*
X161643231Y-101122096D01*
X161643264Y-101119032D01*
X161643264Y-101119026D01*
X161643307Y-101114898D01*
X161624276Y-100957631D01*
X161568280Y-100809444D01*
X161551271Y-100784695D01*
X161482855Y-100685149D01*
X161482854Y-100685147D01*
X161478553Y-100678890D01*
X161405681Y-100613963D01*
X161368126Y-100553714D01*
X161363500Y-100519887D01*
X161363500Y-99365802D01*
X161383502Y-99297681D01*
X161437158Y-99251188D01*
X161507432Y-99241084D01*
X161521473Y-99243926D01*
X161637171Y-99274279D01*
X161637175Y-99274280D01*
X161644522Y-99276207D01*
X161730206Y-99277553D01*
X161795320Y-99278576D01*
X161795323Y-99278576D01*
X161802916Y-99278695D01*
X161805187Y-99278175D01*
X161872816Y-99290545D01*
X161924661Y-99339048D01*
X161942054Y-99407881D01*
X161941067Y-99419527D01*
X161927595Y-99521863D01*
X161926129Y-99532996D01*
X161943513Y-99690453D01*
X161946123Y-99697584D01*
X161946123Y-99697586D01*
X161969499Y-99761463D01*
X161997953Y-99839219D01*
X162002189Y-99845522D01*
X162002189Y-99845523D01*
X162047932Y-99913595D01*
X162086308Y-99970705D01*
X162091927Y-99975818D01*
X162091928Y-99975819D01*
X162164699Y-100042035D01*
X162201622Y-100102675D01*
X162205900Y-100135229D01*
X162205900Y-100487894D01*
X162203351Y-100511842D01*
X162203272Y-100513507D01*
X162201080Y-100523690D01*
X162202304Y-100534031D01*
X162205027Y-100557037D01*
X162205377Y-100562968D01*
X162205472Y-100562960D01*
X162205900Y-100568138D01*
X162205900Y-100573338D01*
X162206754Y-100578467D01*
X162206754Y-100578470D01*
X162209069Y-100592379D01*
X162209906Y-100598257D01*
X162214572Y-100637678D01*
X162215930Y-100649155D01*
X162219893Y-100657407D01*
X162221396Y-100666440D01*
X162226343Y-100675609D01*
X162226344Y-100675611D01*
X162245734Y-100711546D01*
X162248431Y-100716839D01*
X162267185Y-100755896D01*
X162267188Y-100755900D01*
X162270619Y-100763046D01*
X162274214Y-100767322D01*
X162276137Y-100769245D01*
X162277909Y-100771177D01*
X162277952Y-100771256D01*
X162277828Y-100771369D01*
X162278304Y-100771909D01*
X162281390Y-100777628D01*
X162316867Y-100810422D01*
X162320986Y-100814230D01*
X162324552Y-100817660D01*
X165107074Y-103600182D01*
X165122216Y-103618930D01*
X165123331Y-103620155D01*
X165128981Y-103628906D01*
X165137159Y-103635353D01*
X165137161Y-103635355D01*
X165155352Y-103649695D01*
X165159793Y-103653641D01*
X165159855Y-103653568D01*
X165163819Y-103656927D01*
X165167496Y-103660604D01*
X165183244Y-103671858D01*
X165187914Y-103675364D01*
X165228199Y-103707122D01*
X165236833Y-103710154D01*
X165244286Y-103715480D01*
X165293402Y-103730169D01*
X165299044Y-103732002D01*
X165339919Y-103746356D01*
X165347403Y-103748984D01*
X165352968Y-103749466D01*
X165355676Y-103749466D01*
X165358310Y-103749580D01*
X165358408Y-103749609D01*
X165358401Y-103749773D01*
X165359105Y-103749817D01*
X165365330Y-103751679D01*
X165419187Y-103749563D01*
X165424134Y-103749466D01*
X165457449Y-103749466D01*
X165525570Y-103769468D01*
X165546544Y-103786370D01*
X166169104Y-104408929D01*
X166184241Y-104427672D01*
X166185359Y-104428901D01*
X166191009Y-104437651D01*
X166199187Y-104444098D01*
X166199189Y-104444100D01*
X166217380Y-104458440D01*
X166221822Y-104462387D01*
X166221884Y-104462314D01*
X166225847Y-104465672D01*
X166229524Y-104469349D01*
X166233753Y-104472371D01*
X166245226Y-104480570D01*
X166249972Y-104484133D01*
X166258399Y-104490776D01*
X166290227Y-104515867D01*
X166298863Y-104518900D01*
X166306315Y-104524225D01*
X166316290Y-104527208D01*
X166316292Y-104527209D01*
X166355440Y-104538916D01*
X166361089Y-104540752D01*
X166401953Y-104555103D01*
X166401954Y-104555103D01*
X166409431Y-104557729D01*
X166414996Y-104558211D01*
X166417703Y-104558211D01*
X166420338Y-104558325D01*
X166420436Y-104558354D01*
X166420429Y-104558518D01*
X166421133Y-104558562D01*
X166427358Y-104560424D01*
X166481215Y-104558308D01*
X166486162Y-104558211D01*
X167205263Y-104558211D01*
X167273384Y-104578213D01*
X167319877Y-104631869D01*
X167323589Y-104640910D01*
X167370653Y-104769519D01*
X167374889Y-104775822D01*
X167374889Y-104775823D01*
X167447470Y-104883834D01*
X167459008Y-104901005D01*
X167464627Y-104906118D01*
X167464628Y-104906119D01*
X167558681Y-104991700D01*
X167576176Y-105007619D01*
X167715393Y-105083208D01*
X167868622Y-105123407D01*
X167952577Y-105124726D01*
X168019419Y-105125776D01*
X168019422Y-105125776D01*
X168027016Y-105125895D01*
X168181432Y-105090529D01*
X168251842Y-105055117D01*
X168316172Y-105022763D01*
X168316175Y-105022761D01*
X168322955Y-105019351D01*
X168328726Y-105014422D01*
X168328729Y-105014420D01*
X168437636Y-104921404D01*
X168437636Y-104921403D01*
X168443414Y-104916469D01*
X168535855Y-104787824D01*
X168594942Y-104640841D01*
X168611749Y-104522747D01*
X168616681Y-104488091D01*
X168616681Y-104488088D01*
X168617262Y-104484007D01*
X168617407Y-104470200D01*
X168616541Y-104463039D01*
X168611140Y-104418411D01*
X168598376Y-104312933D01*
X168571045Y-104240604D01*
X168565677Y-104169812D01*
X168599434Y-104107355D01*
X168632295Y-104083503D01*
X168642898Y-104078170D01*
X168649682Y-104074758D01*
X168655453Y-104069829D01*
X168655456Y-104069827D01*
X168764363Y-103976811D01*
X168764363Y-103976810D01*
X168770141Y-103971876D01*
X168862582Y-103843231D01*
X168921669Y-103696248D01*
X168931689Y-103625839D01*
X168943408Y-103543498D01*
X168943408Y-103543495D01*
X168943989Y-103539414D01*
X168944134Y-103525607D01*
X168925103Y-103368340D01*
X168869107Y-103220153D01*
X168812427Y-103137683D01*
X168783682Y-103095858D01*
X168783681Y-103095856D01*
X168779380Y-103089599D01*
X168763409Y-103075369D01*
X168666773Y-102989271D01*
X168661102Y-102984218D01*
X168653716Y-102980307D01*
X168527815Y-102913646D01*
X168527816Y-102913646D01*
X168521101Y-102910091D01*
X168367460Y-102871499D01*
X168359861Y-102871459D01*
X168359860Y-102871459D01*
X168294008Y-102871114D01*
X168209048Y-102870669D01*
X168201668Y-102872441D01*
X168201666Y-102872441D01*
X168062390Y-102905878D01*
X168062387Y-102905879D01*
X168055011Y-102907650D01*
X167914241Y-102980307D01*
X167794866Y-103084445D01*
X167768120Y-103122500D01*
X167728499Y-103178875D01*
X167672964Y-103223107D01*
X167602332Y-103230292D01*
X167539028Y-103198150D01*
X167503150Y-103136886D01*
X167503654Y-103079760D01*
X167503079Y-103079678D01*
X167503692Y-103075369D01*
X167516511Y-102985296D01*
X167524818Y-102926928D01*
X167524818Y-102926925D01*
X167525399Y-102922844D01*
X167525544Y-102909037D01*
X167506513Y-102751770D01*
X167450517Y-102603583D01*
X167412515Y-102548289D01*
X167365092Y-102479288D01*
X167365091Y-102479286D01*
X167360790Y-102473029D01*
X167242512Y-102367648D01*
X167102511Y-102293521D01*
X166948870Y-102254929D01*
X166941271Y-102254889D01*
X166941270Y-102254889D01*
X166880863Y-102254573D01*
X166799572Y-102254147D01*
X166731558Y-102233789D01*
X166711138Y-102217244D01*
X164462916Y-99969022D01*
X164428890Y-99906710D01*
X164426011Y-99879927D01*
X164426011Y-98837281D01*
X164446013Y-98769160D01*
X164499669Y-98722667D01*
X164569943Y-98712563D01*
X164634523Y-98742057D01*
X164641106Y-98748186D01*
X166453136Y-100560216D01*
X166468278Y-100578964D01*
X166469393Y-100580189D01*
X166475043Y-100588940D01*
X166483221Y-100595387D01*
X166483223Y-100595389D01*
X166501414Y-100609729D01*
X166505855Y-100613675D01*
X166505917Y-100613602D01*
X166509881Y-100616961D01*
X166513558Y-100620638D01*
X166529306Y-100631892D01*
X166533976Y-100635398D01*
X166574261Y-100667156D01*
X166582895Y-100670188D01*
X166590348Y-100675514D01*
X166639464Y-100690203D01*
X166645106Y-100692036D01*
X166685813Y-100706331D01*
X166693465Y-100709018D01*
X166699030Y-100709500D01*
X166701738Y-100709500D01*
X166704372Y-100709614D01*
X166704470Y-100709643D01*
X166704463Y-100709807D01*
X166705167Y-100709851D01*
X166711392Y-100711713D01*
X166765249Y-100709597D01*
X166770196Y-100709500D01*
X168221080Y-100709500D01*
X168245028Y-100712049D01*
X168246693Y-100712128D01*
X168256876Y-100714320D01*
X168267217Y-100713096D01*
X168290223Y-100710373D01*
X168296154Y-100710023D01*
X168296146Y-100709928D01*
X168301324Y-100709500D01*
X168306524Y-100709500D01*
X168311653Y-100708646D01*
X168311656Y-100708646D01*
X168325565Y-100706331D01*
X168331443Y-100705494D01*
X168372001Y-100700694D01*
X168372002Y-100700694D01*
X168382341Y-100699470D01*
X168390593Y-100695507D01*
X168399626Y-100694004D01*
X168408795Y-100689057D01*
X168408797Y-100689056D01*
X168444732Y-100669666D01*
X168450025Y-100666969D01*
X168489082Y-100648215D01*
X168489086Y-100648212D01*
X168496232Y-100644781D01*
X168500508Y-100641186D01*
X168502431Y-100639263D01*
X168504363Y-100637491D01*
X168504442Y-100637448D01*
X168504555Y-100637572D01*
X168505095Y-100637096D01*
X168510814Y-100634010D01*
X168547417Y-100594413D01*
X168550846Y-100590848D01*
X170407178Y-98734516D01*
X170469490Y-98700490D01*
X170498252Y-98697627D01*
X170622318Y-98699576D01*
X170622321Y-98699576D01*
X170629916Y-98699695D01*
X170784332Y-98664329D01*
X170861776Y-98625379D01*
X170919072Y-98596563D01*
X170919075Y-98596561D01*
X170925855Y-98593151D01*
X170931626Y-98588222D01*
X170931629Y-98588220D01*
X171040536Y-98495204D01*
X171040536Y-98495203D01*
X171046314Y-98490269D01*
X171138755Y-98361624D01*
X171197842Y-98214641D01*
X171209362Y-98133696D01*
X171219581Y-98061891D01*
X171219581Y-98061888D01*
X171220162Y-98057807D01*
X171220307Y-98044000D01*
X171201276Y-97886733D01*
X171145280Y-97738546D01*
X171086193Y-97652573D01*
X171059855Y-97614251D01*
X171059854Y-97614249D01*
X171055553Y-97607992D01*
X170937275Y-97502611D01*
X170929889Y-97498700D01*
X170803988Y-97432039D01*
X170803989Y-97432039D01*
X170797274Y-97428484D01*
X170643633Y-97389892D01*
X170636034Y-97389852D01*
X170636033Y-97389852D01*
X170570181Y-97389507D01*
X170485221Y-97389062D01*
X170477841Y-97390834D01*
X170477839Y-97390834D01*
X170338563Y-97424271D01*
X170338560Y-97424272D01*
X170331184Y-97426043D01*
X170190414Y-97498700D01*
X170071039Y-97602838D01*
X169979950Y-97732444D01*
X169977190Y-97739524D01*
X169930032Y-97860478D01*
X169922406Y-97880037D01*
X169921414Y-97887570D01*
X169921414Y-97887571D01*
X169905134Y-98011234D01*
X169901729Y-98037096D01*
X169904544Y-98062591D01*
X169907963Y-98093566D01*
X169895557Y-98163470D01*
X169871819Y-98196487D01*
X168154711Y-99913595D01*
X168092399Y-99947621D01*
X168065616Y-99950500D01*
X166968998Y-99950500D01*
X166900877Y-99930498D01*
X166879903Y-99913595D01*
X163928581Y-96962273D01*
X163913439Y-96943525D01*
X163912324Y-96942300D01*
X163906674Y-96933549D01*
X163898496Y-96927102D01*
X163898494Y-96927100D01*
X163880303Y-96912760D01*
X163875862Y-96908814D01*
X163875800Y-96908887D01*
X163871836Y-96905528D01*
X163868159Y-96901851D01*
X163852411Y-96890597D01*
X163847741Y-96887091D01*
X163807456Y-96855333D01*
X163798822Y-96852301D01*
X163791369Y-96846975D01*
X163742253Y-96832286D01*
X163736611Y-96830453D01*
X163695736Y-96816099D01*
X163695735Y-96816099D01*
X163688252Y-96813471D01*
X163682687Y-96812989D01*
X163679979Y-96812989D01*
X163677345Y-96812875D01*
X163677247Y-96812846D01*
X163677254Y-96812682D01*
X163676550Y-96812638D01*
X163670325Y-96810776D01*
X163616468Y-96812892D01*
X163611521Y-96812989D01*
X163075817Y-96812989D01*
X163051870Y-96810440D01*
X163050204Y-96810361D01*
X163040021Y-96808169D01*
X163029679Y-96809393D01*
X163029676Y-96809393D01*
X163006684Y-96812115D01*
X163000743Y-96812466D01*
X163000751Y-96812561D01*
X162995571Y-96812989D01*
X162990373Y-96812989D01*
X162985251Y-96813842D01*
X162985246Y-96813842D01*
X162971324Y-96816160D01*
X162965447Y-96816997D01*
X162958946Y-96817766D01*
X162924894Y-96821796D01*
X162924892Y-96821797D01*
X162914556Y-96823020D01*
X162906307Y-96826981D01*
X162897271Y-96828485D01*
X162888102Y-96833432D01*
X162888100Y-96833433D01*
X162852137Y-96852837D01*
X162846848Y-96855532D01*
X162833833Y-96861782D01*
X162800665Y-96877709D01*
X162796389Y-96881303D01*
X162794449Y-96883243D01*
X162792538Y-96884996D01*
X162792448Y-96885045D01*
X162792336Y-96884922D01*
X162791801Y-96885394D01*
X162786083Y-96888479D01*
X162779016Y-96896124D01*
X162749481Y-96928075D01*
X162746051Y-96931641D01*
X161746344Y-97931348D01*
X161684032Y-97965374D01*
X161671727Y-97967418D01*
X161665815Y-97968102D01*
X161658221Y-97968062D01*
X161518913Y-98001507D01*
X161448006Y-97997960D01*
X161390272Y-97956640D01*
X161364042Y-97890667D01*
X161363500Y-97878988D01*
X161363500Y-96654384D01*
X161383502Y-96586263D01*
X161400405Y-96565289D01*
X161861684Y-96104010D01*
X161923996Y-96069984D01*
X161994811Y-96075049D01*
X162035578Y-96099911D01*
X162062398Y-96124315D01*
X162102076Y-96160419D01*
X162241293Y-96236008D01*
X162394522Y-96276207D01*
X162478477Y-96277526D01*
X162545319Y-96278576D01*
X162545322Y-96278576D01*
X162552916Y-96278695D01*
X162707332Y-96243329D01*
X162808129Y-96192634D01*
X162842072Y-96175563D01*
X162842075Y-96175561D01*
X162848855Y-96172151D01*
X162854626Y-96167222D01*
X162854629Y-96167220D01*
X162963542Y-96074199D01*
X162963543Y-96074198D01*
X162969314Y-96069269D01*
X162979586Y-96054974D01*
X163035581Y-96011326D01*
X163081909Y-96002500D01*
X164974831Y-96002500D01*
X165042952Y-96022502D01*
X165063926Y-96039405D01*
X166296023Y-97271502D01*
X166330049Y-97333814D01*
X166331850Y-97377041D01*
X166326503Y-97417655D01*
X166328091Y-97432039D01*
X166339177Y-97532448D01*
X166343887Y-97575112D01*
X166346497Y-97582243D01*
X166346497Y-97582245D01*
X166388261Y-97696370D01*
X166398327Y-97723878D01*
X166402563Y-97730181D01*
X166402563Y-97730182D01*
X166437330Y-97781920D01*
X166486682Y-97855364D01*
X166492301Y-97860477D01*
X166492302Y-97860478D01*
X166598234Y-97956868D01*
X166603850Y-97961978D01*
X166743067Y-98037567D01*
X166896296Y-98077766D01*
X166934933Y-98078373D01*
X166957268Y-98078724D01*
X167025067Y-98099793D01*
X167070711Y-98154173D01*
X167080528Y-98190881D01*
X167083239Y-98215433D01*
X167086413Y-98244185D01*
X167089023Y-98251316D01*
X167089023Y-98251318D01*
X167137443Y-98383632D01*
X167140853Y-98392951D01*
X167145089Y-98399254D01*
X167145089Y-98399255D01*
X167220626Y-98511665D01*
X167229208Y-98524437D01*
X167234827Y-98529550D01*
X167234828Y-98529551D01*
X167340760Y-98625941D01*
X167346376Y-98631051D01*
X167485593Y-98706640D01*
X167638822Y-98746839D01*
X167722777Y-98748158D01*
X167789619Y-98749208D01*
X167789622Y-98749208D01*
X167797216Y-98749327D01*
X167951632Y-98713961D01*
X168030923Y-98674082D01*
X168086372Y-98646195D01*
X168086375Y-98646193D01*
X168093155Y-98642783D01*
X168098926Y-98637854D01*
X168098929Y-98637852D01*
X168207836Y-98544836D01*
X168207836Y-98544835D01*
X168213614Y-98539901D01*
X168306055Y-98411256D01*
X168365142Y-98264273D01*
X168384078Y-98131218D01*
X168386881Y-98111523D01*
X168386881Y-98111520D01*
X168387462Y-98107439D01*
X168387607Y-98093632D01*
X168385702Y-98077885D01*
X168381056Y-98039493D01*
X168368576Y-97936365D01*
X168312580Y-97788178D01*
X168263485Y-97716744D01*
X168227155Y-97663883D01*
X168227154Y-97663881D01*
X168222853Y-97657624D01*
X168149981Y-97592697D01*
X168112426Y-97532448D01*
X168107800Y-97498621D01*
X168107800Y-95421220D01*
X168110349Y-95397272D01*
X168110428Y-95395607D01*
X168112620Y-95385424D01*
X168108673Y-95352077D01*
X168108323Y-95346146D01*
X168108228Y-95346154D01*
X168107800Y-95340976D01*
X168107800Y-95335776D01*
X168106946Y-95330644D01*
X168104631Y-95316735D01*
X168103794Y-95310857D01*
X168098994Y-95270299D01*
X168098994Y-95270298D01*
X168097770Y-95259959D01*
X168093807Y-95251707D01*
X168092304Y-95242674D01*
X168087352Y-95233495D01*
X168067966Y-95197568D01*
X168065269Y-95192275D01*
X168046515Y-95153219D01*
X168046514Y-95153218D01*
X168043081Y-95146068D01*
X168039487Y-95141793D01*
X168037562Y-95139868D01*
X168035791Y-95137938D01*
X168035745Y-95137853D01*
X168035868Y-95137741D01*
X168035396Y-95137206D01*
X168032310Y-95131486D01*
X167992713Y-95094883D01*
X167989148Y-95091454D01*
X167545208Y-94647514D01*
X167545187Y-94647492D01*
X167446546Y-94548851D01*
X167340505Y-94442811D01*
X167306481Y-94380500D01*
X167311545Y-94309684D01*
X167354092Y-94252848D01*
X167420612Y-94228037D01*
X167431579Y-94227732D01*
X167523518Y-94229176D01*
X167523521Y-94229176D01*
X167531116Y-94229295D01*
X167685532Y-94193929D01*
X167783130Y-94144843D01*
X167820272Y-94126163D01*
X167820275Y-94126161D01*
X167827055Y-94122751D01*
X167832826Y-94117822D01*
X167832829Y-94117820D01*
X167941736Y-94024804D01*
X167941736Y-94024803D01*
X167947514Y-94019869D01*
X168039955Y-93891224D01*
X168099042Y-93744241D01*
X168118626Y-93606635D01*
X168120781Y-93591491D01*
X168120781Y-93591488D01*
X168121362Y-93587407D01*
X168121405Y-93583283D01*
X168121718Y-93579172D01*
X168123665Y-93579320D01*
X168142058Y-93518947D01*
X168158266Y-93499042D01*
X168463096Y-93194212D01*
X168525408Y-93160186D01*
X168552191Y-93157307D01*
X170058273Y-93157307D01*
X170082221Y-93159856D01*
X170083886Y-93159935D01*
X170094069Y-93162127D01*
X170104410Y-93160903D01*
X170127416Y-93158180D01*
X170133347Y-93157830D01*
X170133339Y-93157735D01*
X170138517Y-93157307D01*
X170143717Y-93157307D01*
X170148846Y-93156453D01*
X170148849Y-93156453D01*
X170162758Y-93154138D01*
X170168636Y-93153301D01*
X170209194Y-93148501D01*
X170209195Y-93148501D01*
X170219534Y-93147277D01*
X170227786Y-93143314D01*
X170236819Y-93141811D01*
X170245988Y-93136864D01*
X170245990Y-93136863D01*
X170281925Y-93117473D01*
X170287218Y-93114776D01*
X170326275Y-93096022D01*
X170326279Y-93096019D01*
X170333425Y-93092588D01*
X170337701Y-93088993D01*
X170339624Y-93087070D01*
X170341556Y-93085298D01*
X170341635Y-93085255D01*
X170341748Y-93085379D01*
X170342288Y-93084903D01*
X170348007Y-93081817D01*
X170384609Y-93042221D01*
X170388038Y-93038656D01*
X171251133Y-92175561D01*
X171313445Y-92141535D01*
X171384260Y-92146600D01*
X171430862Y-92177127D01*
X171444139Y-92190875D01*
X171477074Y-92253770D01*
X171470775Y-92324487D01*
X171441663Y-92368427D01*
X171414091Y-92395428D01*
X171375605Y-92433117D01*
X171371794Y-92439031D01*
X171371792Y-92439033D01*
X171342879Y-92483897D01*
X171283909Y-92575400D01*
X171281498Y-92582025D01*
X171228425Y-92727840D01*
X171228424Y-92727845D01*
X171226015Y-92734463D01*
X171204800Y-92902399D01*
X171221318Y-93070862D01*
X171274748Y-93231479D01*
X171278397Y-93237504D01*
X171352262Y-93359469D01*
X171362435Y-93376267D01*
X171367326Y-93381332D01*
X171367327Y-93381333D01*
X171391062Y-93405911D01*
X171480021Y-93498031D01*
X171621660Y-93590717D01*
X171780315Y-93649720D01*
X171787296Y-93650651D01*
X171787298Y-93650652D01*
X171941118Y-93671176D01*
X171941122Y-93671176D01*
X171948099Y-93672107D01*
X171955110Y-93671469D01*
X171955114Y-93671469D01*
X172109652Y-93657405D01*
X172116673Y-93656766D01*
X172277659Y-93604458D01*
X172408925Y-93526208D01*
X172417004Y-93521392D01*
X172417006Y-93521391D01*
X172423056Y-93517784D01*
X172512712Y-93432406D01*
X172575836Y-93399915D01*
X172646507Y-93406708D01*
X172690240Y-93436126D01*
X172710803Y-93457420D01*
X172750021Y-93498031D01*
X172891660Y-93590717D01*
X173050315Y-93649720D01*
X173057296Y-93650651D01*
X173057298Y-93650652D01*
X173211118Y-93671176D01*
X173211122Y-93671176D01*
X173218099Y-93672107D01*
X173225110Y-93671469D01*
X173225114Y-93671469D01*
X173379652Y-93657405D01*
X173386673Y-93656766D01*
X173547659Y-93604458D01*
X173678925Y-93526208D01*
X173687004Y-93521392D01*
X173687006Y-93521391D01*
X173693056Y-93517784D01*
X173815638Y-93401052D01*
X173819539Y-93395181D01*
X173905410Y-93265935D01*
X173905411Y-93265933D01*
X173909311Y-93260063D01*
X173969420Y-93101824D01*
X173980161Y-93025395D01*
X173992427Y-92938123D01*
X173992427Y-92938118D01*
X173992978Y-92934200D01*
X173993161Y-92921119D01*
X173993219Y-92916962D01*
X173993219Y-92916957D01*
X173993274Y-92913000D01*
X173982913Y-92820628D01*
X173975191Y-92751780D01*
X173975190Y-92751777D01*
X173974406Y-92744784D01*
X173918738Y-92584929D01*
X173829038Y-92441379D01*
X173819554Y-92431828D01*
X173780621Y-92392623D01*
X173754801Y-92366621D01*
X173720994Y-92304191D01*
X173726306Y-92233394D01*
X173757315Y-92186592D01*
X173801575Y-92144444D01*
X173815638Y-92131052D01*
X173819539Y-92125181D01*
X173905410Y-91995935D01*
X173905411Y-91995933D01*
X173909311Y-91990063D01*
X173969420Y-91831824D01*
X173976118Y-91784167D01*
X173978033Y-91770541D01*
X174007322Y-91705867D01*
X174013712Y-91698982D01*
X174347216Y-91365478D01*
X174365964Y-91350336D01*
X174367189Y-91349221D01*
X174375940Y-91343571D01*
X174382387Y-91335393D01*
X174382389Y-91335391D01*
X174396729Y-91317200D01*
X174400675Y-91312759D01*
X174400602Y-91312697D01*
X174403961Y-91308733D01*
X174407638Y-91305056D01*
X174418892Y-91289308D01*
X174422398Y-91284638D01*
X174454156Y-91244353D01*
X174457188Y-91235719D01*
X174462514Y-91228266D01*
X174477203Y-91179150D01*
X174479036Y-91173508D01*
X174493390Y-91132633D01*
X174493390Y-91132632D01*
X174496018Y-91125149D01*
X174496500Y-91119584D01*
X174496500Y-91116876D01*
X174496614Y-91114242D01*
X174496643Y-91114144D01*
X174496807Y-91114151D01*
X174496851Y-91113447D01*
X174498713Y-91107222D01*
X174496597Y-91053365D01*
X174496500Y-91048418D01*
X174496500Y-89715920D01*
X174499049Y-89691972D01*
X174499128Y-89690307D01*
X174501320Y-89680124D01*
X174497373Y-89646777D01*
X174497023Y-89640846D01*
X174496928Y-89640854D01*
X174496500Y-89635676D01*
X174496500Y-89630476D01*
X174495646Y-89625344D01*
X174493331Y-89611435D01*
X174492494Y-89605557D01*
X174487694Y-89564999D01*
X174487694Y-89564998D01*
X174486470Y-89554659D01*
X174482507Y-89546407D01*
X174481004Y-89537374D01*
X174456665Y-89492266D01*
X174453969Y-89486975D01*
X174435215Y-89447918D01*
X174435212Y-89447914D01*
X174431781Y-89440768D01*
X174428186Y-89436492D01*
X174426263Y-89434569D01*
X174424491Y-89432637D01*
X174424448Y-89432558D01*
X174424572Y-89432445D01*
X174424096Y-89431905D01*
X174421010Y-89426186D01*
X174381413Y-89389583D01*
X174377848Y-89386154D01*
X174296478Y-89304784D01*
X174281336Y-89286036D01*
X174280221Y-89284811D01*
X174274571Y-89276060D01*
X174266393Y-89269613D01*
X174266391Y-89269611D01*
X174248200Y-89255271D01*
X174243759Y-89251325D01*
X174243697Y-89251398D01*
X174239735Y-89248041D01*
X174236056Y-89244362D01*
X174220407Y-89233179D01*
X174176613Y-89177299D01*
X174169982Y-89106613D01*
X174202620Y-89043563D01*
X174264164Y-89008167D01*
X174293665Y-89004665D01*
X174912071Y-89004665D01*
X174980192Y-89024667D01*
G37*
%TD.AperFunction*%
%TA.AperFunction,Conductor*%
G36*
X145087621Y-89024667D02*
G01*
X145134114Y-89078323D01*
X145145500Y-89130665D01*
X145145501Y-90044929D01*
X145145501Y-90798066D01*
X145160266Y-90872301D01*
X145167161Y-90882620D01*
X145167162Y-90882622D01*
X145182833Y-90906075D01*
X145216516Y-90956484D01*
X145300699Y-91012734D01*
X145374933Y-91027500D01*
X145493939Y-91027500D01*
X146445615Y-91027499D01*
X146513736Y-91047501D01*
X146534710Y-91064404D01*
X146886522Y-91416216D01*
X146901664Y-91434964D01*
X146902779Y-91436189D01*
X146908429Y-91444940D01*
X146916607Y-91451387D01*
X146916609Y-91451389D01*
X146934800Y-91465729D01*
X146939241Y-91469675D01*
X146939303Y-91469602D01*
X146943267Y-91472961D01*
X146946944Y-91476638D01*
X146962692Y-91487892D01*
X146967362Y-91491398D01*
X147007647Y-91523156D01*
X147016281Y-91526188D01*
X147023734Y-91531514D01*
X147072850Y-91546203D01*
X147078492Y-91548036D01*
X147119367Y-91562390D01*
X147126851Y-91565018D01*
X147132416Y-91565500D01*
X147135124Y-91565500D01*
X147137758Y-91565614D01*
X147137856Y-91565643D01*
X147137849Y-91565807D01*
X147138553Y-91565851D01*
X147144778Y-91567713D01*
X147198635Y-91565597D01*
X147203582Y-91565500D01*
X151058093Y-91565500D01*
X151126214Y-91585502D01*
X151147188Y-91602405D01*
X151787854Y-92243071D01*
X151821880Y-92305383D01*
X151823681Y-92348613D01*
X151819772Y-92378305D01*
X151818334Y-92389224D01*
X151824752Y-92447353D01*
X151834285Y-92533700D01*
X151835718Y-92546681D01*
X151838328Y-92553812D01*
X151838328Y-92553814D01*
X151863444Y-92622446D01*
X151890158Y-92695447D01*
X151894394Y-92701750D01*
X151894394Y-92701751D01*
X151935870Y-92763473D01*
X151978513Y-92826933D01*
X151984132Y-92832046D01*
X151984133Y-92832047D01*
X152088951Y-92927423D01*
X152095681Y-92933547D01*
X152178691Y-92978618D01*
X152229011Y-93028699D01*
X152244268Y-93098037D01*
X152219616Y-93164617D01*
X152207663Y-93178443D01*
X150116011Y-95270095D01*
X150053699Y-95304121D01*
X150026258Y-95306998D01*
X149885821Y-95306262D01*
X149878441Y-95308034D01*
X149878439Y-95308034D01*
X149739163Y-95341471D01*
X149739160Y-95341472D01*
X149731784Y-95343243D01*
X149591014Y-95415900D01*
X149471639Y-95520038D01*
X149380550Y-95649644D01*
X149323006Y-95797237D01*
X149322014Y-95804770D01*
X149322014Y-95804771D01*
X149306112Y-95925563D01*
X149302329Y-95954296D01*
X149310268Y-96026207D01*
X149318406Y-96099911D01*
X149319713Y-96111753D01*
X149322323Y-96118884D01*
X149322323Y-96118886D01*
X149370841Y-96251468D01*
X149374153Y-96260519D01*
X149378389Y-96266822D01*
X149378389Y-96266823D01*
X149417378Y-96324844D01*
X149462508Y-96392005D01*
X149468127Y-96397118D01*
X149468128Y-96397119D01*
X149574060Y-96493509D01*
X149579676Y-96498619D01*
X149718893Y-96574208D01*
X149872122Y-96614407D01*
X149956077Y-96615726D01*
X150022919Y-96616776D01*
X150022922Y-96616776D01*
X150030516Y-96616895D01*
X150184932Y-96581529D01*
X150255342Y-96546117D01*
X150319672Y-96513763D01*
X150319675Y-96513761D01*
X150326455Y-96510351D01*
X150332226Y-96505422D01*
X150332229Y-96505420D01*
X150441136Y-96412404D01*
X150441136Y-96412403D01*
X150446914Y-96407469D01*
X150539355Y-96278824D01*
X150598442Y-96131841D01*
X150613138Y-96028576D01*
X150620181Y-95979091D01*
X150620181Y-95979088D01*
X150620762Y-95975007D01*
X150620907Y-95961200D01*
X150615037Y-95912696D01*
X150626709Y-95842668D01*
X150651029Y-95808465D01*
X153129889Y-93329605D01*
X153192201Y-93295579D01*
X153218984Y-93292700D01*
X155356141Y-93292700D01*
X155424262Y-93312702D01*
X155451522Y-93336369D01*
X155452672Y-93337701D01*
X155456908Y-93344005D01*
X155574076Y-93450619D01*
X155713293Y-93526208D01*
X155866522Y-93566407D01*
X155950477Y-93567726D01*
X156017319Y-93568776D01*
X156017322Y-93568776D01*
X156024916Y-93568895D01*
X156179332Y-93533529D01*
X156259989Y-93492963D01*
X156314072Y-93465763D01*
X156314075Y-93465761D01*
X156320855Y-93462351D01*
X156326626Y-93457422D01*
X156326629Y-93457420D01*
X156435536Y-93364404D01*
X156435536Y-93364403D01*
X156441314Y-93359469D01*
X156533755Y-93230824D01*
X156592842Y-93083841D01*
X156613716Y-92937170D01*
X156614581Y-92931091D01*
X156614581Y-92931088D01*
X156615162Y-92927007D01*
X156615307Y-92913200D01*
X156596276Y-92755933D01*
X156540280Y-92607746D01*
X156498311Y-92546681D01*
X156454855Y-92483451D01*
X156454854Y-92483449D01*
X156450553Y-92477192D01*
X156332275Y-92371811D01*
X156324889Y-92367900D01*
X156243202Y-92324649D01*
X156192274Y-92297684D01*
X156038633Y-92259092D01*
X156031034Y-92259052D01*
X156031033Y-92259052D01*
X155965181Y-92258707D01*
X155880221Y-92258262D01*
X155872841Y-92260034D01*
X155872839Y-92260034D01*
X155733563Y-92293471D01*
X155733560Y-92293472D01*
X155726184Y-92295243D01*
X155585414Y-92367900D01*
X155466039Y-92472038D01*
X155461672Y-92478251D01*
X155461667Y-92478257D01*
X155460336Y-92480151D01*
X155459013Y-92481205D01*
X155456589Y-92483897D01*
X155456140Y-92483493D01*
X155404802Y-92524383D01*
X155357250Y-92533700D01*
X153262797Y-92533700D01*
X153194676Y-92513698D01*
X153148183Y-92460042D01*
X153136804Y-92406372D01*
X153136912Y-92396128D01*
X153135166Y-92381695D01*
X153127376Y-92317324D01*
X153117881Y-92238861D01*
X153061885Y-92090674D01*
X152972158Y-91960120D01*
X152853880Y-91854739D01*
X152713879Y-91780612D01*
X152560238Y-91742020D01*
X152552639Y-91741980D01*
X152552638Y-91741980D01*
X152492231Y-91741664D01*
X152410940Y-91741238D01*
X152342926Y-91720880D01*
X152322506Y-91704335D01*
X151835146Y-91216975D01*
X151801120Y-91154663D01*
X151806185Y-91083848D01*
X151848732Y-91027012D01*
X151870855Y-91014414D01*
X151879301Y-91012734D01*
X151963484Y-90956484D01*
X152019734Y-90872301D01*
X152034500Y-90798067D01*
X152034499Y-89130665D01*
X152054501Y-89062544D01*
X152108157Y-89016051D01*
X152160499Y-89004665D01*
X152639500Y-89004665D01*
X152707621Y-89024667D01*
X152754114Y-89078323D01*
X152765500Y-89130665D01*
X152765501Y-90044929D01*
X152765501Y-90798066D01*
X152780266Y-90872301D01*
X152787161Y-90882620D01*
X152787162Y-90882622D01*
X152802833Y-90906075D01*
X152836516Y-90956484D01*
X152920699Y-91012734D01*
X152994933Y-91027500D01*
X153669890Y-91027500D01*
X154345066Y-91027499D01*
X154380818Y-91020388D01*
X154407126Y-91015156D01*
X154407128Y-91015155D01*
X154419301Y-91012734D01*
X154429621Y-91005839D01*
X154429622Y-91005838D01*
X154493168Y-90963377D01*
X154503484Y-90956484D01*
X154559734Y-90872301D01*
X154574500Y-90798067D01*
X154574499Y-89130665D01*
X154594501Y-89062544D01*
X154648157Y-89016051D01*
X154700499Y-89004665D01*
X155179500Y-89004665D01*
X155247621Y-89024667D01*
X155294114Y-89078323D01*
X155305500Y-89130665D01*
X155305501Y-90044929D01*
X155305501Y-90798066D01*
X155320266Y-90872301D01*
X155327161Y-90882620D01*
X155327162Y-90882622D01*
X155342833Y-90906075D01*
X155376516Y-90956484D01*
X155460699Y-91012734D01*
X155534933Y-91027500D01*
X156209890Y-91027500D01*
X156885066Y-91027499D01*
X156920818Y-91020388D01*
X156947126Y-91015156D01*
X156947128Y-91015155D01*
X156959301Y-91012734D01*
X156969621Y-91005839D01*
X156969622Y-91005838D01*
X157033168Y-90963377D01*
X157043484Y-90956484D01*
X157099734Y-90872301D01*
X157114500Y-90798067D01*
X157114499Y-89130665D01*
X157134501Y-89062544D01*
X157188157Y-89016051D01*
X157240499Y-89004665D01*
X157719500Y-89004665D01*
X157787621Y-89024667D01*
X157834114Y-89078323D01*
X157845500Y-89130665D01*
X157845501Y-90044929D01*
X157845501Y-90798066D01*
X157860266Y-90872301D01*
X157867161Y-90882620D01*
X157867162Y-90882622D01*
X157882833Y-90906075D01*
X157916516Y-90956484D01*
X158000699Y-91012734D01*
X158074933Y-91027500D01*
X158749890Y-91027500D01*
X159425066Y-91027499D01*
X159460818Y-91020388D01*
X159487126Y-91015156D01*
X159487128Y-91015155D01*
X159499301Y-91012734D01*
X159509621Y-91005839D01*
X159509622Y-91005838D01*
X159573168Y-90963377D01*
X159583484Y-90956484D01*
X159639734Y-90872301D01*
X159654500Y-90798067D01*
X159654499Y-89130665D01*
X159674501Y-89062544D01*
X159728157Y-89016051D01*
X159780499Y-89004665D01*
X160259500Y-89004665D01*
X160327621Y-89024667D01*
X160374114Y-89078323D01*
X160385500Y-89130665D01*
X160385501Y-90044929D01*
X160385501Y-90798066D01*
X160400266Y-90872301D01*
X160407161Y-90882620D01*
X160407162Y-90882622D01*
X160422833Y-90906075D01*
X160456516Y-90956484D01*
X160540699Y-91012734D01*
X160614933Y-91027500D01*
X161289890Y-91027500D01*
X161965066Y-91027499D01*
X162000818Y-91020388D01*
X162027126Y-91015156D01*
X162027128Y-91015155D01*
X162039301Y-91012734D01*
X162049621Y-91005839D01*
X162049622Y-91005838D01*
X162113168Y-90963377D01*
X162123484Y-90956484D01*
X162179734Y-90872301D01*
X162194500Y-90798067D01*
X162194499Y-89130665D01*
X162214501Y-89062544D01*
X162268157Y-89016051D01*
X162320499Y-89004665D01*
X162799500Y-89004665D01*
X162867621Y-89024667D01*
X162914114Y-89078323D01*
X162925500Y-89130665D01*
X162925501Y-90044929D01*
X162925501Y-90798066D01*
X162940266Y-90872301D01*
X162947161Y-90882620D01*
X162947162Y-90882622D01*
X162962833Y-90906075D01*
X162996516Y-90956484D01*
X163080699Y-91012734D01*
X163154933Y-91027500D01*
X163829890Y-91027500D01*
X164505066Y-91027499D01*
X164540818Y-91020388D01*
X164567126Y-91015156D01*
X164567128Y-91015155D01*
X164579301Y-91012734D01*
X164589621Y-91005839D01*
X164589622Y-91005838D01*
X164653168Y-90963377D01*
X164663484Y-90956484D01*
X164719734Y-90872301D01*
X164734500Y-90798067D01*
X164734499Y-89130665D01*
X164754501Y-89062544D01*
X164808157Y-89016051D01*
X164860499Y-89004665D01*
X165339500Y-89004665D01*
X165407621Y-89024667D01*
X165454114Y-89078323D01*
X165465500Y-89130665D01*
X165465501Y-90044929D01*
X165465501Y-90798066D01*
X165480266Y-90872301D01*
X165487161Y-90882620D01*
X165487162Y-90882622D01*
X165502833Y-90906075D01*
X165536516Y-90956484D01*
X165620699Y-91012734D01*
X165694933Y-91027500D01*
X165813939Y-91027500D01*
X166765615Y-91027499D01*
X166833736Y-91047501D01*
X166854710Y-91064404D01*
X166889711Y-91099405D01*
X166923737Y-91161717D01*
X166918672Y-91232532D01*
X166876125Y-91289368D01*
X166809605Y-91314179D01*
X166800616Y-91314500D01*
X161597920Y-91314500D01*
X161573972Y-91311951D01*
X161572307Y-91311872D01*
X161562124Y-91309680D01*
X161528777Y-91313627D01*
X161522846Y-91313977D01*
X161522854Y-91314072D01*
X161517676Y-91314500D01*
X161512476Y-91314500D01*
X161507347Y-91315354D01*
X161507344Y-91315354D01*
X161493435Y-91317669D01*
X161487557Y-91318506D01*
X161446999Y-91323306D01*
X161446998Y-91323306D01*
X161436659Y-91324530D01*
X161428407Y-91328493D01*
X161419374Y-91329996D01*
X161410205Y-91334943D01*
X161410203Y-91334944D01*
X161374268Y-91354334D01*
X161368975Y-91357031D01*
X161329913Y-91375787D01*
X161329907Y-91375791D01*
X161322768Y-91379219D01*
X161318492Y-91382813D01*
X161316553Y-91384752D01*
X161314638Y-91386508D01*
X161314552Y-91386555D01*
X161314439Y-91386433D01*
X161313904Y-91386905D01*
X161308186Y-91389990D01*
X161301118Y-91397636D01*
X161301117Y-91397637D01*
X161271596Y-91429573D01*
X161268166Y-91433139D01*
X158392784Y-94308522D01*
X158374036Y-94323664D01*
X158372811Y-94324779D01*
X158364060Y-94330429D01*
X158357613Y-94338607D01*
X158357611Y-94338609D01*
X158343271Y-94356800D01*
X158339325Y-94361241D01*
X158339398Y-94361303D01*
X158336039Y-94365267D01*
X158332362Y-94368944D01*
X158321108Y-94384692D01*
X158317602Y-94389362D01*
X158285844Y-94429647D01*
X158282812Y-94438281D01*
X158277486Y-94445734D01*
X158274501Y-94455715D01*
X158262799Y-94494844D01*
X158260964Y-94500492D01*
X158243982Y-94548851D01*
X158243500Y-94554416D01*
X158243500Y-94557124D01*
X158243386Y-94559758D01*
X158243357Y-94559856D01*
X158243193Y-94559849D01*
X158243149Y-94560553D01*
X158241287Y-94566778D01*
X158241696Y-94577183D01*
X158243403Y-94620635D01*
X158243500Y-94625582D01*
X158243500Y-97883947D01*
X158223498Y-97952068D01*
X158169842Y-97998561D01*
X158116840Y-98009945D01*
X158077713Y-98009740D01*
X158024621Y-98009462D01*
X158017241Y-98011234D01*
X158017239Y-98011234D01*
X157877963Y-98044671D01*
X157877960Y-98044672D01*
X157870584Y-98046443D01*
X157729814Y-98119100D01*
X157610439Y-98223238D01*
X157519350Y-98352844D01*
X157503713Y-98392951D01*
X157479748Y-98454419D01*
X157461806Y-98500437D01*
X157460814Y-98507970D01*
X157460814Y-98507971D01*
X157442617Y-98646195D01*
X157441129Y-98657496D01*
X157446986Y-98710548D01*
X157452645Y-98761800D01*
X157458513Y-98814953D01*
X157461123Y-98822084D01*
X157461123Y-98822086D01*
X157506794Y-98946888D01*
X157512953Y-98963719D01*
X157601308Y-99095205D01*
X157606927Y-99100318D01*
X157606928Y-99100319D01*
X157686256Y-99172501D01*
X157718476Y-99201819D01*
X157857693Y-99277408D01*
X158010922Y-99317607D01*
X158094877Y-99318926D01*
X158161719Y-99319976D01*
X158161722Y-99319976D01*
X158169316Y-99320095D01*
X158323732Y-99284729D01*
X158394142Y-99249317D01*
X158458472Y-99216963D01*
X158458475Y-99216961D01*
X158465255Y-99213551D01*
X158471026Y-99208622D01*
X158471029Y-99208620D01*
X158579936Y-99115604D01*
X158579936Y-99115603D01*
X158585714Y-99110669D01*
X158678155Y-98982024D01*
X158737242Y-98835041D01*
X158748443Y-98756337D01*
X158758981Y-98682291D01*
X158758981Y-98682288D01*
X158759562Y-98678207D01*
X158759707Y-98664400D01*
X158753837Y-98615896D01*
X158765509Y-98545868D01*
X158789829Y-98511665D01*
X158853216Y-98448278D01*
X158871964Y-98433136D01*
X158873189Y-98432021D01*
X158881940Y-98426371D01*
X158888387Y-98418193D01*
X158888389Y-98418191D01*
X158902729Y-98400000D01*
X158906675Y-98395559D01*
X158906602Y-98395497D01*
X158909961Y-98391533D01*
X158913638Y-98387856D01*
X158924892Y-98372108D01*
X158928398Y-98367438D01*
X158960156Y-98327153D01*
X158963188Y-98318519D01*
X158968514Y-98311066D01*
X158983203Y-98261950D01*
X158985036Y-98256308D01*
X158999390Y-98215433D01*
X158999390Y-98215432D01*
X159002018Y-98207949D01*
X159002500Y-98202384D01*
X159002500Y-98199676D01*
X159002614Y-98197042D01*
X159002643Y-98196944D01*
X159002807Y-98196951D01*
X159002851Y-98196247D01*
X159004713Y-98190022D01*
X159002597Y-98136165D01*
X159002500Y-98131218D01*
X159002500Y-96068141D01*
X159022502Y-96000020D01*
X159076158Y-95953527D01*
X159146432Y-95943423D01*
X159188622Y-95957410D01*
X159196792Y-95961846D01*
X159241293Y-95986008D01*
X159394522Y-96026207D01*
X159478477Y-96027526D01*
X159545319Y-96028576D01*
X159545322Y-96028576D01*
X159552916Y-96028695D01*
X159707332Y-95993329D01*
X159806560Y-95943423D01*
X159842072Y-95925563D01*
X159842075Y-95925561D01*
X159848855Y-95922151D01*
X159854626Y-95917222D01*
X159854629Y-95917220D01*
X159963536Y-95824204D01*
X159963536Y-95824203D01*
X159969314Y-95819269D01*
X160061755Y-95690624D01*
X160120842Y-95543641D01*
X160137541Y-95426306D01*
X160142581Y-95390891D01*
X160142581Y-95390888D01*
X160143162Y-95386807D01*
X160143307Y-95373000D01*
X160137437Y-95324496D01*
X160149109Y-95254468D01*
X160173429Y-95220265D01*
X160604289Y-94789405D01*
X160666601Y-94755379D01*
X160693384Y-94752500D01*
X162241531Y-94752500D01*
X162309652Y-94772502D01*
X162356145Y-94826158D01*
X162366249Y-94896432D01*
X162336755Y-94961012D01*
X162270945Y-95001019D01*
X162261564Y-95003271D01*
X162261562Y-95003272D01*
X162254184Y-95005043D01*
X162113414Y-95077700D01*
X161994039Y-95181838D01*
X161989670Y-95188055D01*
X161982714Y-95197952D01*
X161927179Y-95242183D01*
X161879628Y-95251500D01*
X161851920Y-95251500D01*
X161827972Y-95248951D01*
X161826307Y-95248872D01*
X161816124Y-95246680D01*
X161805783Y-95247904D01*
X161782777Y-95250627D01*
X161776846Y-95250977D01*
X161776854Y-95251072D01*
X161771676Y-95251500D01*
X161766476Y-95251500D01*
X161761347Y-95252354D01*
X161761344Y-95252354D01*
X161747435Y-95254669D01*
X161741557Y-95255506D01*
X161700999Y-95260306D01*
X161700998Y-95260306D01*
X161690659Y-95261530D01*
X161682407Y-95265493D01*
X161673374Y-95266996D01*
X161664205Y-95271943D01*
X161664203Y-95271944D01*
X161628268Y-95291334D01*
X161622975Y-95294031D01*
X161583918Y-95312785D01*
X161583914Y-95312788D01*
X161576768Y-95316219D01*
X161572492Y-95319814D01*
X161570569Y-95321737D01*
X161568637Y-95323509D01*
X161568558Y-95323552D01*
X161568445Y-95323428D01*
X161567905Y-95323904D01*
X161562186Y-95326990D01*
X161555119Y-95334635D01*
X161525584Y-95366586D01*
X161522154Y-95370152D01*
X160753784Y-96138522D01*
X160735036Y-96153664D01*
X160733811Y-96154779D01*
X160725060Y-96160429D01*
X160718613Y-96168607D01*
X160718611Y-96168609D01*
X160704271Y-96186800D01*
X160700325Y-96191241D01*
X160700398Y-96191303D01*
X160697039Y-96195267D01*
X160693362Y-96198944D01*
X160682108Y-96214692D01*
X160678602Y-96219362D01*
X160646844Y-96259647D01*
X160643812Y-96268281D01*
X160638486Y-96275734D01*
X160635501Y-96285715D01*
X160623799Y-96324844D01*
X160621964Y-96330492D01*
X160604982Y-96378851D01*
X160604500Y-96384416D01*
X160604500Y-96387124D01*
X160604386Y-96389758D01*
X160604357Y-96389856D01*
X160604193Y-96389849D01*
X160604149Y-96390553D01*
X160602287Y-96396778D01*
X160602696Y-96407183D01*
X160604403Y-96450635D01*
X160604500Y-96455582D01*
X160604500Y-100520085D01*
X160584498Y-100588206D01*
X160561330Y-100615033D01*
X160494039Y-100673736D01*
X160402950Y-100803342D01*
X160359790Y-100914042D01*
X160355525Y-100924981D01*
X160312144Y-100981182D01*
X160238132Y-101005211D01*
X157191631Y-101005211D01*
X157167684Y-101002662D01*
X157166018Y-101002583D01*
X157155835Y-101000391D01*
X157145493Y-101001615D01*
X157145490Y-101001615D01*
X157122498Y-101004337D01*
X157116557Y-101004688D01*
X157116565Y-101004783D01*
X157111385Y-101005211D01*
X157106187Y-101005211D01*
X157101065Y-101006064D01*
X157101060Y-101006064D01*
X157087138Y-101008382D01*
X157081261Y-101009219D01*
X157074760Y-101009988D01*
X157040708Y-101014018D01*
X157040706Y-101014019D01*
X157030370Y-101015242D01*
X157022121Y-101019203D01*
X157013085Y-101020707D01*
X157003916Y-101025654D01*
X157003914Y-101025655D01*
X156967951Y-101045059D01*
X156962662Y-101047754D01*
X156949647Y-101054004D01*
X156916479Y-101069931D01*
X156912203Y-101073525D01*
X156910263Y-101075465D01*
X156908352Y-101077218D01*
X156908262Y-101077267D01*
X156908150Y-101077144D01*
X156907615Y-101077616D01*
X156901897Y-101080701D01*
X156894830Y-101088346D01*
X156865295Y-101120297D01*
X156861891Y-101123837D01*
X156739805Y-101245923D01*
X156677497Y-101279946D01*
X156606681Y-101274882D01*
X156561618Y-101245921D01*
X156470192Y-101154495D01*
X156455050Y-101135747D01*
X156453935Y-101134522D01*
X156448285Y-101125771D01*
X156440107Y-101119324D01*
X156440105Y-101119322D01*
X156421914Y-101104982D01*
X156417473Y-101101036D01*
X156417411Y-101101109D01*
X156413447Y-101097750D01*
X156409770Y-101094073D01*
X156394022Y-101082819D01*
X156389352Y-101079313D01*
X156349067Y-101047555D01*
X156340433Y-101044523D01*
X156332980Y-101039197D01*
X156283864Y-101024508D01*
X156278222Y-101022675D01*
X156237347Y-101008321D01*
X156237346Y-101008321D01*
X156229863Y-101005693D01*
X156224298Y-101005211D01*
X156221590Y-101005211D01*
X156218956Y-101005097D01*
X156218858Y-101005068D01*
X156218865Y-101004904D01*
X156218161Y-101004860D01*
X156211936Y-101002998D01*
X156158079Y-101005114D01*
X156153132Y-101005211D01*
X150587636Y-101005211D01*
X150563678Y-101002661D01*
X150562019Y-101002583D01*
X150551835Y-101000390D01*
X150541493Y-101001614D01*
X150541490Y-101001614D01*
X150518490Y-101004337D01*
X150512559Y-101004687D01*
X150512567Y-101004783D01*
X150507391Y-101005211D01*
X150502187Y-101005211D01*
X150483123Y-101008384D01*
X150477277Y-101009215D01*
X150465828Y-101010570D01*
X150426370Y-101015241D01*
X150418118Y-101019204D01*
X150409085Y-101020707D01*
X150399916Y-101025654D01*
X150399914Y-101025655D01*
X150363979Y-101045045D01*
X150358687Y-101047742D01*
X150312479Y-101069930D01*
X150308204Y-101073524D01*
X150306279Y-101075449D01*
X150304349Y-101077220D01*
X150304264Y-101077266D01*
X150304152Y-101077143D01*
X150303617Y-101077615D01*
X150297897Y-101080701D01*
X150290830Y-101088346D01*
X150261295Y-101120297D01*
X150257865Y-101123863D01*
X150229153Y-101152575D01*
X150166841Y-101186601D01*
X150140058Y-101189480D01*
X149697682Y-101189480D01*
X149629561Y-101169478D01*
X149603114Y-101143840D01*
X149601878Y-101144929D01*
X149596855Y-101139231D01*
X149592553Y-101132972D01*
X149586413Y-101127501D01*
X149533885Y-101080701D01*
X149474275Y-101027591D01*
X149466889Y-101023680D01*
X149386624Y-100981182D01*
X149334274Y-100953464D01*
X149180633Y-100914872D01*
X149173034Y-100914832D01*
X149173033Y-100914832D01*
X149107181Y-100914487D01*
X149022221Y-100914042D01*
X149014841Y-100915814D01*
X149014839Y-100915814D01*
X148875563Y-100949251D01*
X148875560Y-100949252D01*
X148868184Y-100951023D01*
X148727414Y-101023680D01*
X148608039Y-101127818D01*
X148516950Y-101257424D01*
X148459406Y-101405017D01*
X148438729Y-101562076D01*
X148439563Y-101569626D01*
X148453124Y-101692456D01*
X148456113Y-101719533D01*
X148458723Y-101726664D01*
X148458723Y-101726666D01*
X148465315Y-101744679D01*
X148469941Y-101815525D01*
X148435531Y-101877625D01*
X148373009Y-101911264D01*
X148346989Y-101913980D01*
X143295264Y-101913980D01*
X143227143Y-101893978D01*
X143206169Y-101877075D01*
X142016805Y-100687711D01*
X141982779Y-100625399D01*
X141979900Y-100598616D01*
X141979899Y-99534123D01*
X141979899Y-99527934D01*
X141965134Y-99453699D01*
X141908884Y-99369516D01*
X141824701Y-99313266D01*
X141750467Y-99298500D01*
X141666359Y-99298500D01*
X140079471Y-99298501D01*
X140011350Y-99278499D01*
X139964857Y-99224843D01*
X139953471Y-99172501D01*
X139953471Y-98693500D01*
X139973473Y-98625379D01*
X140027129Y-98578886D01*
X140079471Y-98567500D01*
X141666332Y-98567499D01*
X141750466Y-98567499D01*
X141786218Y-98560388D01*
X141812526Y-98555156D01*
X141812528Y-98555155D01*
X141824701Y-98552734D01*
X141835021Y-98545839D01*
X141835022Y-98545838D01*
X141898568Y-98503377D01*
X141908884Y-98496484D01*
X141965134Y-98412301D01*
X141979900Y-98338067D01*
X141979899Y-96987934D01*
X141968703Y-96931641D01*
X141967556Y-96925874D01*
X141967555Y-96925872D01*
X141965134Y-96913699D01*
X141957218Y-96901851D01*
X141915777Y-96839832D01*
X141908884Y-96829516D01*
X141824701Y-96773266D01*
X141750467Y-96758500D01*
X141666359Y-96758500D01*
X140079471Y-96758501D01*
X140011350Y-96738499D01*
X139964857Y-96684843D01*
X139953471Y-96632501D01*
X139953471Y-96153500D01*
X139973473Y-96085379D01*
X140027129Y-96038886D01*
X140079471Y-96027500D01*
X141666332Y-96027499D01*
X141750466Y-96027499D01*
X141786218Y-96020388D01*
X141812526Y-96015156D01*
X141812528Y-96015155D01*
X141824701Y-96012734D01*
X141835021Y-96005839D01*
X141835022Y-96005838D01*
X141898568Y-95963377D01*
X141908884Y-95956484D01*
X141965134Y-95872301D01*
X141979900Y-95798067D01*
X141979899Y-94447934D01*
X141965134Y-94373699D01*
X141953843Y-94356800D01*
X141915777Y-94299832D01*
X141908884Y-94289516D01*
X141824701Y-94233266D01*
X141750467Y-94218500D01*
X141666359Y-94218500D01*
X140079471Y-94218501D01*
X140011350Y-94198499D01*
X139964857Y-94144843D01*
X139953471Y-94092501D01*
X139953471Y-89130665D01*
X139973473Y-89062544D01*
X140027129Y-89016051D01*
X140079471Y-89004665D01*
X145019500Y-89004665D01*
X145087621Y-89024667D01*
G37*
%TD.AperFunction*%
%TD*%
M02*
